<svg width="166" height="33" viewBox="0 0 166 33" fill="none" xmlns="http://www.w3.org/2000/svg">
<path d="M23.1619 19.7008C23.1619 20.2511 22.7145 20.6985 22.1643 20.6985C21.614 20.6985 21.1666 20.2511 21.1666 19.7008C21.1666 19.1506 21.614 18.7032 22.1643 18.7032C22.7145 18.698 23.1619 19.1454 23.1619 19.7008Z" fill="#C2533D"/>
<path d="M19.6852 13.3199C19.6852 13.8702 19.2378 14.3176 18.6876 14.3176C18.1373 14.3176 17.6899 13.8702 17.6899 13.3199C17.6899 12.7697 18.1373 12.3223 18.6876 12.3223C19.2327 12.3223 19.6852 12.7697 19.6852 13.3199Z" fill="#C2533D"/>
<path d="M18.5232 3.61097C18.5232 4.16121 18.0758 4.60861 17.5256 4.60861C16.9753 4.60861 16.528 4.16121 16.528 3.61097C16.528 3.06072 16.9753 2.61333 17.5256 2.61333C18.0758 2.60818 18.5232 3.05558 18.5232 3.61097Z" fill="#C2533D"/>
<path d="M14.1162 15.2788C14.1162 16.4821 13.1442 17.4541 11.9409 17.4541C10.7376 17.4541 9.76562 16.4821 9.76562 15.2788C9.76562 14.0806 10.7376 13.1035 11.9409 13.1035C13.1442 13.1035 14.1162 14.0754 14.1162 15.2788Z" fill="#C2533D"/>
<path d="M20.7859 30.7166C20.7859 31.8788 19.8448 32.8198 18.6826 32.8198C17.5204 32.8198 16.5793 31.8788 16.5793 30.7166C16.5793 29.5544 17.5204 28.6133 18.6826 28.6133C19.8448 28.6133 20.7859 29.5544 20.7859 30.7166Z" fill="#C2533D"/>
<path d="M12.9435 11.0152C12.9435 11.5655 12.4961 12.0129 11.9459 12.0129C11.3956 12.0129 10.9482 11.5655 10.9482 11.0152C10.9482 10.465 11.3956 10.0176 11.9459 10.0176C12.4961 10.0176 12.9435 10.465 12.9435 11.0152Z" fill="#C2533D"/>
<path d="M23.8149 9.77112C23.8149 10.3214 23.3675 10.7688 22.8172 10.7688C22.267 10.7688 21.8196 10.3214 21.8196 9.77112C21.8196 9.22088 22.267 8.77348 22.8172 8.77348C23.3675 8.76834 23.8149 9.21574 23.8149 9.77112Z" fill="#C2533D"/>
<path d="M23.0176 4.32967C23.0176 4.87992 22.5702 5.32732 22.02 5.32732C21.4697 5.32732 21.0223 4.87992 21.0223 4.32967C21.0223 3.77943 21.4697 3.33203 22.02 3.33203C22.5702 3.33203 23.0176 3.77943 23.0176 4.32967Z" fill="#C2533D"/>
<path d="M13.4477 0.997643C13.4477 1.54789 13.0003 1.99529 12.45 1.99529C11.8998 1.99529 11.4524 1.54789 11.4524 0.997643C11.4524 0.447397 11.8998 0 12.45 0C13.0003 0 13.4477 0.447397 13.4477 0.997643Z" fill="#C2533D"/>
<path d="M14.6097 18.8277C14.6097 19.378 14.1623 19.8254 13.612 19.8254C13.0618 19.8254 12.6144 19.378 12.6144 18.8277C12.6144 18.2775 13.0618 17.8301 13.612 17.8301C14.1623 17.8301 14.6097 18.2775 14.6097 18.8277Z" fill="#C2533D"/>
<path d="M28.5252 14.6266C28.5252 15.1768 28.0778 15.6242 27.5276 15.6242C26.9773 15.6242 26.5299 15.1768 26.5299 14.6266C26.5299 14.0763 26.9773 13.6289 27.5276 13.6289C28.0778 13.6238 28.5252 14.0763 28.5252 14.6266Z" fill="#C2533D"/>
<path d="M26.1494 16.363C26.1494 17.5252 25.2084 18.4663 24.0461 18.4663C22.8839 18.4663 21.9429 17.5252 21.9429 16.363C21.9429 15.2008 22.8839 14.2598 24.0461 14.2598C25.2084 14.2598 26.1494 15.2008 26.1494 16.363Z" fill="#C2533D"/>
<path d="M7.03996 9.24569C7.03996 9.79594 6.59257 10.2433 6.04232 10.2433C5.49207 10.2433 5.04468 9.79594 5.04468 9.24569C5.04468 8.69544 5.49207 8.24805 6.04232 8.24805C6.59257 8.24805 7.03996 8.69544 7.03996 9.24569Z" fill="#C2533D"/>
<path d="M5.33293 14.6266C5.33293 15.1768 4.88554 15.6242 4.33529 15.6242C3.78504 15.6242 3.33765 15.1768 3.33765 14.6266C3.33765 14.0763 3.78504 13.6289 4.33529 13.6289C4.88554 13.6238 5.33293 14.0763 5.33293 14.6266Z" fill="#C2533D"/>
<path d="M3.0136 9.13441C3.0136 9.68465 2.5662 10.132 2.01595 10.132C1.46571 10.132 1.01831 9.68465 1.01831 9.13441C1.01831 8.58416 1.46571 8.13676 2.01595 8.13676C2.5662 8.13162 3.0136 8.57902 3.0136 9.13441Z" fill="#C2533D"/>
<path d="M9.40569 11.7105C9.40569 12.2608 8.95829 12.7082 8.40804 12.7082C7.8578 12.7082 7.4104 12.2608 7.4104 11.7105C7.4104 11.1603 7.8578 10.7129 8.40804 10.7129C8.95829 10.7129 9.40569 11.1603 9.40569 11.7105Z" fill="#C2533D"/>
<path d="M17.6543 10.7125C17.6543 11.2628 17.2069 11.7102 16.6567 11.7102C16.1065 11.7102 15.6591 11.2628 15.6591 10.7125C15.6591 10.1623 16.1065 9.71489 16.6567 9.71489C17.2069 9.70975 17.6543 10.1571 17.6543 10.7125Z" fill="#C2533D"/>
<path d="M22.8018 12.8141C22.8018 13.3643 22.3544 13.8117 21.8042 13.8117C21.2539 13.8117 20.8065 13.3643 20.8065 12.8141C20.8065 12.2638 21.2539 11.8165 21.8042 11.8165C22.3544 11.8113 22.8018 12.2587 22.8018 12.8141Z" fill="#C2533D"/>
<path d="M17.4379 15.2789C17.4379 15.8292 16.9905 16.2766 16.4403 16.2766C15.89 16.2766 15.4426 15.8292 15.4426 15.2789C15.4426 14.7287 15.89 14.2813 16.4403 14.2813C16.9905 14.2762 17.4379 14.7235 17.4379 15.2789Z" fill="#C2533D"/>
<path d="M29.3224 11.6539C29.3224 12.2041 28.875 12.6515 28.3248 12.6515C27.7745 12.6515 27.3271 12.2041 27.3271 11.6539C27.3271 11.1036 27.7745 10.6562 28.3248 10.6562C28.875 10.6563 29.3224 11.1036 29.3224 11.6539Z" fill="#C2533D"/>
<path d="M12.8715 7.66761C12.8715 8.21785 12.4241 8.66525 11.8739 8.66525C11.3236 8.66525 10.8762 8.21785 10.8762 7.66761C10.8762 7.11736 11.3236 6.66997 11.8739 6.66997C12.4241 6.66482 12.8715 7.11222 12.8715 7.66761Z" fill="#C2533D"/>
<path d="M14.8978 3.61097C14.8978 4.16121 14.4504 4.60861 13.9001 4.60861C13.3499 4.60861 12.9025 4.16121 12.9025 3.61097C12.9025 3.06072 13.3499 2.61333 13.9001 2.61333C14.4504 2.60818 14.8978 3.05558 14.8978 3.61097Z" fill="#C2533D"/>
<path d="M23.0176 27.6715C23.0176 28.2218 22.5702 28.6692 22.02 28.6692C21.4697 28.6692 21.0223 28.2218 21.0223 27.6715C21.0223 27.1213 21.4697 26.6739 22.02 26.6739C22.5702 26.6687 23.0176 27.1213 23.0176 27.6715Z" fill="#C2533D"/>
<path d="M15.4789 26.2223C15.4789 26.7725 15.0315 27.2199 14.4813 27.2199C13.931 27.2199 13.4836 26.7725 13.4836 26.2223C13.4836 25.672 13.931 25.2246 14.4813 25.2246C15.0315 25.2246 15.4789 25.672 15.4789 26.2223Z" fill="#C2533D"/>
<path d="M19.1044 20.7145C19.1044 21.2647 18.657 21.7121 18.1068 21.7121C17.5565 21.7121 17.1091 21.2647 17.1091 20.7145C17.1091 20.1642 17.5565 19.7168 18.1068 19.7168C18.657 19.7117 19.1044 20.1591 19.1044 20.7145Z" fill="#C2533D"/>
<path d="M9.77064 5.34742C9.77064 6.50962 8.82957 7.4507 7.66737 7.4507C6.50516 7.4507 5.56409 6.50962 5.56409 5.34742C5.56409 4.18522 6.50516 3.24414 7.66737 3.24414C8.82957 3.24414 9.77064 4.18522 9.77064 5.34742Z" fill="#C2533D"/>
<path d="M16.7287 22.4529C16.7287 23.6151 15.7876 24.5562 14.6254 24.5562C13.4632 24.5562 12.5221 23.6151 12.5221 22.4529C12.5221 21.2907 13.4632 20.3496 14.6254 20.3496C15.7876 20.3496 16.7287 21.2907 16.7287 22.4529Z" fill="#FAA546"/>
<path d="M21.5111 6.94312C21.5111 8.10532 20.57 9.0464 19.4078 9.0464C18.2456 9.0464 17.3046 8.10532 17.3046 6.94312C17.3046 5.78092 18.2456 4.83984 19.4078 4.83984C20.57 4.83984 21.5111 5.78092 21.5111 6.94312Z" fill="#FAA546"/>
<path d="M23.1052 23.615C23.1052 24.7772 22.1642 25.7183 21.002 25.7183C19.8398 25.7183 18.8987 24.7772 18.8987 23.615C18.8987 22.4528 19.8398 21.5117 21.002 21.5117C22.1642 21.5117 23.1052 22.4528 23.1052 23.615Z" fill="#FAA546"/>
<path d="M20.4054 18.3942C20.4054 18.9444 19.958 19.3918 19.4078 19.3918C18.8576 19.3918 18.4102 18.9444 18.4102 18.3942C18.4102 17.8439 18.8576 17.3965 19.4078 17.3965C19.958 17.3914 20.4054 17.8388 20.4054 18.3942Z" fill="#FAA546"/>
<path d="M25.0492 21.7281C25.0492 22.2784 24.6018 22.7258 24.0516 22.7258C23.5014 22.7258 23.054 22.2784 23.054 21.7281C23.054 21.1779 23.5014 20.7305 24.0516 20.7305C24.5967 20.7305 25.0492 21.1779 25.0492 21.7281Z" fill="#FAA546"/>
<path d="M1.99529 12.0133C1.99529 12.5635 1.54789 13.0109 0.997643 13.0109C0.447396 13.0109 0 12.5635 0 12.0133C0 11.463 0.447396 11.0156 0.997643 11.0156C1.54789 11.0156 1.99529 11.463 1.99529 12.0133Z" fill="#FAA546"/>
<path d="M6.63872 2.59139C6.63872 3.14164 6.19132 3.58904 5.64108 3.58904C5.09083 3.58904 4.64343 3.14164 4.64343 2.59139C4.64343 2.04115 5.09083 1.59375 5.64108 1.59375C6.18618 1.59375 6.63872 2.04115 6.63872 2.59139Z" fill="#FAA546"/>
<path d="M8.66521 14.3375C8.66521 14.8878 8.21781 15.3352 7.66757 15.3352C7.11732 15.3352 6.66992 14.8878 6.66992 14.3375C6.66992 13.7873 7.11732 13.3399 7.66757 13.3399C8.21781 13.3347 8.66521 13.7821 8.66521 14.3375Z" fill="#FAA546"/>
<path d="M5.03948 6.78284C5.03948 7.33309 4.59208 7.78049 4.04183 7.78049C3.49159 7.78049 3.04419 7.33309 3.04419 6.78284C3.04419 6.2326 3.49159 5.7852 4.04183 5.7852C4.59208 5.78006 5.03948 6.22745 5.03948 6.78284Z" fill="#FAA546"/>
<path d="M15.4789 8.66561C15.4789 9.21586 15.0315 9.66326 14.4813 9.66326C13.931 9.66326 13.4836 9.21586 13.4836 8.66561C13.4836 8.11537 13.931 7.66797 14.4813 7.66797C15.0315 7.66797 15.4789 8.11537 15.4789 8.66561Z" fill="#FAA546"/>
<path d="M20.8426 10.7125C20.8426 11.2628 20.3952 11.7102 19.8449 11.7102C19.2947 11.7102 18.8473 11.2628 18.8473 10.7125C18.8473 10.1623 19.2947 9.71489 19.8449 9.71489C20.3952 9.70975 20.8426 10.1571 20.8426 10.7125Z" fill="#FAA546"/>
<path d="M24.0308 7.08749C24.0308 7.63773 23.5834 8.08513 23.0332 8.08513C22.4829 8.08513 22.0355 7.63773 22.0355 7.08749C22.0355 6.53724 22.4829 6.08984 23.0332 6.08984C23.5834 6.08984 24.0308 6.53724 24.0308 7.08749Z" fill="#FAA546"/>
<path d="M15.6948 12.7283C15.7411 13.2785 15.3348 13.7619 14.7846 13.8082C14.2343 13.8545 13.7509 13.4482 13.7046 12.898C13.6584 12.3477 14.0646 11.8643 14.6149 11.818C15.1651 11.7718 15.6485 12.178 15.6948 12.7283Z" fill="#FAA546"/>
<path d="M5.33293 11.7262C5.33293 12.2764 4.88554 12.7238 4.33529 12.7238C3.78504 12.7238 3.33765 12.2764 3.33765 11.7262C3.33765 11.1759 3.78504 10.7285 4.33529 10.7285C4.88554 10.7285 5.33293 11.1759 5.33293 11.7262Z" fill="#FAA546"/>
<path d="M10.4034 9.26136C10.4034 9.8116 9.95597 10.259 9.40572 10.259C8.85548 10.259 8.40808 9.8116 8.40808 9.26136C8.40808 8.71111 8.85548 8.26372 9.40572 8.26372C9.95597 8.25857 10.4034 8.71111 10.4034 9.26136Z" fill="#FAA546"/>
<path d="M16.1166 5.83749C16.1166 6.38773 15.6692 6.83513 15.119 6.83513C14.5687 6.83513 14.1213 6.38773 14.1213 5.83749C14.1213 5.28724 14.5687 4.83984 15.119 4.83984C15.6692 4.83984 16.1166 5.28724 16.1166 5.83749Z" fill="#FAA546"/>
<path d="M12.2903 4.76717C12.2903 5.31742 11.8429 5.76482 11.2927 5.76482C10.7424 5.76482 10.295 5.31742 10.295 4.76717C10.295 4.21693 10.7424 3.76953 11.2927 3.76953C11.8429 3.76953 12.2903 4.21693 12.2903 4.76717Z" fill="#FAA546"/>
<path d="M26.0622 12.0133C26.0622 12.5635 25.6148 13.0109 25.0645 13.0109C24.5143 13.0109 24.0669 12.5635 24.0669 12.0133C24.0669 11.463 24.5143 11.0156 25.0645 11.0156C25.6148 11.0156 26.0622 11.463 26.0622 12.0133Z" fill="#FAA546"/>
<path d="M10.6962 2.1598C10.6962 2.71004 10.2488 3.15744 9.69857 3.15744C9.14832 3.15744 8.70093 2.71004 8.70093 2.1598C8.70093 1.60955 9.14832 1.16215 9.69857 1.16215C10.2488 1.15701 10.6962 1.60441 10.6962 2.1598Z" fill="#FAA546"/>
<path d="M19.9733 26.9469C19.9733 27.4971 19.5259 27.9445 18.9757 27.9445C18.4254 27.9445 17.978 27.4971 17.978 26.9469C17.978 26.3966 18.4254 25.9492 18.9757 25.9492C19.5259 25.9492 19.9733 26.3966 19.9733 26.9469Z" fill="#FAA546"/>
<path d="M17.2171 28.2535C17.2171 28.8038 16.7697 29.2512 16.2194 29.2512C15.6692 29.2512 15.2218 28.8038 15.2218 28.2535C15.2218 27.7033 15.6692 27.2559 16.2194 27.2559C16.7697 27.2508 17.2171 27.6982 17.2171 28.2535Z" fill="#FAA546"/>
<path d="M17.9421 25.2086C17.9421 25.7589 17.4947 26.2063 16.9444 26.2063C16.3942 26.2063 15.9468 25.7589 15.9468 25.2086C15.9468 24.6584 16.3942 24.211 16.9444 24.211C17.4947 24.2058 17.9421 24.6532 17.9421 25.2086Z" fill="#FAA546"/>
<path d="M17.5099 18.3942C17.5099 18.9444 17.0625 19.3918 16.5123 19.3918C15.962 19.3918 15.5146 18.9444 15.5146 18.3942C15.5146 17.8439 15.962 17.3965 16.5123 17.3965C17.0625 17.3914 17.5099 17.8388 17.5099 18.3942Z" fill="#FAA546"/>
<path d="M21.4234 15.7828C21.4234 16.333 20.976 16.7804 20.4257 16.7804C19.8755 16.7804 19.4281 16.333 19.4281 15.7828C19.4281 15.2326 19.8755 14.7852 20.4257 14.7852C20.976 14.7852 21.4234 15.2326 21.4234 15.7828Z" fill="#FAA546"/>
<path d="M63.3146 14.9196C64.374 14.9196 65.1299 14.6779 65.5773 14.1842C66.0247 13.6957 66.2458 12.8934 66.2458 11.7827C66.2458 10.7027 66.0453 9.92107 65.6493 9.43253C65.2533 8.944 64.5385 8.7023 63.5152 8.7023H62.1267V14.9196H63.3146ZM58.4087 6.14648H63.3403C65.495 6.14648 67.1098 6.55274 68.1691 7.3704C69.2336 8.18805 69.7633 9.59195 69.7633 11.5821C69.7633 12.8831 69.573 13.9374 69.1925 14.755C68.8119 15.5727 68.1589 16.1692 67.2332 16.5395L70.0924 26.6239H66.3487L63.8957 17.244H62.1267V26.6239H58.4087V6.14648Z" fill="#2E2E2E"/>
<path d="M81.555 25.1168C80.6705 23.9289 80.2283 22.2473 80.2283 20.0721V12.7697C80.2283 10.5276 80.6654 8.82543 81.5447 7.66323C82.419 6.50102 83.9309 5.91992 86.0701 5.91992C88.0757 5.91992 89.5002 6.42389 90.3435 7.43696C91.1869 8.45003 91.6086 9.90535 91.6086 11.8081V13.5257H88.0191V11.7566C88.0191 11.0316 87.9831 10.4607 87.9163 10.0493C87.8494 9.63794 87.6746 9.29854 87.3969 9.04141C87.1192 8.77915 86.6821 8.65058 86.0958 8.65058C85.489 8.65058 85.0314 8.78943 84.7331 9.06713C84.4297 9.34482 84.2291 9.71508 84.1366 10.1779C84.044 10.6407 83.9977 11.2424 83.9977 11.9829V20.8589C83.9977 22.0211 84.1468 22.8593 84.4554 23.3735C84.7588 23.8878 85.3039 24.1449 86.101 24.1449C86.677 24.1449 87.0986 24.0112 87.3763 23.7386C87.654 23.4712 87.834 23.1113 87.906 22.6639C87.9831 22.2165 88.0191 21.6251 88.0191 20.8794V19.0333H91.6086V20.6789C91.6086 22.6484 91.1972 24.1809 90.3693 25.266C89.5413 26.351 88.1117 26.8961 86.0701 26.8961C83.9411 26.9013 82.4395 26.3047 81.555 25.1168Z" fill="#2E2E2E"/>
<path d="M113.572 14.8939C114.585 14.8939 115.269 14.6779 115.619 14.251C115.974 13.8191 116.149 13.0477 116.149 11.9369C116.149 11.1296 116.092 10.5073 115.974 10.0805C115.855 9.64852 115.614 9.32454 115.254 9.10856C114.894 8.88743 114.333 8.77944 113.572 8.77944H112.132V14.899H113.572V14.8939ZM108.414 6.14648H114.431C117.923 6.14648 119.666 8.0852 119.666 11.9626C119.666 15.6704 117.835 17.5268 114.179 17.5268H112.132V26.629H108.414V6.14648Z" fill="#2E2E2E"/>
<path d="M129.499 23.3625C129.787 22.838 129.931 22.0821 129.931 21.0844V11.6531C129.931 10.6606 129.792 9.90978 129.514 9.40067C129.236 8.89671 128.676 8.64472 127.833 8.64472C126.989 8.64472 126.424 8.90185 126.141 9.4161C125.853 9.93035 125.709 10.676 125.709 11.6531V21.0844C125.709 22.0769 125.853 22.838 126.141 23.3625C126.429 23.8819 126.989 24.1442 127.833 24.1442C128.655 24.1442 129.216 23.8819 129.499 23.3625ZM123.281 25.1933C122.371 24.0568 121.919 22.3906 121.919 20.1999V12.517C121.919 10.3417 122.376 8.70129 123.281 7.58537C124.192 6.47459 125.709 5.91406 127.833 5.91406C129.941 5.91406 131.448 6.46945 132.358 7.58537C133.268 8.69615 133.721 10.3417 133.721 12.517V20.1999C133.721 22.3752 133.263 24.0362 132.343 25.183C131.422 26.3297 129.92 26.9006 127.827 26.9006C125.709 26.9006 124.192 26.3297 123.281 25.1933Z" fill="#2E2E2E"/>
<path d="M156.589 25.3321C155.669 24.2882 155.17 22.73 155.088 20.6576L158.296 20.0251C158.348 21.321 158.554 22.3135 158.914 22.9974C159.274 23.6814 159.844 24.0208 160.621 24.0208C161.197 24.0208 161.618 23.8459 161.896 23.5014C162.174 23.1568 162.313 22.6889 162.313 22.0975C162.313 21.2901 162.133 20.601 161.768 20.0353C161.402 19.4697 160.837 18.8526 160.06 18.1789L157.484 15.9265C156.692 15.2528 156.095 14.5277 155.699 13.7512C155.304 12.9747 155.103 12.0491 155.103 10.9691C155.103 9.36982 155.571 8.12533 156.507 7.24082C157.443 6.35632 158.734 5.91406 160.389 5.91406C162.158 5.91406 163.429 6.41803 164.195 7.41567C164.961 8.41846 165.403 9.77093 165.522 11.4731L162.313 12.0285C162.261 10.9177 162.107 10.0795 161.845 9.51381C161.582 8.94813 161.073 8.66529 160.312 8.66529C159.772 8.66529 159.351 8.84528 159.047 9.2104C158.744 9.57552 158.59 10.0332 158.59 10.5886C158.59 11.2468 158.718 11.7971 158.98 12.2445C159.243 12.6919 159.669 13.1701 160.256 13.6741L162.812 15.9265C163.773 16.7544 164.524 17.6389 165.064 18.58C165.604 19.5211 165.871 20.6216 165.871 21.8661C165.871 22.8431 165.655 23.7122 165.229 24.4682C164.797 25.2241 164.195 25.8206 163.418 26.2526C162.642 26.6846 161.752 26.8954 160.739 26.8954C158.893 26.9006 157.51 26.376 156.589 25.3321Z" fill="#2E2E2E"/>
<path d="M40.2299 19.517L38.8415 10.9239L37.453 19.517H40.2299ZM36.8205 6.14648H40.8162L44.9147 26.6239H41.4487L40.6413 21.8979H37.0776L36.2445 26.6239H32.7322L36.8205 6.14648Z" fill="#2E2E2E"/>
<path d="M47.4604 6.14648H55.8838V8.72287H51.1785V14.6882H55.0199V17.2954H51.1785V26.6239H47.4604V6.14648Z" fill="#2E2E2E"/>
<path d="M76.8909 6.14648H73.1986V26.6239H76.8909V6.14648Z" fill="#2E2E2E"/>
<path d="M101.184 19.517L99.7953 10.9239L98.4068 19.517H101.184ZM97.7743 6.14648H101.77L105.869 26.6239H102.403L101.595 21.8979H98.0314L97.1984 26.6239H93.686L97.7743 6.14648Z" fill="#2E2E2E"/>
<path d="M136.986 6.14648H140.699V24.0681H145.682V26.6239H136.986V6.14648Z" fill="#2E2E2E"/>
<path d="M151.925 6.14648H148.233V26.6239H151.925V6.14648Z" fill="#2E2E2E"/>
</svg>
