<?xml version="1.0" encoding="utf-8" standalone="no"?>
<!DOCTYPE svg PUBLIC "-//W3C//DTD SVG 1.1//EN"
  "http://www.w3.org/Graphics/SVG/1.1/DTD/svg11.dtd">
<svg xmlns:xlink="http://www.w3.org/1999/xlink" width="1072.966563pt" height="856.630312pt" viewBox="0 0 1072.966563 856.630312" xmlns="http://www.w3.org/2000/svg" version="1.1">
 <metadata>
  <rdf:RDF xmlns:dc="http://purl.org/dc/elements/1.1/" xmlns:cc="http://creativecommons.org/ns#" xmlns:rdf="http://www.w3.org/1999/02/22-rdf-syntax-ns#">
   <cc:Work>
    <dc:type rdf:resource="http://purl.org/dc/dcmitype/StillImage"/>
    <dc:date>2025-09-26T11:49:20.411021</dc:date>
    <dc:format>image/svg+xml</dc:format>
    <dc:creator>
     <cc:Agent>
      <dc:title>Matplotlib v3.9.2, https://matplotlib.org/</dc:title>
     </cc:Agent>
    </dc:creator>
   </cc:Work>
  </rdf:RDF>
 </metadata>
 <defs>
  <style type="text/css">*{stroke-linejoin: round; stroke-linecap: butt}</style>
 </defs>
 <g id="figure_1">
  <g id="patch_1">
   <path d="M 0 856.630312 
L 1072.966563 856.630312 
L 1072.966563 0 
L 0 0 
z
" style="fill: #ffffff"/>
  </g>
  <g id="axes_1">
   <g id="patch_2">
    <path d="M 50.766563 406.685 
L 525.586563 406.685 
L 525.586563 21.935625 
L 50.766563 21.935625 
z
" style="fill: #eaeaf2"/>
   </g>
   <g id="matplotlib.axis_1">
    <g id="xtick_1">
     <g id="line2d_1">
      <path d="M 168.272522 406.685 
L 168.272522 21.935625 
" clip-path="url(#p12da56437a)" style="fill: none; stroke: #ffffff; stroke-linecap: round"/>
     </g>
     <g id="line2d_2"/>
     <g id="text_1">
      <!-- Rural -->
      <g style="fill: #262626" transform="translate(156.324866 420.842812) scale(0.1 -0.1)">
       <defs>
        <path id="ArialMT-52" d="M 503 0 
L 503 4581 
L 2534 4581 
Q 3147 4581 3465 4457 
Q 3784 4334 3975 4021 
Q 4166 3709 4166 3331 
Q 4166 2844 3850 2509 
Q 3534 2175 2875 2084 
Q 3116 1969 3241 1856 
Q 3506 1613 3744 1247 
L 4541 0 
L 3778 0 
L 3172 953 
Q 2906 1366 2734 1584 
Q 2563 1803 2427 1890 
Q 2291 1978 2150 2013 
Q 2047 2034 1813 2034 
L 1109 2034 
L 1109 0 
L 503 0 
z
M 1109 2559 
L 2413 2559 
Q 2828 2559 3062 2645 
Q 3297 2731 3419 2920 
Q 3541 3109 3541 3331 
Q 3541 3656 3305 3865 
Q 3069 4075 2559 4075 
L 1109 4075 
L 1109 2559 
z
" transform="scale(0.015625)"/>
        <path id="ArialMT-75" d="M 2597 0 
L 2597 488 
Q 2209 -75 1544 -75 
Q 1250 -75 995 37 
Q 741 150 617 320 
Q 494 491 444 738 
Q 409 903 409 1263 
L 409 3319 
L 972 3319 
L 972 1478 
Q 972 1038 1006 884 
Q 1059 663 1231 536 
Q 1403 409 1656 409 
Q 1909 409 2131 539 
Q 2353 669 2445 892 
Q 2538 1116 2538 1541 
L 2538 3319 
L 3100 3319 
L 3100 0 
L 2597 0 
z
" transform="scale(0.015625)"/>
        <path id="ArialMT-72" d="M 416 0 
L 416 3319 
L 922 3319 
L 922 2816 
Q 1116 3169 1280 3281 
Q 1444 3394 1641 3394 
Q 1925 3394 2219 3213 
L 2025 2691 
Q 1819 2813 1613 2813 
Q 1428 2813 1281 2702 
Q 1134 2591 1072 2394 
Q 978 2094 978 1738 
L 978 0 
L 416 0 
z
" transform="scale(0.015625)"/>
        <path id="ArialMT-61" d="M 2588 409 
Q 2275 144 1986 34 
Q 1697 -75 1366 -75 
Q 819 -75 525 192 
Q 231 459 231 875 
Q 231 1119 342 1320 
Q 453 1522 633 1644 
Q 813 1766 1038 1828 
Q 1203 1872 1538 1913 
Q 2219 1994 2541 2106 
Q 2544 2222 2544 2253 
Q 2544 2597 2384 2738 
Q 2169 2928 1744 2928 
Q 1347 2928 1158 2789 
Q 969 2650 878 2297 
L 328 2372 
Q 403 2725 575 2942 
Q 747 3159 1072 3276 
Q 1397 3394 1825 3394 
Q 2250 3394 2515 3294 
Q 2781 3194 2906 3042 
Q 3031 2891 3081 2659 
Q 3109 2516 3109 2141 
L 3109 1391 
Q 3109 606 3145 398 
Q 3181 191 3288 0 
L 2700 0 
Q 2613 175 2588 409 
z
M 2541 1666 
Q 2234 1541 1622 1453 
Q 1275 1403 1131 1340 
Q 988 1278 909 1158 
Q 831 1038 831 891 
Q 831 666 1001 516 
Q 1172 366 1500 366 
Q 1825 366 2078 508 
Q 2331 650 2450 897 
Q 2541 1088 2541 1459 
L 2541 1666 
z
" transform="scale(0.015625)"/>
        <path id="ArialMT-6c" d="M 409 0 
L 409 4581 
L 972 4581 
L 972 0 
L 409 0 
z
" transform="scale(0.015625)"/>
       </defs>
       <use xlink:href="#ArialMT-52"/>
       <use xlink:href="#ArialMT-75" x="72.216797"/>
       <use xlink:href="#ArialMT-72" x="127.832031"/>
       <use xlink:href="#ArialMT-61" x="161.132812"/>
       <use xlink:href="#ArialMT-6c" x="216.748047"/>
      </g>
     </g>
    </g>
    <g id="xtick_2">
     <g id="line2d_3">
      <path d="M 408.080603 406.685 
L 408.080603 21.935625 
" clip-path="url(#p12da56437a)" style="fill: none; stroke: #ffffff; stroke-linecap: round"/>
     </g>
     <g id="line2d_4"/>
     <g id="text_2">
      <!-- Urban -->
      <g style="fill: #262626" transform="translate(394.463415 420.842812) scale(0.1 -0.1)">
       <defs>
        <path id="ArialMT-55" d="M 3500 4581 
L 4106 4581 
L 4106 1934 
Q 4106 1244 3950 837 
Q 3794 431 3386 176 
Q 2978 -78 2316 -78 
Q 1672 -78 1262 144 
Q 853 366 678 786 
Q 503 1206 503 1934 
L 503 4581 
L 1109 4581 
L 1109 1938 
Q 1109 1341 1220 1058 
Q 1331 775 1601 622 
Q 1872 469 2263 469 
Q 2931 469 3215 772 
Q 3500 1075 3500 1938 
L 3500 4581 
z
" transform="scale(0.015625)"/>
        <path id="ArialMT-62" d="M 941 0 
L 419 0 
L 419 4581 
L 981 4581 
L 981 2947 
Q 1338 3394 1891 3394 
Q 2197 3394 2470 3270 
Q 2744 3147 2920 2923 
Q 3097 2700 3197 2384 
Q 3297 2069 3297 1709 
Q 3297 856 2875 390 
Q 2453 -75 1863 -75 
Q 1275 -75 941 416 
L 941 0 
z
M 934 1684 
Q 934 1088 1097 822 
Q 1363 388 1816 388 
Q 2184 388 2453 708 
Q 2722 1028 2722 1663 
Q 2722 2313 2464 2622 
Q 2206 2931 1841 2931 
Q 1472 2931 1203 2611 
Q 934 2291 934 1684 
z
" transform="scale(0.015625)"/>
        <path id="ArialMT-6e" d="M 422 0 
L 422 3319 
L 928 3319 
L 928 2847 
Q 1294 3394 1984 3394 
Q 2284 3394 2536 3286 
Q 2788 3178 2913 3003 
Q 3038 2828 3088 2588 
Q 3119 2431 3119 2041 
L 3119 0 
L 2556 0 
L 2556 2019 
Q 2556 2363 2490 2533 
Q 2425 2703 2258 2804 
Q 2091 2906 1866 2906 
Q 1506 2906 1245 2678 
Q 984 2450 984 1813 
L 984 0 
L 422 0 
z
" transform="scale(0.015625)"/>
       </defs>
       <use xlink:href="#ArialMT-55"/>
       <use xlink:href="#ArialMT-72" x="72.216797"/>
       <use xlink:href="#ArialMT-62" x="105.517578"/>
       <use xlink:href="#ArialMT-61" x="161.132812"/>
       <use xlink:href="#ArialMT-6e" x="216.748047"/>
      </g>
     </g>
    </g>
   </g>
   <g id="matplotlib.axis_2">
    <g id="ytick_1">
     <g id="line2d_5">
      <path d="M 50.766563 406.685 
L 525.586563 406.685 
" clip-path="url(#p12da56437a)" style="fill: none; stroke: #ffffff; stroke-linecap: round"/>
     </g>
     <g id="line2d_6"/>
     <g id="text_3">
      <!-- 0.0 -->
      <g style="fill: #262626" transform="translate(29.866563 410.263906) scale(0.1 -0.1)">
       <defs>
        <path id="ArialMT-30" d="M 266 2259 
Q 266 3072 433 3567 
Q 600 4063 929 4331 
Q 1259 4600 1759 4600 
Q 2128 4600 2406 4451 
Q 2684 4303 2865 4023 
Q 3047 3744 3150 3342 
Q 3253 2941 3253 2259 
Q 3253 1453 3087 958 
Q 2922 463 2592 192 
Q 2263 -78 1759 -78 
Q 1097 -78 719 397 
Q 266 969 266 2259 
z
M 844 2259 
Q 844 1131 1108 757 
Q 1372 384 1759 384 
Q 2147 384 2411 759 
Q 2675 1134 2675 2259 
Q 2675 3391 2411 3762 
Q 2147 4134 1753 4134 
Q 1366 4134 1134 3806 
Q 844 3388 844 2259 
z
" transform="scale(0.015625)"/>
        <path id="ArialMT-2e" d="M 581 0 
L 581 641 
L 1222 641 
L 1222 0 
L 581 0 
z
" transform="scale(0.015625)"/>
       </defs>
       <use xlink:href="#ArialMT-30"/>
       <use xlink:href="#ArialMT-2e" x="55.615234"/>
       <use xlink:href="#ArialMT-30" x="83.398438"/>
      </g>
     </g>
    </g>
    <g id="ytick_2">
     <g id="line2d_7">
      <path d="M 50.766563 342.087411 
L 525.586563 342.087411 
" clip-path="url(#p12da56437a)" style="fill: none; stroke: #ffffff; stroke-linecap: round"/>
     </g>
     <g id="line2d_8"/>
     <g id="text_4">
      <!-- 0.2 -->
      <g style="fill: #262626" transform="translate(29.866563 345.666317) scale(0.1 -0.1)">
       <defs>
        <path id="ArialMT-32" d="M 3222 541 
L 3222 0 
L 194 0 
Q 188 203 259 391 
Q 375 700 629 1000 
Q 884 1300 1366 1694 
Q 2113 2306 2375 2664 
Q 2638 3022 2638 3341 
Q 2638 3675 2398 3904 
Q 2159 4134 1775 4134 
Q 1369 4134 1125 3890 
Q 881 3647 878 3216 
L 300 3275 
Q 359 3922 746 4261 
Q 1134 4600 1788 4600 
Q 2447 4600 2831 4234 
Q 3216 3869 3216 3328 
Q 3216 3053 3103 2787 
Q 2991 2522 2730 2228 
Q 2469 1934 1863 1422 
Q 1356 997 1212 845 
Q 1069 694 975 541 
L 3222 541 
z
" transform="scale(0.015625)"/>
       </defs>
       <use xlink:href="#ArialMT-30"/>
       <use xlink:href="#ArialMT-2e" x="55.615234"/>
       <use xlink:href="#ArialMT-32" x="83.398438"/>
      </g>
     </g>
    </g>
    <g id="ytick_3">
     <g id="line2d_9">
      <path d="M 50.766563 277.489822 
L 525.586563 277.489822 
" clip-path="url(#p12da56437a)" style="fill: none; stroke: #ffffff; stroke-linecap: round"/>
     </g>
     <g id="line2d_10"/>
     <g id="text_5">
      <!-- 0.4 -->
      <g style="fill: #262626" transform="translate(29.866563 281.068729) scale(0.1 -0.1)">
       <defs>
        <path id="ArialMT-34" d="M 2069 0 
L 2069 1097 
L 81 1097 
L 81 1613 
L 2172 4581 
L 2631 4581 
L 2631 1613 
L 3250 1613 
L 3250 1097 
L 2631 1097 
L 2631 0 
L 2069 0 
z
M 2069 1613 
L 2069 3678 
L 634 1613 
L 2069 1613 
z
" transform="scale(0.015625)"/>
       </defs>
       <use xlink:href="#ArialMT-30"/>
       <use xlink:href="#ArialMT-2e" x="55.615234"/>
       <use xlink:href="#ArialMT-34" x="83.398438"/>
      </g>
     </g>
    </g>
    <g id="ytick_4">
     <g id="line2d_11">
      <path d="M 50.766563 212.892234 
L 525.586563 212.892234 
" clip-path="url(#p12da56437a)" style="fill: none; stroke: #ffffff; stroke-linecap: round"/>
     </g>
     <g id="line2d_12"/>
     <g id="text_6">
      <!-- 0.6 -->
      <g style="fill: #262626" transform="translate(29.866563 216.47114) scale(0.1 -0.1)">
       <defs>
        <path id="ArialMT-36" d="M 3184 3459 
L 2625 3416 
Q 2550 3747 2413 3897 
Q 2184 4138 1850 4138 
Q 1581 4138 1378 3988 
Q 1113 3794 959 3422 
Q 806 3050 800 2363 
Q 1003 2672 1297 2822 
Q 1591 2972 1913 2972 
Q 2475 2972 2870 2558 
Q 3266 2144 3266 1488 
Q 3266 1056 3080 686 
Q 2894 316 2569 119 
Q 2244 -78 1831 -78 
Q 1128 -78 684 439 
Q 241 956 241 2144 
Q 241 3472 731 4075 
Q 1159 4600 1884 4600 
Q 2425 4600 2770 4297 
Q 3116 3994 3184 3459 
z
M 888 1484 
Q 888 1194 1011 928 
Q 1134 663 1356 523 
Q 1578 384 1822 384 
Q 2178 384 2434 671 
Q 2691 959 2691 1453 
Q 2691 1928 2437 2201 
Q 2184 2475 1800 2475 
Q 1419 2475 1153 2201 
Q 888 1928 888 1484 
z
" transform="scale(0.015625)"/>
       </defs>
       <use xlink:href="#ArialMT-30"/>
       <use xlink:href="#ArialMT-2e" x="55.615234"/>
       <use xlink:href="#ArialMT-36" x="83.398438"/>
      </g>
     </g>
    </g>
    <g id="ytick_5">
     <g id="line2d_13">
      <path d="M 50.766563 148.294645 
L 525.586563 148.294645 
" clip-path="url(#p12da56437a)" style="fill: none; stroke: #ffffff; stroke-linecap: round"/>
     </g>
     <g id="line2d_14"/>
     <g id="text_7">
      <!-- 0.8 -->
      <g style="fill: #262626" transform="translate(29.866563 151.873551) scale(0.1 -0.1)">
       <defs>
        <path id="ArialMT-38" d="M 1131 2484 
Q 781 2613 612 2850 
Q 444 3088 444 3419 
Q 444 3919 803 4259 
Q 1163 4600 1759 4600 
Q 2359 4600 2725 4251 
Q 3091 3903 3091 3403 
Q 3091 3084 2923 2848 
Q 2756 2613 2416 2484 
Q 2838 2347 3058 2040 
Q 3278 1734 3278 1309 
Q 3278 722 2862 322 
Q 2447 -78 1769 -78 
Q 1091 -78 675 323 
Q 259 725 259 1325 
Q 259 1772 486 2073 
Q 713 2375 1131 2484 
z
M 1019 3438 
Q 1019 3113 1228 2906 
Q 1438 2700 1772 2700 
Q 2097 2700 2305 2904 
Q 2513 3109 2513 3406 
Q 2513 3716 2298 3927 
Q 2084 4138 1766 4138 
Q 1444 4138 1231 3931 
Q 1019 3725 1019 3438 
z
M 838 1322 
Q 838 1081 952 856 
Q 1066 631 1291 507 
Q 1516 384 1775 384 
Q 2178 384 2440 643 
Q 2703 903 2703 1303 
Q 2703 1709 2433 1975 
Q 2163 2241 1756 2241 
Q 1359 2241 1098 1978 
Q 838 1716 838 1322 
z
" transform="scale(0.015625)"/>
       </defs>
       <use xlink:href="#ArialMT-30"/>
       <use xlink:href="#ArialMT-2e" x="55.615234"/>
       <use xlink:href="#ArialMT-38" x="83.398438"/>
      </g>
     </g>
    </g>
    <g id="ytick_6">
     <g id="line2d_15">
      <path d="M 50.766563 83.697056 
L 525.586563 83.697056 
" clip-path="url(#p12da56437a)" style="fill: none; stroke: #ffffff; stroke-linecap: round"/>
     </g>
     <g id="line2d_16"/>
     <g id="text_8">
      <!-- 1.0 -->
      <g style="fill: #262626" transform="translate(29.866563 87.275962) scale(0.1 -0.1)">
       <defs>
        <path id="ArialMT-31" d="M 2384 0 
L 1822 0 
L 1822 3584 
Q 1619 3391 1289 3197 
Q 959 3003 697 2906 
L 697 3450 
Q 1169 3672 1522 3987 
Q 1875 4303 2022 4600 
L 2384 4600 
L 2384 0 
z
" transform="scale(0.015625)"/>
       </defs>
       <use xlink:href="#ArialMT-31"/>
       <use xlink:href="#ArialMT-2e" x="55.615234"/>
       <use xlink:href="#ArialMT-30" x="83.398438"/>
      </g>
     </g>
    </g>
    <g id="text_9">
     <!-- Total Population -->
     <g style="fill: #262626" transform="translate(23.680313 253.444531) rotate(-90) scale(0.11 -0.11)">
      <defs>
       <path id="ArialMT-54" d="M 1659 0 
L 1659 4041 
L 150 4041 
L 150 4581 
L 3781 4581 
L 3781 4041 
L 2266 4041 
L 2266 0 
L 1659 0 
z
" transform="scale(0.015625)"/>
       <path id="ArialMT-6f" d="M 213 1659 
Q 213 2581 725 3025 
Q 1153 3394 1769 3394 
Q 2453 3394 2887 2945 
Q 3322 2497 3322 1706 
Q 3322 1066 3130 698 
Q 2938 331 2570 128 
Q 2203 -75 1769 -75 
Q 1072 -75 642 372 
Q 213 819 213 1659 
z
M 791 1659 
Q 791 1022 1069 705 
Q 1347 388 1769 388 
Q 2188 388 2466 706 
Q 2744 1025 2744 1678 
Q 2744 2294 2464 2611 
Q 2184 2928 1769 2928 
Q 1347 2928 1069 2612 
Q 791 2297 791 1659 
z
" transform="scale(0.015625)"/>
       <path id="ArialMT-74" d="M 1650 503 
L 1731 6 
Q 1494 -44 1306 -44 
Q 1000 -44 831 53 
Q 663 150 594 308 
Q 525 466 525 972 
L 525 2881 
L 113 2881 
L 113 3319 
L 525 3319 
L 525 4141 
L 1084 4478 
L 1084 3319 
L 1650 3319 
L 1650 2881 
L 1084 2881 
L 1084 941 
Q 1084 700 1114 631 
Q 1144 563 1211 522 
Q 1278 481 1403 481 
Q 1497 481 1650 503 
z
" transform="scale(0.015625)"/>
       <path id="ArialMT-20" transform="scale(0.015625)"/>
       <path id="ArialMT-50" d="M 494 0 
L 494 4581 
L 2222 4581 
Q 2678 4581 2919 4538 
Q 3256 4481 3484 4323 
Q 3713 4166 3852 3881 
Q 3991 3597 3991 3256 
Q 3991 2672 3619 2267 
Q 3247 1863 2275 1863 
L 1100 1863 
L 1100 0 
L 494 0 
z
M 1100 2403 
L 2284 2403 
Q 2872 2403 3119 2622 
Q 3366 2841 3366 3238 
Q 3366 3525 3220 3729 
Q 3075 3934 2838 4000 
Q 2684 4041 2272 4041 
L 1100 4041 
L 1100 2403 
z
" transform="scale(0.015625)"/>
       <path id="ArialMT-70" d="M 422 -1272 
L 422 3319 
L 934 3319 
L 934 2888 
Q 1116 3141 1344 3267 
Q 1572 3394 1897 3394 
Q 2322 3394 2647 3175 
Q 2972 2956 3137 2557 
Q 3303 2159 3303 1684 
Q 3303 1175 3120 767 
Q 2938 359 2589 142 
Q 2241 -75 1856 -75 
Q 1575 -75 1351 44 
Q 1128 163 984 344 
L 984 -1272 
L 422 -1272 
z
M 931 1641 
Q 931 1000 1190 694 
Q 1450 388 1819 388 
Q 2194 388 2461 705 
Q 2728 1022 2728 1688 
Q 2728 2322 2467 2637 
Q 2206 2953 1844 2953 
Q 1484 2953 1207 2617 
Q 931 2281 931 1641 
z
" transform="scale(0.015625)"/>
       <path id="ArialMT-69" d="M 425 3934 
L 425 4581 
L 988 4581 
L 988 3934 
L 425 3934 
z
M 425 0 
L 425 3319 
L 988 3319 
L 988 0 
L 425 0 
z
" transform="scale(0.015625)"/>
      </defs>
      <use xlink:href="#ArialMT-54"/>
      <use xlink:href="#ArialMT-6f" x="49.958984"/>
      <use xlink:href="#ArialMT-74" x="105.574219"/>
      <use xlink:href="#ArialMT-61" x="133.357422"/>
      <use xlink:href="#ArialMT-6c" x="188.972656"/>
      <use xlink:href="#ArialMT-20" x="211.189453"/>
      <use xlink:href="#ArialMT-50" x="238.972656"/>
      <use xlink:href="#ArialMT-6f" x="305.671875"/>
      <use xlink:href="#ArialMT-70" x="361.287109"/>
      <use xlink:href="#ArialMT-75" x="416.902344"/>
      <use xlink:href="#ArialMT-6c" x="472.517578"/>
      <use xlink:href="#ArialMT-61" x="494.734375"/>
      <use xlink:href="#ArialMT-74" x="550.349609"/>
      <use xlink:href="#ArialMT-69" x="578.132812"/>
      <use xlink:href="#ArialMT-6f" x="600.349609"/>
      <use xlink:href="#ArialMT-6e" x="655.964844"/>
     </g>
    </g>
    <g id="text_10">
     <!-- 1e9 -->
     <g style="fill: #262626" transform="translate(50.766563 18.935625) scale(0.1 -0.1)">
      <defs>
       <path id="ArialMT-65" d="M 2694 1069 
L 3275 997 
Q 3138 488 2766 206 
Q 2394 -75 1816 -75 
Q 1088 -75 661 373 
Q 234 822 234 1631 
Q 234 2469 665 2931 
Q 1097 3394 1784 3394 
Q 2450 3394 2872 2941 
Q 3294 2488 3294 1666 
Q 3294 1616 3291 1516 
L 816 1516 
Q 847 969 1125 678 
Q 1403 388 1819 388 
Q 2128 388 2347 550 
Q 2566 713 2694 1069 
z
M 847 1978 
L 2700 1978 
Q 2663 2397 2488 2606 
Q 2219 2931 1791 2931 
Q 1403 2931 1139 2672 
Q 875 2413 847 1978 
z
" transform="scale(0.015625)"/>
       <path id="ArialMT-39" d="M 350 1059 
L 891 1109 
Q 959 728 1153 556 
Q 1347 384 1650 384 
Q 1909 384 2104 503 
Q 2300 622 2425 820 
Q 2550 1019 2634 1356 
Q 2719 1694 2719 2044 
Q 2719 2081 2716 2156 
Q 2547 1888 2255 1720 
Q 1963 1553 1622 1553 
Q 1053 1553 659 1965 
Q 266 2378 266 3053 
Q 266 3750 677 4175 
Q 1088 4600 1706 4600 
Q 2153 4600 2523 4359 
Q 2894 4119 3086 3673 
Q 3278 3228 3278 2384 
Q 3278 1506 3087 986 
Q 2897 466 2520 194 
Q 2144 -78 1638 -78 
Q 1100 -78 759 220 
Q 419 519 350 1059 
z
M 2653 3081 
Q 2653 3566 2395 3850 
Q 2138 4134 1775 4134 
Q 1400 4134 1122 3828 
Q 844 3522 844 3034 
Q 844 2597 1108 2323 
Q 1372 2050 1759 2050 
Q 2150 2050 2401 2323 
Q 2653 2597 2653 3081 
z
" transform="scale(0.015625)"/>
      </defs>
      <use xlink:href="#ArialMT-31"/>
      <use xlink:href="#ArialMT-65" x="55.615234"/>
      <use xlink:href="#ArialMT-39" x="111.230469"/>
     </g>
    </g>
   </g>
   <g id="patch_3">
    <path d="M 72.34929 406.685 
L 264.195754 406.685 
L 264.195754 278.796403 
L 72.34929 278.796403 
z
" clip-path="url(#p12da56437a)" style="fill: #008000; opacity: 0.8"/>
   </g>
   <g id="patch_4">
    <path d="M 312.157371 406.685 
L 504.003835 406.685 
L 504.003835 40.257024 
L 312.157371 40.257024 
z
" clip-path="url(#p12da56437a)" style="fill: #0000ff; opacity: 0.8"/>
   </g>
   <g id="patch_5">
    <path d="M 50.766563 406.685 
L 50.766563 21.935625 
" style="fill: none"/>
   </g>
   <g id="patch_6">
    <path d="M 525.586563 406.685 
L 525.586563 21.935625 
" style="fill: none"/>
   </g>
   <g id="patch_7">
    <path d="M 50.766562 406.685 
L 525.586563 406.685 
" style="fill: none"/>
   </g>
   <g id="patch_8">
    <path d="M 50.766562 21.935625 
L 525.586563 21.935625 
" style="fill: none"/>
   </g>
   <g id="text_11">
    <!-- 396.0M -->
    <g style="fill: #262626" transform="translate(151.596741 276.808903) scale(0.1 -0.1)">
     <defs>
      <path id="ArialMT-33" d="M 269 1209 
L 831 1284 
Q 928 806 1161 595 
Q 1394 384 1728 384 
Q 2125 384 2398 659 
Q 2672 934 2672 1341 
Q 2672 1728 2419 1979 
Q 2166 2231 1775 2231 
Q 1616 2231 1378 2169 
L 1441 2663 
Q 1497 2656 1531 2656 
Q 1891 2656 2178 2843 
Q 2466 3031 2466 3422 
Q 2466 3731 2256 3934 
Q 2047 4138 1716 4138 
Q 1388 4138 1169 3931 
Q 950 3725 888 3313 
L 325 3413 
Q 428 3978 793 4289 
Q 1159 4600 1703 4600 
Q 2078 4600 2393 4439 
Q 2709 4278 2876 4000 
Q 3044 3722 3044 3409 
Q 3044 3113 2884 2869 
Q 2725 2625 2413 2481 
Q 2819 2388 3044 2092 
Q 3269 1797 3269 1353 
Q 3269 753 2831 336 
Q 2394 -81 1725 -81 
Q 1122 -81 723 278 
Q 325 638 269 1209 
z
" transform="scale(0.015625)"/>
      <path id="ArialMT-4d" d="M 475 0 
L 475 4581 
L 1388 4581 
L 2472 1338 
Q 2622 884 2691 659 
Q 2769 909 2934 1394 
L 4031 4581 
L 4847 4581 
L 4847 0 
L 4263 0 
L 4263 3834 
L 2931 0 
L 2384 0 
L 1059 3900 
L 1059 0 
L 475 0 
z
" transform="scale(0.015625)"/>
     </defs>
     <use xlink:href="#ArialMT-33"/>
     <use xlink:href="#ArialMT-39" x="55.615234"/>
     <use xlink:href="#ArialMT-36" x="111.230469"/>
     <use xlink:href="#ArialMT-2e" x="166.845703"/>
     <use xlink:href="#ArialMT-30" x="194.628906"/>
     <use xlink:href="#ArialMT-4d" x="250.244141"/>
    </g>
   </g>
   <g id="text_12">
    <!-- 1134.5M -->
    <g style="fill: #262626" transform="translate(388.993103 38.269524) scale(0.1 -0.1)">
     <defs>
      <path id="ArialMT-35" d="M 266 1200 
L 856 1250 
Q 922 819 1161 601 
Q 1400 384 1738 384 
Q 2144 384 2425 690 
Q 2706 997 2706 1503 
Q 2706 1984 2436 2262 
Q 2166 2541 1728 2541 
Q 1456 2541 1237 2417 
Q 1019 2294 894 2097 
L 366 2166 
L 809 4519 
L 3088 4519 
L 3088 3981 
L 1259 3981 
L 1013 2750 
Q 1425 3038 1878 3038 
Q 2478 3038 2890 2622 
Q 3303 2206 3303 1553 
Q 3303 931 2941 478 
Q 2500 -78 1738 -78 
Q 1113 -78 717 272 
Q 322 622 266 1200 
z
" transform="scale(0.015625)"/>
     </defs>
     <use xlink:href="#ArialMT-31"/>
     <use xlink:href="#ArialMT-31" x="48.240234"/>
     <use xlink:href="#ArialMT-33" x="103.855469"/>
     <use xlink:href="#ArialMT-34" x="159.470703"/>
     <use xlink:href="#ArialMT-2e" x="215.085938"/>
     <use xlink:href="#ArialMT-35" x="242.869141"/>
     <use xlink:href="#ArialMT-4d" x="298.484375"/>
    </g>
   </g>
   <g id="text_13">
    <!-- Total Population Comparison -->
    <g style="fill: #262626" transform="translate(211.473125 15.935625) scale(0.12 -0.12)">
     <defs>
      <path id="ArialMT-43" d="M 3763 1606 
L 4369 1453 
Q 4178 706 3683 314 
Q 3188 -78 2472 -78 
Q 1731 -78 1267 223 
Q 803 525 561 1097 
Q 319 1669 319 2325 
Q 319 3041 592 3573 
Q 866 4106 1370 4382 
Q 1875 4659 2481 4659 
Q 3169 4659 3637 4309 
Q 4106 3959 4291 3325 
L 3694 3184 
Q 3534 3684 3231 3912 
Q 2928 4141 2469 4141 
Q 1941 4141 1586 3887 
Q 1231 3634 1087 3207 
Q 944 2781 944 2328 
Q 944 1744 1114 1308 
Q 1284 872 1643 656 
Q 2003 441 2422 441 
Q 2931 441 3284 734 
Q 3638 1028 3763 1606 
z
" transform="scale(0.015625)"/>
      <path id="ArialMT-6d" d="M 422 0 
L 422 3319 
L 925 3319 
L 925 2853 
Q 1081 3097 1340 3245 
Q 1600 3394 1931 3394 
Q 2300 3394 2536 3241 
Q 2772 3088 2869 2813 
Q 3263 3394 3894 3394 
Q 4388 3394 4653 3120 
Q 4919 2847 4919 2278 
L 4919 0 
L 4359 0 
L 4359 2091 
Q 4359 2428 4304 2576 
Q 4250 2725 4106 2815 
Q 3963 2906 3769 2906 
Q 3419 2906 3187 2673 
Q 2956 2441 2956 1928 
L 2956 0 
L 2394 0 
L 2394 2156 
Q 2394 2531 2256 2718 
Q 2119 2906 1806 2906 
Q 1569 2906 1367 2781 
Q 1166 2656 1075 2415 
Q 984 2175 984 1722 
L 984 0 
L 422 0 
z
" transform="scale(0.015625)"/>
      <path id="ArialMT-73" d="M 197 991 
L 753 1078 
Q 800 744 1014 566 
Q 1228 388 1613 388 
Q 2000 388 2187 545 
Q 2375 703 2375 916 
Q 2375 1106 2209 1216 
Q 2094 1291 1634 1406 
Q 1016 1563 777 1677 
Q 538 1791 414 1992 
Q 291 2194 291 2438 
Q 291 2659 392 2848 
Q 494 3038 669 3163 
Q 800 3259 1026 3326 
Q 1253 3394 1513 3394 
Q 1903 3394 2198 3281 
Q 2494 3169 2634 2976 
Q 2775 2784 2828 2463 
L 2278 2388 
Q 2241 2644 2061 2787 
Q 1881 2931 1553 2931 
Q 1166 2931 1000 2803 
Q 834 2675 834 2503 
Q 834 2394 903 2306 
Q 972 2216 1119 2156 
Q 1203 2125 1616 2013 
Q 2213 1853 2448 1751 
Q 2684 1650 2818 1456 
Q 2953 1263 2953 975 
Q 2953 694 2789 445 
Q 2625 197 2315 61 
Q 2006 -75 1616 -75 
Q 969 -75 630 194 
Q 291 463 197 991 
z
" transform="scale(0.015625)"/>
     </defs>
     <use xlink:href="#ArialMT-54"/>
     <use xlink:href="#ArialMT-6f" x="49.958984"/>
     <use xlink:href="#ArialMT-74" x="105.574219"/>
     <use xlink:href="#ArialMT-61" x="133.357422"/>
     <use xlink:href="#ArialMT-6c" x="188.972656"/>
     <use xlink:href="#ArialMT-20" x="211.189453"/>
     <use xlink:href="#ArialMT-50" x="238.972656"/>
     <use xlink:href="#ArialMT-6f" x="305.671875"/>
     <use xlink:href="#ArialMT-70" x="361.287109"/>
     <use xlink:href="#ArialMT-75" x="416.902344"/>
     <use xlink:href="#ArialMT-6c" x="472.517578"/>
     <use xlink:href="#ArialMT-61" x="494.734375"/>
     <use xlink:href="#ArialMT-74" x="550.349609"/>
     <use xlink:href="#ArialMT-69" x="578.132812"/>
     <use xlink:href="#ArialMT-6f" x="600.349609"/>
     <use xlink:href="#ArialMT-6e" x="655.964844"/>
     <use xlink:href="#ArialMT-20" x="711.580078"/>
     <use xlink:href="#ArialMT-43" x="739.363281"/>
     <use xlink:href="#ArialMT-6f" x="811.580078"/>
     <use xlink:href="#ArialMT-6d" x="867.195312"/>
     <use xlink:href="#ArialMT-70" x="950.496094"/>
     <use xlink:href="#ArialMT-61" x="1006.111328"/>
     <use xlink:href="#ArialMT-72" x="1061.726562"/>
     <use xlink:href="#ArialMT-69" x="1095.027344"/>
     <use xlink:href="#ArialMT-73" x="1117.244141"/>
     <use xlink:href="#ArialMT-6f" x="1167.244141"/>
     <use xlink:href="#ArialMT-6e" x="1222.859375"/>
    </g>
   </g>
  </g>
  <g id="axes_2">
   <g id="patch_9">
    <path d="M 590.946563 406.685 
L 1065.766562 406.685 
L 1065.766562 21.935625 
L 590.946563 21.935625 
z
" style="fill: #eaeaf2"/>
   </g>
   <g id="matplotlib.axis_3">
    <g id="xtick_3">
     <g id="line2d_17">
      <path d="M 708.452522 406.685 
L 708.452522 21.935625 
" clip-path="url(#p9617921d4d)" style="fill: none; stroke: #ffffff; stroke-linecap: round"/>
     </g>
     <g id="line2d_18"/>
     <g id="text_14">
      <!-- Rural -->
      <g style="fill: #262626" transform="translate(696.504866 420.842812) scale(0.1 -0.1)">
       <use xlink:href="#ArialMT-52"/>
       <use xlink:href="#ArialMT-75" x="72.216797"/>
       <use xlink:href="#ArialMT-72" x="127.832031"/>
       <use xlink:href="#ArialMT-61" x="161.132812"/>
       <use xlink:href="#ArialMT-6c" x="216.748047"/>
      </g>
     </g>
    </g>
    <g id="xtick_4">
     <g id="line2d_19">
      <path d="M 948.260603 406.685 
L 948.260603 21.935625 
" clip-path="url(#p9617921d4d)" style="fill: none; stroke: #ffffff; stroke-linecap: round"/>
     </g>
     <g id="line2d_20"/>
     <g id="text_15">
      <!-- Urban -->
      <g style="fill: #262626" transform="translate(934.643415 420.842812) scale(0.1 -0.1)">
       <use xlink:href="#ArialMT-55"/>
       <use xlink:href="#ArialMT-72" x="72.216797"/>
       <use xlink:href="#ArialMT-62" x="105.517578"/>
       <use xlink:href="#ArialMT-61" x="161.132812"/>
       <use xlink:href="#ArialMT-6e" x="216.748047"/>
      </g>
     </g>
    </g>
   </g>
   <g id="matplotlib.axis_4">
    <g id="ytick_7">
     <g id="line2d_21">
      <path d="M 590.946563 406.685 
L 1065.766562 406.685 
" clip-path="url(#p9617921d4d)" style="fill: none; stroke: #ffffff; stroke-linecap: round"/>
     </g>
     <g id="line2d_22"/>
     <g id="text_16">
      <!-- 0 -->
      <g style="fill: #262626" transform="translate(578.385625 410.263906) scale(0.1 -0.1)">
       <use xlink:href="#ArialMT-30"/>
      </g>
     </g>
    </g>
    <g id="ytick_8">
     <g id="line2d_23">
      <path d="M 590.946563 363.329465 
L 1065.766562 363.329465 
" clip-path="url(#p9617921d4d)" style="fill: none; stroke: #ffffff; stroke-linecap: round"/>
     </g>
     <g id="line2d_24"/>
     <g id="text_17">
      <!-- 20000 -->
      <g style="fill: #262626" transform="translate(556.141875 366.908371) scale(0.1 -0.1)">
       <use xlink:href="#ArialMT-32"/>
       <use xlink:href="#ArialMT-30" x="55.615234"/>
       <use xlink:href="#ArialMT-30" x="111.230469"/>
       <use xlink:href="#ArialMT-30" x="166.845703"/>
       <use xlink:href="#ArialMT-30" x="222.460938"/>
      </g>
     </g>
    </g>
    <g id="ytick_9">
     <g id="line2d_25">
      <path d="M 590.946563 319.97393 
L 1065.766562 319.97393 
" clip-path="url(#p9617921d4d)" style="fill: none; stroke: #ffffff; stroke-linecap: round"/>
     </g>
     <g id="line2d_26"/>
     <g id="text_18">
      <!-- 40000 -->
      <g style="fill: #262626" transform="translate(556.141875 323.552836) scale(0.1 -0.1)">
       <use xlink:href="#ArialMT-34"/>
       <use xlink:href="#ArialMT-30" x="55.615234"/>
       <use xlink:href="#ArialMT-30" x="111.230469"/>
       <use xlink:href="#ArialMT-30" x="166.845703"/>
       <use xlink:href="#ArialMT-30" x="222.460938"/>
      </g>
     </g>
    </g>
    <g id="ytick_10">
     <g id="line2d_27">
      <path d="M 590.946563 276.618395 
L 1065.766562 276.618395 
" clip-path="url(#p9617921d4d)" style="fill: none; stroke: #ffffff; stroke-linecap: round"/>
     </g>
     <g id="line2d_28"/>
     <g id="text_19">
      <!-- 60000 -->
      <g style="fill: #262626" transform="translate(556.141875 280.197301) scale(0.1 -0.1)">
       <use xlink:href="#ArialMT-36"/>
       <use xlink:href="#ArialMT-30" x="55.615234"/>
       <use xlink:href="#ArialMT-30" x="111.230469"/>
       <use xlink:href="#ArialMT-30" x="166.845703"/>
       <use xlink:href="#ArialMT-30" x="222.460938"/>
      </g>
     </g>
    </g>
    <g id="ytick_11">
     <g id="line2d_29">
      <path d="M 590.946563 233.26286 
L 1065.766562 233.26286 
" clip-path="url(#p9617921d4d)" style="fill: none; stroke: #ffffff; stroke-linecap: round"/>
     </g>
     <g id="line2d_30"/>
     <g id="text_20">
      <!-- 80000 -->
      <g style="fill: #262626" transform="translate(556.141875 236.841766) scale(0.1 -0.1)">
       <use xlink:href="#ArialMT-38"/>
       <use xlink:href="#ArialMT-30" x="55.615234"/>
       <use xlink:href="#ArialMT-30" x="111.230469"/>
       <use xlink:href="#ArialMT-30" x="166.845703"/>
       <use xlink:href="#ArialMT-30" x="222.460938"/>
      </g>
     </g>
    </g>
    <g id="ytick_12">
     <g id="line2d_31">
      <path d="M 590.946563 189.907324 
L 1065.766562 189.907324 
" clip-path="url(#p9617921d4d)" style="fill: none; stroke: #ffffff; stroke-linecap: round"/>
     </g>
     <g id="line2d_32"/>
     <g id="text_21">
      <!-- 100000 -->
      <g style="fill: #262626" transform="translate(550.580938 193.486231) scale(0.1 -0.1)">
       <use xlink:href="#ArialMT-31"/>
       <use xlink:href="#ArialMT-30" x="55.615234"/>
       <use xlink:href="#ArialMT-30" x="111.230469"/>
       <use xlink:href="#ArialMT-30" x="166.845703"/>
       <use xlink:href="#ArialMT-30" x="222.460938"/>
       <use xlink:href="#ArialMT-30" x="278.076172"/>
      </g>
     </g>
    </g>
    <g id="ytick_13">
     <g id="line2d_33">
      <path d="M 590.946563 146.551789 
L 1065.766562 146.551789 
" clip-path="url(#p9617921d4d)" style="fill: none; stroke: #ffffff; stroke-linecap: round"/>
     </g>
     <g id="line2d_34"/>
     <g id="text_22">
      <!-- 120000 -->
      <g style="fill: #262626" transform="translate(550.580938 150.130696) scale(0.1 -0.1)">
       <use xlink:href="#ArialMT-31"/>
       <use xlink:href="#ArialMT-32" x="55.615234"/>
       <use xlink:href="#ArialMT-30" x="111.230469"/>
       <use xlink:href="#ArialMT-30" x="166.845703"/>
       <use xlink:href="#ArialMT-30" x="222.460938"/>
       <use xlink:href="#ArialMT-30" x="278.076172"/>
      </g>
     </g>
    </g>
    <g id="ytick_14">
     <g id="line2d_35">
      <path d="M 590.946563 103.196254 
L 1065.766562 103.196254 
" clip-path="url(#p9617921d4d)" style="fill: none; stroke: #ffffff; stroke-linecap: round"/>
     </g>
     <g id="line2d_36"/>
     <g id="text_23">
      <!-- 140000 -->
      <g style="fill: #262626" transform="translate(550.580938 106.77516) scale(0.1 -0.1)">
       <use xlink:href="#ArialMT-31"/>
       <use xlink:href="#ArialMT-34" x="55.615234"/>
       <use xlink:href="#ArialMT-30" x="111.230469"/>
       <use xlink:href="#ArialMT-30" x="166.845703"/>
       <use xlink:href="#ArialMT-30" x="222.460938"/>
       <use xlink:href="#ArialMT-30" x="278.076172"/>
      </g>
     </g>
    </g>
    <g id="ytick_15">
     <g id="line2d_37">
      <path d="M 590.946563 59.840719 
L 1065.766562 59.840719 
" clip-path="url(#p9617921d4d)" style="fill: none; stroke: #ffffff; stroke-linecap: round"/>
     </g>
     <g id="line2d_38"/>
     <g id="text_24">
      <!-- 160000 -->
      <g style="fill: #262626" transform="translate(550.580938 63.419625) scale(0.1 -0.1)">
       <use xlink:href="#ArialMT-31"/>
       <use xlink:href="#ArialMT-36" x="55.615234"/>
       <use xlink:href="#ArialMT-30" x="111.230469"/>
       <use xlink:href="#ArialMT-30" x="166.845703"/>
       <use xlink:href="#ArialMT-30" x="222.460938"/>
       <use xlink:href="#ArialMT-30" x="278.076172"/>
      </g>
     </g>
    </g>
    <g id="text_25">
     <!-- Number of Data Points -->
     <g style="fill: #262626" transform="translate(544.394688 269.943672) rotate(-90) scale(0.11 -0.11)">
      <defs>
       <path id="ArialMT-4e" d="M 488 0 
L 488 4581 
L 1109 4581 
L 3516 984 
L 3516 4581 
L 4097 4581 
L 4097 0 
L 3475 0 
L 1069 3600 
L 1069 0 
L 488 0 
z
" transform="scale(0.015625)"/>
       <path id="ArialMT-66" d="M 556 0 
L 556 2881 
L 59 2881 
L 59 3319 
L 556 3319 
L 556 3672 
Q 556 4006 616 4169 
Q 697 4388 901 4523 
Q 1106 4659 1475 4659 
Q 1713 4659 2000 4603 
L 1916 4113 
Q 1741 4144 1584 4144 
Q 1328 4144 1222 4034 
Q 1116 3925 1116 3625 
L 1116 3319 
L 1763 3319 
L 1763 2881 
L 1116 2881 
L 1116 0 
L 556 0 
z
" transform="scale(0.015625)"/>
       <path id="ArialMT-44" d="M 494 0 
L 494 4581 
L 2072 4581 
Q 2606 4581 2888 4516 
Q 3281 4425 3559 4188 
Q 3922 3881 4101 3404 
Q 4281 2928 4281 2316 
Q 4281 1794 4159 1391 
Q 4038 988 3847 723 
Q 3656 459 3429 307 
Q 3203 156 2883 78 
Q 2563 0 2147 0 
L 494 0 
z
M 1100 541 
L 2078 541 
Q 2531 541 2789 625 
Q 3047 709 3200 863 
Q 3416 1078 3536 1442 
Q 3656 1806 3656 2325 
Q 3656 3044 3420 3430 
Q 3184 3816 2847 3947 
Q 2603 4041 2063 4041 
L 1100 4041 
L 1100 541 
z
" transform="scale(0.015625)"/>
      </defs>
      <use xlink:href="#ArialMT-4e"/>
      <use xlink:href="#ArialMT-75" x="72.216797"/>
      <use xlink:href="#ArialMT-6d" x="127.832031"/>
      <use xlink:href="#ArialMT-62" x="211.132812"/>
      <use xlink:href="#ArialMT-65" x="266.748047"/>
      <use xlink:href="#ArialMT-72" x="322.363281"/>
      <use xlink:href="#ArialMT-20" x="355.664062"/>
      <use xlink:href="#ArialMT-6f" x="383.447266"/>
      <use xlink:href="#ArialMT-66" x="439.0625"/>
      <use xlink:href="#ArialMT-20" x="466.845703"/>
      <use xlink:href="#ArialMT-44" x="494.628906"/>
      <use xlink:href="#ArialMT-61" x="566.845703"/>
      <use xlink:href="#ArialMT-74" x="622.460938"/>
      <use xlink:href="#ArialMT-61" x="650.244141"/>
      <use xlink:href="#ArialMT-20" x="705.859375"/>
      <use xlink:href="#ArialMT-50" x="733.642578"/>
      <use xlink:href="#ArialMT-6f" x="800.341797"/>
      <use xlink:href="#ArialMT-69" x="855.957031"/>
      <use xlink:href="#ArialMT-6e" x="878.173828"/>
      <use xlink:href="#ArialMT-74" x="933.789062"/>
      <use xlink:href="#ArialMT-73" x="961.572266"/>
     </g>
    </g>
   </g>
   <g id="patch_10">
    <path d="M 612.52929 406.685 
L 804.375754 406.685 
L 804.375754 40.257024 
L 612.52929 40.257024 
z
" clip-path="url(#p9617921d4d)" style="fill: #008000; opacity: 0.8"/>
   </g>
   <g id="patch_11">
    <path d="M 852.337371 406.685 
L 1044.183835 406.685 
L 1044.183835 334.682295 
L 852.337371 334.682295 
z
" clip-path="url(#p9617921d4d)" style="fill: #0000ff; opacity: 0.8"/>
   </g>
   <g id="patch_12">
    <path d="M 590.946563 406.685 
L 590.946563 21.935625 
" style="fill: none"/>
   </g>
   <g id="patch_13">
    <path d="M 1065.766562 406.685 
L 1065.766562 21.935625 
" style="fill: none"/>
   </g>
   <g id="patch_14">
    <path d="M 590.946563 406.685 
L 1065.766562 406.685 
" style="fill: none"/>
   </g>
   <g id="patch_15">
    <path d="M 590.946563 21.935625 
L 1065.766562 21.935625 
" style="fill: none"/>
   </g>
   <g id="text_26">
    <!-- 169,034 -->
    <g style="fill: #262626" transform="translate(690.380647 38.269524) scale(0.1 -0.1)">
     <defs>
      <path id="ArialMT-2c" d="M 569 0 
L 569 641 
L 1209 641 
L 1209 0 
Q 1209 -353 1084 -570 
Q 959 -788 688 -906 
L 531 -666 
Q 709 -588 793 -436 
Q 878 -284 888 0 
L 569 0 
z
" transform="scale(0.015625)"/>
     </defs>
     <use xlink:href="#ArialMT-31"/>
     <use xlink:href="#ArialMT-36" x="55.615234"/>
     <use xlink:href="#ArialMT-39" x="111.230469"/>
     <use xlink:href="#ArialMT-2c" x="166.845703"/>
     <use xlink:href="#ArialMT-30" x="194.628906"/>
     <use xlink:href="#ArialMT-33" x="250.244141"/>
     <use xlink:href="#ArialMT-34" x="305.859375"/>
    </g>
   </g>
   <g id="text_27">
    <!-- 33,215 -->
    <g style="fill: #262626" transform="translate(932.969197 332.694795) scale(0.1 -0.1)">
     <use xlink:href="#ArialMT-33"/>
     <use xlink:href="#ArialMT-33" x="55.615234"/>
     <use xlink:href="#ArialMT-2c" x="111.230469"/>
     <use xlink:href="#ArialMT-32" x="139.013672"/>
     <use xlink:href="#ArialMT-31" x="194.628906"/>
     <use xlink:href="#ArialMT-35" x="250.244141"/>
    </g>
   </g>
   <g id="text_28">
    <!-- Data Points Comparison -->
    <g style="fill: #262626" transform="translate(763.329688 15.935625) scale(0.12 -0.12)">
     <use xlink:href="#ArialMT-44"/>
     <use xlink:href="#ArialMT-61" x="72.216797"/>
     <use xlink:href="#ArialMT-74" x="127.832031"/>
     <use xlink:href="#ArialMT-61" x="155.615234"/>
     <use xlink:href="#ArialMT-20" x="211.230469"/>
     <use xlink:href="#ArialMT-50" x="239.013672"/>
     <use xlink:href="#ArialMT-6f" x="305.712891"/>
     <use xlink:href="#ArialMT-69" x="361.328125"/>
     <use xlink:href="#ArialMT-6e" x="383.544922"/>
     <use xlink:href="#ArialMT-74" x="439.160156"/>
     <use xlink:href="#ArialMT-73" x="466.943359"/>
     <use xlink:href="#ArialMT-20" x="516.943359"/>
     <use xlink:href="#ArialMT-43" x="544.726562"/>
     <use xlink:href="#ArialMT-6f" x="616.943359"/>
     <use xlink:href="#ArialMT-6d" x="672.558594"/>
     <use xlink:href="#ArialMT-70" x="755.859375"/>
     <use xlink:href="#ArialMT-61" x="811.474609"/>
     <use xlink:href="#ArialMT-72" x="867.089844"/>
     <use xlink:href="#ArialMT-69" x="900.390625"/>
     <use xlink:href="#ArialMT-73" x="922.607422"/>
     <use xlink:href="#ArialMT-6f" x="972.607422"/>
     <use xlink:href="#ArialMT-6e" x="1028.222656"/>
    </g>
   </g>
  </g>
  <g id="axes_3">
   <g id="patch_16">
    <path d="M 50.766563 833.285 
L 525.586563 833.285 
L 525.586563 448.535625 
L 50.766563 448.535625 
z
" style="fill: #eaeaf2"/>
   </g>
   <g id="matplotlib.axis_5">
    <g id="xtick_5">
     <g id="line2d_39">
      <path d="M 168.272522 833.285 
L 168.272522 448.535625 
" clip-path="url(#pd60954842a)" style="fill: none; stroke: #ffffff; stroke-linecap: round"/>
     </g>
     <g id="line2d_40"/>
     <g id="text_29">
      <!-- Rural -->
      <g style="fill: #262626" transform="translate(156.324866 847.442812) scale(0.1 -0.1)">
       <use xlink:href="#ArialMT-52"/>
       <use xlink:href="#ArialMT-75" x="72.216797"/>
       <use xlink:href="#ArialMT-72" x="127.832031"/>
       <use xlink:href="#ArialMT-61" x="161.132812"/>
       <use xlink:href="#ArialMT-6c" x="216.748047"/>
      </g>
     </g>
    </g>
    <g id="xtick_6">
     <g id="line2d_41">
      <path d="M 408.080603 833.285 
L 408.080603 448.535625 
" clip-path="url(#pd60954842a)" style="fill: none; stroke: #ffffff; stroke-linecap: round"/>
     </g>
     <g id="line2d_42"/>
     <g id="text_30">
      <!-- Urban -->
      <g style="fill: #262626" transform="translate(394.463415 847.442812) scale(0.1 -0.1)">
       <use xlink:href="#ArialMT-55"/>
       <use xlink:href="#ArialMT-72" x="72.216797"/>
       <use xlink:href="#ArialMT-62" x="105.517578"/>
       <use xlink:href="#ArialMT-61" x="161.132812"/>
       <use xlink:href="#ArialMT-6e" x="216.748047"/>
      </g>
     </g>
    </g>
   </g>
   <g id="matplotlib.axis_6">
    <g id="ytick_16">
     <g id="line2d_43">
      <path d="M 50.766563 833.285 
L 525.586563 833.285 
" clip-path="url(#pd60954842a)" style="fill: none; stroke: #ffffff; stroke-linecap: round"/>
     </g>
     <g id="line2d_44"/>
     <g id="text_31">
      <!-- 0 -->
      <g style="fill: #262626" transform="translate(38.205625 836.863906) scale(0.1 -0.1)">
       <use xlink:href="#ArialMT-30"/>
      </g>
     </g>
    </g>
    <g id="ytick_17">
     <g id="line2d_45">
      <path d="M 50.766563 773.109248 
L 525.586563 773.109248 
" clip-path="url(#pd60954842a)" style="fill: none; stroke: #ffffff; stroke-linecap: round"/>
     </g>
     <g id="line2d_46"/>
     <g id="text_32">
      <!-- 200 -->
      <g style="fill: #262626" transform="translate(27.08375 776.688154) scale(0.1 -0.1)">
       <use xlink:href="#ArialMT-32"/>
       <use xlink:href="#ArialMT-30" x="55.615234"/>
       <use xlink:href="#ArialMT-30" x="111.230469"/>
      </g>
     </g>
    </g>
    <g id="ytick_18">
     <g id="line2d_47">
      <path d="M 50.766563 712.933495 
L 525.586563 712.933495 
" clip-path="url(#pd60954842a)" style="fill: none; stroke: #ffffff; stroke-linecap: round"/>
     </g>
     <g id="line2d_48"/>
     <g id="text_33">
      <!-- 400 -->
      <g style="fill: #262626" transform="translate(27.08375 716.512401) scale(0.1 -0.1)">
       <use xlink:href="#ArialMT-34"/>
       <use xlink:href="#ArialMT-30" x="55.615234"/>
       <use xlink:href="#ArialMT-30" x="111.230469"/>
      </g>
     </g>
    </g>
    <g id="ytick_19">
     <g id="line2d_49">
      <path d="M 50.766563 652.757743 
L 525.586563 652.757743 
" clip-path="url(#pd60954842a)" style="fill: none; stroke: #ffffff; stroke-linecap: round"/>
     </g>
     <g id="line2d_50"/>
     <g id="text_34">
      <!-- 600 -->
      <g style="fill: #262626" transform="translate(27.08375 656.336649) scale(0.1 -0.1)">
       <use xlink:href="#ArialMT-36"/>
       <use xlink:href="#ArialMT-30" x="55.615234"/>
       <use xlink:href="#ArialMT-30" x="111.230469"/>
      </g>
     </g>
    </g>
    <g id="ytick_20">
     <g id="line2d_51">
      <path d="M 50.766563 592.58199 
L 525.586563 592.58199 
" clip-path="url(#pd60954842a)" style="fill: none; stroke: #ffffff; stroke-linecap: round"/>
     </g>
     <g id="line2d_52"/>
     <g id="text_35">
      <!-- 800 -->
      <g style="fill: #262626" transform="translate(27.08375 596.160896) scale(0.1 -0.1)">
       <use xlink:href="#ArialMT-38"/>
       <use xlink:href="#ArialMT-30" x="55.615234"/>
       <use xlink:href="#ArialMT-30" x="111.230469"/>
      </g>
     </g>
    </g>
    <g id="ytick_21">
     <g id="line2d_53">
      <path d="M 50.766563 532.406238 
L 525.586563 532.406238 
" clip-path="url(#pd60954842a)" style="fill: none; stroke: #ffffff; stroke-linecap: round"/>
     </g>
     <g id="line2d_54"/>
     <g id="text_36">
      <!-- 1000 -->
      <g style="fill: #262626" transform="translate(21.522813 535.985144) scale(0.1 -0.1)">
       <use xlink:href="#ArialMT-31"/>
       <use xlink:href="#ArialMT-30" x="55.615234"/>
       <use xlink:href="#ArialMT-30" x="111.230469"/>
       <use xlink:href="#ArialMT-30" x="166.845703"/>
      </g>
     </g>
    </g>
    <g id="ytick_22">
     <g id="line2d_55">
      <path d="M 50.766563 472.230485 
L 525.586563 472.230485 
" clip-path="url(#pd60954842a)" style="fill: none; stroke: #ffffff; stroke-linecap: round"/>
     </g>
     <g id="line2d_56"/>
     <g id="text_37">
      <!-- 1200 -->
      <g style="fill: #262626" transform="translate(21.522813 475.809391) scale(0.1 -0.1)">
       <use xlink:href="#ArialMT-31"/>
       <use xlink:href="#ArialMT-32" x="55.615234"/>
       <use xlink:href="#ArialMT-30" x="111.230469"/>
       <use xlink:href="#ArialMT-30" x="166.845703"/>
      </g>
     </g>
    </g>
    <g id="text_38">
     <!-- Distance Range from Roads (km) -->
     <g style="fill: #262626" transform="translate(15.207656 722.516562) rotate(-90) scale(0.11 -0.11)">
      <defs>
       <path id="ArialMT-63" d="M 2588 1216 
L 3141 1144 
Q 3050 572 2676 248 
Q 2303 -75 1759 -75 
Q 1078 -75 664 370 
Q 250 816 250 1647 
Q 250 2184 428 2587 
Q 606 2991 970 3192 
Q 1334 3394 1763 3394 
Q 2303 3394 2647 3120 
Q 2991 2847 3088 2344 
L 2541 2259 
Q 2463 2594 2264 2762 
Q 2066 2931 1784 2931 
Q 1359 2931 1093 2626 
Q 828 2322 828 1663 
Q 828 994 1084 691 
Q 1341 388 1753 388 
Q 2084 388 2306 591 
Q 2528 794 2588 1216 
z
" transform="scale(0.015625)"/>
       <path id="ArialMT-67" d="M 319 -275 
L 866 -356 
Q 900 -609 1056 -725 
Q 1266 -881 1628 -881 
Q 2019 -881 2231 -725 
Q 2444 -569 2519 -288 
Q 2563 -116 2559 434 
Q 2191 0 1641 0 
Q 956 0 581 494 
Q 206 988 206 1678 
Q 206 2153 378 2554 
Q 550 2956 876 3175 
Q 1203 3394 1644 3394 
Q 2231 3394 2613 2919 
L 2613 3319 
L 3131 3319 
L 3131 450 
Q 3131 -325 2973 -648 
Q 2816 -972 2473 -1159 
Q 2131 -1347 1631 -1347 
Q 1038 -1347 672 -1080 
Q 306 -813 319 -275 
z
M 784 1719 
Q 784 1066 1043 766 
Q 1303 466 1694 466 
Q 2081 466 2343 764 
Q 2606 1063 2606 1700 
Q 2606 2309 2336 2618 
Q 2066 2928 1684 2928 
Q 1309 2928 1046 2623 
Q 784 2319 784 1719 
z
" transform="scale(0.015625)"/>
       <path id="ArialMT-64" d="M 2575 0 
L 2575 419 
Q 2259 -75 1647 -75 
Q 1250 -75 917 144 
Q 584 363 401 755 
Q 219 1147 219 1656 
Q 219 2153 384 2558 
Q 550 2963 881 3178 
Q 1213 3394 1622 3394 
Q 1922 3394 2156 3267 
Q 2391 3141 2538 2938 
L 2538 4581 
L 3097 4581 
L 3097 0 
L 2575 0 
z
M 797 1656 
Q 797 1019 1065 703 
Q 1334 388 1700 388 
Q 2069 388 2326 689 
Q 2584 991 2584 1609 
Q 2584 2291 2321 2609 
Q 2059 2928 1675 2928 
Q 1300 2928 1048 2622 
Q 797 2316 797 1656 
z
" transform="scale(0.015625)"/>
       <path id="ArialMT-28" d="M 1497 -1347 
Q 1031 -759 709 28 
Q 388 816 388 1659 
Q 388 2403 628 3084 
Q 909 3875 1497 4659 
L 1900 4659 
Q 1522 4009 1400 3731 
Q 1209 3300 1100 2831 
Q 966 2247 966 1656 
Q 966 153 1900 -1347 
L 1497 -1347 
z
" transform="scale(0.015625)"/>
       <path id="ArialMT-6b" d="M 425 0 
L 425 4581 
L 988 4581 
L 988 1969 
L 2319 3319 
L 3047 3319 
L 1778 2088 
L 3175 0 
L 2481 0 
L 1384 1697 
L 988 1316 
L 988 0 
L 425 0 
z
" transform="scale(0.015625)"/>
       <path id="ArialMT-29" d="M 791 -1347 
L 388 -1347 
Q 1322 153 1322 1656 
Q 1322 2244 1188 2822 
Q 1081 3291 891 3722 
Q 769 4003 388 4659 
L 791 4659 
Q 1378 3875 1659 3084 
Q 1900 2403 1900 1659 
Q 1900 816 1576 28 
Q 1253 -759 791 -1347 
z
" transform="scale(0.015625)"/>
      </defs>
      <use xlink:href="#ArialMT-44"/>
      <use xlink:href="#ArialMT-69" x="72.216797"/>
      <use xlink:href="#ArialMT-73" x="94.433594"/>
      <use xlink:href="#ArialMT-74" x="144.433594"/>
      <use xlink:href="#ArialMT-61" x="172.216797"/>
      <use xlink:href="#ArialMT-6e" x="227.832031"/>
      <use xlink:href="#ArialMT-63" x="283.447266"/>
      <use xlink:href="#ArialMT-65" x="333.447266"/>
      <use xlink:href="#ArialMT-20" x="389.0625"/>
      <use xlink:href="#ArialMT-52" x="416.845703"/>
      <use xlink:href="#ArialMT-61" x="489.0625"/>
      <use xlink:href="#ArialMT-6e" x="544.677734"/>
      <use xlink:href="#ArialMT-67" x="600.292969"/>
      <use xlink:href="#ArialMT-65" x="655.908203"/>
      <use xlink:href="#ArialMT-20" x="711.523438"/>
      <use xlink:href="#ArialMT-66" x="739.306641"/>
      <use xlink:href="#ArialMT-72" x="767.089844"/>
      <use xlink:href="#ArialMT-6f" x="800.390625"/>
      <use xlink:href="#ArialMT-6d" x="856.005859"/>
      <use xlink:href="#ArialMT-20" x="939.306641"/>
      <use xlink:href="#ArialMT-52" x="967.089844"/>
      <use xlink:href="#ArialMT-6f" x="1039.306641"/>
      <use xlink:href="#ArialMT-61" x="1094.921875"/>
      <use xlink:href="#ArialMT-64" x="1150.537109"/>
      <use xlink:href="#ArialMT-73" x="1206.152344"/>
      <use xlink:href="#ArialMT-20" x="1256.152344"/>
      <use xlink:href="#ArialMT-28" x="1283.935547"/>
      <use xlink:href="#ArialMT-6b" x="1317.236328"/>
      <use xlink:href="#ArialMT-6d" x="1367.236328"/>
      <use xlink:href="#ArialMT-29" x="1450.537109"/>
     </g>
    </g>
   </g>
   <g id="patch_17">
    <path d="M 72.34929 833.285 
L 264.195754 833.285 
L 264.195754 466.857024 
L 72.34929 466.857024 
z
" clip-path="url(#pd60954842a)" style="fill: #008000; opacity: 0.8"/>
   </g>
   <g id="patch_18">
    <path d="M 312.157371 833.285 
L 504.003835 833.285 
L 504.003835 488.882519 
L 312.157371 488.882519 
z
" clip-path="url(#pd60954842a)" style="fill: #0000ff; opacity: 0.8"/>
   </g>
   <g id="patch_19">
    <path d="M 50.766563 833.285 
L 50.766563 448.535625 
" style="fill: none"/>
   </g>
   <g id="patch_20">
    <path d="M 525.586563 833.285 
L 525.586563 448.535625 
" style="fill: none"/>
   </g>
   <g id="patch_21">
    <path d="M 50.766562 833.285 
L 525.586563 833.285 
" style="fill: none"/>
   </g>
   <g id="patch_22">
    <path d="M 50.766562 448.535625 
L 525.586563 448.535625 
" style="fill: none"/>
   </g>
   <g id="text_39">
    <!-- 1217.9 -->
    <g style="fill: #262626" transform="translate(152.981116 464.869524) scale(0.1 -0.1)">
     <defs>
      <path id="ArialMT-37" d="M 303 3981 
L 303 4522 
L 3269 4522 
L 3269 4084 
Q 2831 3619 2401 2847 
Q 1972 2075 1738 1259 
Q 1569 684 1522 0 
L 944 0 
Q 953 541 1156 1306 
Q 1359 2072 1739 2783 
Q 2119 3494 2547 3981 
L 303 3981 
z
" transform="scale(0.015625)"/>
     </defs>
     <use xlink:href="#ArialMT-31"/>
     <use xlink:href="#ArialMT-32" x="55.615234"/>
     <use xlink:href="#ArialMT-31" x="111.230469"/>
     <use xlink:href="#ArialMT-37" x="166.845703"/>
     <use xlink:href="#ArialMT-2e" x="222.460938"/>
     <use xlink:href="#ArialMT-39" x="250.244141"/>
    </g>
   </g>
   <g id="text_40">
    <!-- 1144.7 -->
    <g style="fill: #262626" transform="translate(393.157947 486.895019) scale(0.1 -0.1)">
     <use xlink:href="#ArialMT-31"/>
     <use xlink:href="#ArialMT-31" x="48.240234"/>
     <use xlink:href="#ArialMT-34" x="103.855469"/>
     <use xlink:href="#ArialMT-34" x="159.470703"/>
     <use xlink:href="#ArialMT-2e" x="215.085938"/>
     <use xlink:href="#ArialMT-37" x="242.869141"/>
    </g>
   </g>
   <g id="text_41">
    <!-- Distance Range Coverage -->
    <g style="fill: #262626" transform="translate(217.806875 442.535625) scale(0.12 -0.12)">
     <defs>
      <path id="ArialMT-76" d="M 1344 0 
L 81 3319 
L 675 3319 
L 1388 1331 
Q 1503 1009 1600 663 
Q 1675 925 1809 1294 
L 2547 3319 
L 3125 3319 
L 1869 0 
L 1344 0 
z
" transform="scale(0.015625)"/>
     </defs>
     <use xlink:href="#ArialMT-44"/>
     <use xlink:href="#ArialMT-69" x="72.216797"/>
     <use xlink:href="#ArialMT-73" x="94.433594"/>
     <use xlink:href="#ArialMT-74" x="144.433594"/>
     <use xlink:href="#ArialMT-61" x="172.216797"/>
     <use xlink:href="#ArialMT-6e" x="227.832031"/>
     <use xlink:href="#ArialMT-63" x="283.447266"/>
     <use xlink:href="#ArialMT-65" x="333.447266"/>
     <use xlink:href="#ArialMT-20" x="389.0625"/>
     <use xlink:href="#ArialMT-52" x="416.845703"/>
     <use xlink:href="#ArialMT-61" x="489.0625"/>
     <use xlink:href="#ArialMT-6e" x="544.677734"/>
     <use xlink:href="#ArialMT-67" x="600.292969"/>
     <use xlink:href="#ArialMT-65" x="655.908203"/>
     <use xlink:href="#ArialMT-20" x="711.523438"/>
     <use xlink:href="#ArialMT-43" x="739.306641"/>
     <use xlink:href="#ArialMT-6f" x="811.523438"/>
     <use xlink:href="#ArialMT-76" x="867.138672"/>
     <use xlink:href="#ArialMT-65" x="917.138672"/>
     <use xlink:href="#ArialMT-72" x="972.753906"/>
     <use xlink:href="#ArialMT-61" x="1006.054688"/>
     <use xlink:href="#ArialMT-67" x="1061.669922"/>
     <use xlink:href="#ArialMT-65" x="1117.285156"/>
    </g>
   </g>
  </g>
  <g id="axes_4">
   <g id="patch_23">
    <path d="M 590.946563 833.285 
L 1065.766562 833.285 
L 1065.766562 448.535625 
L 590.946563 448.535625 
z
" style="fill: #eaeaf2"/>
   </g>
   <g id="matplotlib.axis_7">
    <g id="xtick_7">
     <g id="line2d_57">
      <path d="M 708.452522 833.285 
L 708.452522 448.535625 
" clip-path="url(#p4bab63ec81)" style="fill: none; stroke: #ffffff; stroke-linecap: round"/>
     </g>
     <g id="line2d_58"/>
     <g id="text_42">
      <!-- Rural -->
      <g style="fill: #262626" transform="translate(696.504866 847.442812) scale(0.1 -0.1)">
       <use xlink:href="#ArialMT-52"/>
       <use xlink:href="#ArialMT-75" x="72.216797"/>
       <use xlink:href="#ArialMT-72" x="127.832031"/>
       <use xlink:href="#ArialMT-61" x="161.132812"/>
       <use xlink:href="#ArialMT-6c" x="216.748047"/>
      </g>
     </g>
    </g>
    <g id="xtick_8">
     <g id="line2d_59">
      <path d="M 948.260603 833.285 
L 948.260603 448.535625 
" clip-path="url(#p4bab63ec81)" style="fill: none; stroke: #ffffff; stroke-linecap: round"/>
     </g>
     <g id="line2d_60"/>
     <g id="text_43">
      <!-- Urban -->
      <g style="fill: #262626" transform="translate(934.643415 847.442812) scale(0.1 -0.1)">
       <use xlink:href="#ArialMT-55"/>
       <use xlink:href="#ArialMT-72" x="72.216797"/>
       <use xlink:href="#ArialMT-62" x="105.517578"/>
       <use xlink:href="#ArialMT-61" x="161.132812"/>
       <use xlink:href="#ArialMT-6e" x="216.748047"/>
      </g>
     </g>
    </g>
   </g>
   <g id="matplotlib.axis_8">
    <g id="ytick_23">
     <g id="line2d_61">
      <path d="M 590.946563 833.285 
L 1065.766562 833.285 
" clip-path="url(#p4bab63ec81)" style="fill: none; stroke: #ffffff; stroke-linecap: round"/>
     </g>
     <g id="line2d_62"/>
     <g id="text_44">
      <!-- 0 -->
      <g style="fill: #262626" transform="translate(578.385625 836.863906) scale(0.1 -0.1)">
       <use xlink:href="#ArialMT-30"/>
      </g>
     </g>
    </g>
    <g id="ytick_24">
     <g id="line2d_63">
      <path d="M 590.946563 779.644777 
L 1065.766562 779.644777 
" clip-path="url(#p4bab63ec81)" style="fill: none; stroke: #ffffff; stroke-linecap: round"/>
     </g>
     <g id="line2d_64"/>
     <g id="text_45">
      <!-- 5000 -->
      <g style="fill: #262626" transform="translate(561.702813 783.223683) scale(0.1 -0.1)">
       <use xlink:href="#ArialMT-35"/>
       <use xlink:href="#ArialMT-30" x="55.615234"/>
       <use xlink:href="#ArialMT-30" x="111.230469"/>
       <use xlink:href="#ArialMT-30" x="166.845703"/>
      </g>
     </g>
    </g>
    <g id="ytick_25">
     <g id="line2d_65">
      <path d="M 590.946563 726.004554 
L 1065.766562 726.004554 
" clip-path="url(#p4bab63ec81)" style="fill: none; stroke: #ffffff; stroke-linecap: round"/>
     </g>
     <g id="line2d_66"/>
     <g id="text_46">
      <!-- 10000 -->
      <g style="fill: #262626" transform="translate(556.141875 729.583461) scale(0.1 -0.1)">
       <use xlink:href="#ArialMT-31"/>
       <use xlink:href="#ArialMT-30" x="55.615234"/>
       <use xlink:href="#ArialMT-30" x="111.230469"/>
       <use xlink:href="#ArialMT-30" x="166.845703"/>
       <use xlink:href="#ArialMT-30" x="222.460938"/>
      </g>
     </g>
    </g>
    <g id="ytick_26">
     <g id="line2d_67">
      <path d="M 590.946563 672.364332 
L 1065.766562 672.364332 
" clip-path="url(#p4bab63ec81)" style="fill: none; stroke: #ffffff; stroke-linecap: round"/>
     </g>
     <g id="line2d_68"/>
     <g id="text_47">
      <!-- 15000 -->
      <g style="fill: #262626" transform="translate(556.141875 675.943238) scale(0.1 -0.1)">
       <use xlink:href="#ArialMT-31"/>
       <use xlink:href="#ArialMT-35" x="55.615234"/>
       <use xlink:href="#ArialMT-30" x="111.230469"/>
       <use xlink:href="#ArialMT-30" x="166.845703"/>
       <use xlink:href="#ArialMT-30" x="222.460938"/>
      </g>
     </g>
    </g>
    <g id="ytick_27">
     <g id="line2d_69">
      <path d="M 590.946563 618.724109 
L 1065.766562 618.724109 
" clip-path="url(#p4bab63ec81)" style="fill: none; stroke: #ffffff; stroke-linecap: round"/>
     </g>
     <g id="line2d_70"/>
     <g id="text_48">
      <!-- 20000 -->
      <g style="fill: #262626" transform="translate(556.141875 622.303015) scale(0.1 -0.1)">
       <use xlink:href="#ArialMT-32"/>
       <use xlink:href="#ArialMT-30" x="55.615234"/>
       <use xlink:href="#ArialMT-30" x="111.230469"/>
       <use xlink:href="#ArialMT-30" x="166.845703"/>
       <use xlink:href="#ArialMT-30" x="222.460938"/>
      </g>
     </g>
    </g>
    <g id="ytick_28">
     <g id="line2d_71">
      <path d="M 590.946563 565.083886 
L 1065.766562 565.083886 
" clip-path="url(#p4bab63ec81)" style="fill: none; stroke: #ffffff; stroke-linecap: round"/>
     </g>
     <g id="line2d_72"/>
     <g id="text_49">
      <!-- 25000 -->
      <g style="fill: #262626" transform="translate(556.141875 568.662792) scale(0.1 -0.1)">
       <use xlink:href="#ArialMT-32"/>
       <use xlink:href="#ArialMT-35" x="55.615234"/>
       <use xlink:href="#ArialMT-30" x="111.230469"/>
       <use xlink:href="#ArialMT-30" x="166.845703"/>
       <use xlink:href="#ArialMT-30" x="222.460938"/>
      </g>
     </g>
    </g>
    <g id="ytick_29">
     <g id="line2d_73">
      <path d="M 590.946563 511.443663 
L 1065.766562 511.443663 
" clip-path="url(#p4bab63ec81)" style="fill: none; stroke: #ffffff; stroke-linecap: round"/>
     </g>
     <g id="line2d_74"/>
     <g id="text_50">
      <!-- 30000 -->
      <g style="fill: #262626" transform="translate(556.141875 515.022569) scale(0.1 -0.1)">
       <use xlink:href="#ArialMT-33"/>
       <use xlink:href="#ArialMT-30" x="55.615234"/>
       <use xlink:href="#ArialMT-30" x="111.230469"/>
       <use xlink:href="#ArialMT-30" x="166.845703"/>
       <use xlink:href="#ArialMT-30" x="222.460938"/>
      </g>
     </g>
    </g>
    <g id="ytick_30">
     <g id="line2d_75">
      <path d="M 590.946563 457.80344 
L 1065.766562 457.80344 
" clip-path="url(#p4bab63ec81)" style="fill: none; stroke: #ffffff; stroke-linecap: round"/>
     </g>
     <g id="line2d_76"/>
     <g id="text_51">
      <!-- 35000 -->
      <g style="fill: #262626" transform="translate(556.141875 461.382347) scale(0.1 -0.1)">
       <use xlink:href="#ArialMT-33"/>
       <use xlink:href="#ArialMT-35" x="55.615234"/>
       <use xlink:href="#ArialMT-30" x="111.230469"/>
       <use xlink:href="#ArialMT-30" x="166.845703"/>
       <use xlink:href="#ArialMT-30" x="222.460938"/>
      </g>
     </g>
    </g>
    <g id="text_52">
     <!-- Average Population per Data Point -->
     <g style="fill: #262626" transform="translate(549.826719 725.502891) rotate(-90) scale(0.11 -0.11)">
      <defs>
       <path id="ArialMT-41" d="M -9 0 
L 1750 4581 
L 2403 4581 
L 4278 0 
L 3588 0 
L 3053 1388 
L 1138 1388 
L 634 0 
L -9 0 
z
M 1313 1881 
L 2866 1881 
L 2388 3150 
Q 2169 3728 2063 4100 
Q 1975 3659 1816 3225 
L 1313 1881 
z
" transform="scale(0.015625)"/>
      </defs>
      <use xlink:href="#ArialMT-41"/>
      <use xlink:href="#ArialMT-76" x="64.949219"/>
      <use xlink:href="#ArialMT-65" x="114.949219"/>
      <use xlink:href="#ArialMT-72" x="170.564453"/>
      <use xlink:href="#ArialMT-61" x="203.865234"/>
      <use xlink:href="#ArialMT-67" x="259.480469"/>
      <use xlink:href="#ArialMT-65" x="315.095703"/>
      <use xlink:href="#ArialMT-20" x="370.710938"/>
      <use xlink:href="#ArialMT-50" x="398.494141"/>
      <use xlink:href="#ArialMT-6f" x="465.193359"/>
      <use xlink:href="#ArialMT-70" x="520.808594"/>
      <use xlink:href="#ArialMT-75" x="576.423828"/>
      <use xlink:href="#ArialMT-6c" x="632.039062"/>
      <use xlink:href="#ArialMT-61" x="654.255859"/>
      <use xlink:href="#ArialMT-74" x="709.871094"/>
      <use xlink:href="#ArialMT-69" x="737.654297"/>
      <use xlink:href="#ArialMT-6f" x="759.871094"/>
      <use xlink:href="#ArialMT-6e" x="815.486328"/>
      <use xlink:href="#ArialMT-20" x="871.101562"/>
      <use xlink:href="#ArialMT-70" x="898.884766"/>
      <use xlink:href="#ArialMT-65" x="954.5"/>
      <use xlink:href="#ArialMT-72" x="1010.115234"/>
      <use xlink:href="#ArialMT-20" x="1043.416016"/>
      <use xlink:href="#ArialMT-44" x="1071.199219"/>
      <use xlink:href="#ArialMT-61" x="1143.416016"/>
      <use xlink:href="#ArialMT-74" x="1199.03125"/>
      <use xlink:href="#ArialMT-61" x="1226.814453"/>
      <use xlink:href="#ArialMT-20" x="1282.429688"/>
      <use xlink:href="#ArialMT-50" x="1310.212891"/>
      <use xlink:href="#ArialMT-6f" x="1376.912109"/>
      <use xlink:href="#ArialMT-69" x="1432.527344"/>
      <use xlink:href="#ArialMT-6e" x="1454.744141"/>
      <use xlink:href="#ArialMT-74" x="1510.359375"/>
     </g>
    </g>
   </g>
   <g id="patch_24">
    <path d="M 612.52929 833.285 
L 804.375754 833.285 
L 804.375754 808.155028 
L 612.52929 808.155028 
z
" clip-path="url(#p4bab63ec81)" style="fill: #008000; opacity: 0.8"/>
   </g>
   <g id="patch_25">
    <path d="M 852.337371 833.285 
L 1044.183835 833.285 
L 1044.183835 466.857024 
L 852.337371 466.857024 
z
" clip-path="url(#p4bab63ec81)" style="fill: #0000ff; opacity: 0.8"/>
   </g>
   <g id="patch_26">
    <path d="M 590.946563 833.285 
L 590.946563 448.535625 
" style="fill: none"/>
   </g>
   <g id="patch_27">
    <path d="M 1065.766562 833.285 
L 1065.766562 448.535625 
" style="fill: none"/>
   </g>
   <g id="patch_28">
    <path d="M 590.946563 833.285 
L 1065.766562 833.285 
" style="fill: none"/>
   </g>
   <g id="patch_29">
    <path d="M 590.946563 448.535625 
L 1065.766562 448.535625 
" style="fill: none"/>
   </g>
   <g id="text_53">
    <!-- 2.3K -->
    <g style="fill: #262626" transform="translate(698.167366 806.167528) scale(0.1 -0.1)">
     <defs>
      <path id="ArialMT-4b" d="M 469 0 
L 469 4581 
L 1075 4581 
L 1075 2309 
L 3350 4581 
L 4172 4581 
L 2250 2725 
L 4256 0 
L 3456 0 
L 1825 2319 
L 1075 1588 
L 1075 0 
L 469 0 
z
" transform="scale(0.015625)"/>
     </defs>
     <use xlink:href="#ArialMT-32"/>
     <use xlink:href="#ArialMT-2e" x="55.615234"/>
     <use xlink:href="#ArialMT-33" x="83.398438"/>
     <use xlink:href="#ArialMT-4b" x="139.013672"/>
    </g>
   </g>
   <g id="text_54">
    <!-- 34.2K -->
    <g style="fill: #262626" transform="translate(935.194978 464.869524) scale(0.1 -0.1)">
     <use xlink:href="#ArialMT-33"/>
     <use xlink:href="#ArialMT-34" x="55.615234"/>
     <use xlink:href="#ArialMT-2e" x="111.230469"/>
     <use xlink:href="#ArialMT-32" x="139.013672"/>
     <use xlink:href="#ArialMT-4b" x="194.628906"/>
    </g>
   </g>
   <g id="text_55">
    <!-- Average Population Density -->
    <g style="fill: #262626" transform="translate(754.420625 442.535625) scale(0.12 -0.12)">
     <defs>
      <path id="ArialMT-79" d="M 397 -1278 
L 334 -750 
Q 519 -800 656 -800 
Q 844 -800 956 -737 
Q 1069 -675 1141 -563 
Q 1194 -478 1313 -144 
Q 1328 -97 1363 -6 
L 103 3319 
L 709 3319 
L 1400 1397 
Q 1534 1031 1641 628 
Q 1738 1016 1872 1384 
L 2581 3319 
L 3144 3319 
L 1881 -56 
Q 1678 -603 1566 -809 
Q 1416 -1088 1222 -1217 
Q 1028 -1347 759 -1347 
Q 597 -1347 397 -1278 
z
" transform="scale(0.015625)"/>
     </defs>
     <use xlink:href="#ArialMT-41"/>
     <use xlink:href="#ArialMT-76" x="64.949219"/>
     <use xlink:href="#ArialMT-65" x="114.949219"/>
     <use xlink:href="#ArialMT-72" x="170.564453"/>
     <use xlink:href="#ArialMT-61" x="203.865234"/>
     <use xlink:href="#ArialMT-67" x="259.480469"/>
     <use xlink:href="#ArialMT-65" x="315.095703"/>
     <use xlink:href="#ArialMT-20" x="370.710938"/>
     <use xlink:href="#ArialMT-50" x="398.494141"/>
     <use xlink:href="#ArialMT-6f" x="465.193359"/>
     <use xlink:href="#ArialMT-70" x="520.808594"/>
     <use xlink:href="#ArialMT-75" x="576.423828"/>
     <use xlink:href="#ArialMT-6c" x="632.039062"/>
     <use xlink:href="#ArialMT-61" x="654.255859"/>
     <use xlink:href="#ArialMT-74" x="709.871094"/>
     <use xlink:href="#ArialMT-69" x="737.654297"/>
     <use xlink:href="#ArialMT-6f" x="759.871094"/>
     <use xlink:href="#ArialMT-6e" x="815.486328"/>
     <use xlink:href="#ArialMT-20" x="871.101562"/>
     <use xlink:href="#ArialMT-44" x="898.884766"/>
     <use xlink:href="#ArialMT-65" x="971.101562"/>
     <use xlink:href="#ArialMT-6e" x="1026.716797"/>
     <use xlink:href="#ArialMT-73" x="1082.332031"/>
     <use xlink:href="#ArialMT-69" x="1132.332031"/>
     <use xlink:href="#ArialMT-74" x="1154.548828"/>
     <use xlink:href="#ArialMT-79" x="1182.332031"/>
    </g>
   </g>
  </g>
 </g>
 <defs>
  <clipPath id="p12da56437a">
   <rect x="50.766563" y="21.935625" width="474.82" height="384.749375"/>
  </clipPath>
  <clipPath id="p9617921d4d">
   <rect x="590.946563" y="21.935625" width="474.82" height="384.749375"/>
  </clipPath>
  <clipPath id="pd60954842a">
   <rect x="50.766563" y="448.535625" width="474.82" height="384.749375"/>
  </clipPath>
  <clipPath id="p4bab63ec81">
   <rect x="590.946563" y="448.535625" width="474.82" height="384.749375"/>
  </clipPath>
 </defs>
</svg>
