<?xml version="1.0" encoding="utf-8" standalone="no"?>
<!DOCTYPE svg PUBLIC "-//W3C//DTD SVG 1.1//EN"
  "http://www.w3.org/Graphics/SVG/1.1/DTD/svg11.dtd">
<svg xmlns:xlink="http://www.w3.org/1999/xlink" width="856.760781pt" height="568.827951pt" viewBox="0 0 856.760781 568.827951" xmlns="http://www.w3.org/2000/svg" version="1.1">
 <metadata>
  <rdf:RDF xmlns:dc="http://purl.org/dc/elements/1.1/" xmlns:cc="http://creativecommons.org/ns#" xmlns:rdf="http://www.w3.org/1999/02/22-rdf-syntax-ns#">
   <cc:Work>
    <dc:type rdf:resource="http://purl.org/dc/dcmitype/StillImage"/>
    <dc:date>2025-09-26T11:49:18.827629</dc:date>
    <dc:format>image/svg+xml</dc:format>
    <dc:creator>
     <cc:Agent>
      <dc:title>Matplotlib v3.9.2, https://matplotlib.org/</dc:title>
     </cc:Agent>
    </dc:creator>
   </cc:Work>
  </rdf:RDF>
 </metadata>
 <defs>
  <style type="text/css">*{stroke-linejoin: round; stroke-linecap: butt}</style>
 </defs>
 <g id="figure_1">
  <g id="patch_1">
   <path d="M 0 568.827951 
L 856.760781 568.827951 
L 856.760781 0 
L 0 0 
z
" style="fill: #ffffff"/>
  </g>
  <g id="axes_1">
   <g id="patch_2">
    <path d="M 33.820781 500.026568 
L 849.560781 500.026568 
L 849.560781 21.935625 
L 33.820781 21.935625 
z
" style="fill: #eaeaf2"/>
   </g>
   <g id="matplotlib.axis_1">
    <g id="xtick_1">
     <g id="line2d_1">
      <path d="M 82.333953 500.026568 
L 82.333953 21.935625 
" clip-path="url(#pf3e84a874e)" style="fill: none; stroke: #ffffff; stroke-opacity: 0.3; stroke-linecap: round"/>
     </g>
     <g id="line2d_2"/>
     <g id="text_1">
      <!-- 0-50 -->
      <g style="fill: #262626" transform="translate(77.086447 526.23888) rotate(-45) scale(0.1 -0.1)">
       <defs>
        <path id="ArialMT-30" d="M 266 2259 
Q 266 3072 433 3567 
Q 600 4063 929 4331 
Q 1259 4600 1759 4600 
Q 2128 4600 2406 4451 
Q 2684 4303 2865 4023 
Q 3047 3744 3150 3342 
Q 3253 2941 3253 2259 
Q 3253 1453 3087 958 
Q 2922 463 2592 192 
Q 2263 -78 1759 -78 
Q 1097 -78 719 397 
Q 266 969 266 2259 
z
M 844 2259 
Q 844 1131 1108 757 
Q 1372 384 1759 384 
Q 2147 384 2411 759 
Q 2675 1134 2675 2259 
Q 2675 3391 2411 3762 
Q 2147 4134 1753 4134 
Q 1366 4134 1134 3806 
Q 844 3388 844 2259 
z
" transform="scale(0.015625)"/>
        <path id="ArialMT-2d" d="M 203 1375 
L 203 1941 
L 1931 1941 
L 1931 1375 
L 203 1375 
z
" transform="scale(0.015625)"/>
        <path id="ArialMT-35" d="M 266 1200 
L 856 1250 
Q 922 819 1161 601 
Q 1400 384 1738 384 
Q 2144 384 2425 690 
Q 2706 997 2706 1503 
Q 2706 1984 2436 2262 
Q 2166 2541 1728 2541 
Q 1456 2541 1237 2417 
Q 1019 2294 894 2097 
L 366 2166 
L 809 4519 
L 3088 4519 
L 3088 3981 
L 1259 3981 
L 1013 2750 
Q 1425 3038 1878 3038 
Q 2478 3038 2890 2622 
Q 3303 2206 3303 1553 
Q 3303 931 2941 478 
Q 2500 -78 1738 -78 
Q 1113 -78 717 272 
Q 322 622 266 1200 
z
" transform="scale(0.015625)"/>
       </defs>
       <use xlink:href="#ArialMT-30"/>
       <use xlink:href="#ArialMT-2d" x="55.615234"/>
       <use xlink:href="#ArialMT-35" x="88.916016"/>
       <use xlink:href="#ArialMT-30" x="144.53125"/>
      </g>
     </g>
    </g>
    <g id="xtick_2">
     <g id="line2d_3">
      <path d="M 115.002756 500.026568 
L 115.002756 21.935625 
" clip-path="url(#pf3e84a874e)" style="fill: none; stroke: #ffffff; stroke-opacity: 0.3; stroke-linecap: round"/>
     </g>
     <g id="line2d_4"/>
     <g id="text_2">
      <!-- 50-100 -->
      <g style="fill: #262626" transform="translate(105.823073 534.103234) rotate(-45) scale(0.1 -0.1)">
       <defs>
        <path id="ArialMT-31" d="M 2384 0 
L 1822 0 
L 1822 3584 
Q 1619 3391 1289 3197 
Q 959 3003 697 2906 
L 697 3450 
Q 1169 3672 1522 3987 
Q 1875 4303 2022 4600 
L 2384 4600 
L 2384 0 
z
" transform="scale(0.015625)"/>
       </defs>
       <use xlink:href="#ArialMT-35"/>
       <use xlink:href="#ArialMT-30" x="55.615234"/>
       <use xlink:href="#ArialMT-2d" x="111.230469"/>
       <use xlink:href="#ArialMT-31" x="144.53125"/>
       <use xlink:href="#ArialMT-30" x="200.146484"/>
       <use xlink:href="#ArialMT-30" x="255.761719"/>
      </g>
     </g>
    </g>
    <g id="xtick_3">
     <g id="line2d_5">
      <path d="M 147.671558 500.026568 
L 147.671558 21.935625 
" clip-path="url(#pf3e84a874e)" style="fill: none; stroke: #ffffff; stroke-opacity: 0.3; stroke-linecap: round"/>
     </g>
     <g id="line2d_6"/>
     <g id="text_3">
      <!-- 100-150 -->
      <g style="fill: #262626" transform="translate(136.525788 538.03541) rotate(-45) scale(0.1 -0.1)">
       <use xlink:href="#ArialMT-31"/>
       <use xlink:href="#ArialMT-30" x="55.615234"/>
       <use xlink:href="#ArialMT-30" x="111.230469"/>
       <use xlink:href="#ArialMT-2d" x="166.845703"/>
       <use xlink:href="#ArialMT-31" x="200.146484"/>
       <use xlink:href="#ArialMT-35" x="255.761719"/>
       <use xlink:href="#ArialMT-30" x="311.376953"/>
      </g>
     </g>
    </g>
    <g id="xtick_4">
     <g id="line2d_7">
      <path d="M 180.340361 500.026568 
L 180.340361 21.935625 
" clip-path="url(#pf3e84a874e)" style="fill: none; stroke: #ffffff; stroke-opacity: 0.3; stroke-linecap: round"/>
     </g>
     <g id="line2d_8"/>
     <g id="text_4">
      <!-- 150-200 -->
      <g style="fill: #262626" transform="translate(169.19459 538.03541) rotate(-45) scale(0.1 -0.1)">
       <defs>
        <path id="ArialMT-32" d="M 3222 541 
L 3222 0 
L 194 0 
Q 188 203 259 391 
Q 375 700 629 1000 
Q 884 1300 1366 1694 
Q 2113 2306 2375 2664 
Q 2638 3022 2638 3341 
Q 2638 3675 2398 3904 
Q 2159 4134 1775 4134 
Q 1369 4134 1125 3890 
Q 881 3647 878 3216 
L 300 3275 
Q 359 3922 746 4261 
Q 1134 4600 1788 4600 
Q 2447 4600 2831 4234 
Q 3216 3869 3216 3328 
Q 3216 3053 3103 2787 
Q 2991 2522 2730 2228 
Q 2469 1934 1863 1422 
Q 1356 997 1212 845 
Q 1069 694 975 541 
L 3222 541 
z
" transform="scale(0.015625)"/>
       </defs>
       <use xlink:href="#ArialMT-31"/>
       <use xlink:href="#ArialMT-35" x="55.615234"/>
       <use xlink:href="#ArialMT-30" x="111.230469"/>
       <use xlink:href="#ArialMT-2d" x="166.845703"/>
       <use xlink:href="#ArialMT-32" x="200.146484"/>
       <use xlink:href="#ArialMT-30" x="255.761719"/>
       <use xlink:href="#ArialMT-30" x="311.376953"/>
      </g>
     </g>
    </g>
    <g id="xtick_5">
     <g id="line2d_9">
      <path d="M 213.009163 500.026568 
L 213.009163 21.935625 
" clip-path="url(#pf3e84a874e)" style="fill: none; stroke: #ffffff; stroke-opacity: 0.3; stroke-linecap: round"/>
     </g>
     <g id="line2d_10"/>
     <g id="text_5">
      <!-- 200-250 -->
      <g style="fill: #262626" transform="translate(201.863393 538.03541) rotate(-45) scale(0.1 -0.1)">
       <use xlink:href="#ArialMT-32"/>
       <use xlink:href="#ArialMT-30" x="55.615234"/>
       <use xlink:href="#ArialMT-30" x="111.230469"/>
       <use xlink:href="#ArialMT-2d" x="166.845703"/>
       <use xlink:href="#ArialMT-32" x="200.146484"/>
       <use xlink:href="#ArialMT-35" x="255.761719"/>
       <use xlink:href="#ArialMT-30" x="311.376953"/>
      </g>
     </g>
    </g>
    <g id="xtick_6">
     <g id="line2d_11">
      <path d="M 245.677966 500.026568 
L 245.677966 21.935625 
" clip-path="url(#pf3e84a874e)" style="fill: none; stroke: #ffffff; stroke-opacity: 0.3; stroke-linecap: round"/>
     </g>
     <g id="line2d_12"/>
     <g id="text_6">
      <!-- 250-300 -->
      <g style="fill: #262626" transform="translate(234.532195 538.03541) rotate(-45) scale(0.1 -0.1)">
       <defs>
        <path id="ArialMT-33" d="M 269 1209 
L 831 1284 
Q 928 806 1161 595 
Q 1394 384 1728 384 
Q 2125 384 2398 659 
Q 2672 934 2672 1341 
Q 2672 1728 2419 1979 
Q 2166 2231 1775 2231 
Q 1616 2231 1378 2169 
L 1441 2663 
Q 1497 2656 1531 2656 
Q 1891 2656 2178 2843 
Q 2466 3031 2466 3422 
Q 2466 3731 2256 3934 
Q 2047 4138 1716 4138 
Q 1388 4138 1169 3931 
Q 950 3725 888 3313 
L 325 3413 
Q 428 3978 793 4289 
Q 1159 4600 1703 4600 
Q 2078 4600 2393 4439 
Q 2709 4278 2876 4000 
Q 3044 3722 3044 3409 
Q 3044 3113 2884 2869 
Q 2725 2625 2413 2481 
Q 2819 2388 3044 2092 
Q 3269 1797 3269 1353 
Q 3269 753 2831 336 
Q 2394 -81 1725 -81 
Q 1122 -81 723 278 
Q 325 638 269 1209 
z
" transform="scale(0.015625)"/>
       </defs>
       <use xlink:href="#ArialMT-32"/>
       <use xlink:href="#ArialMT-35" x="55.615234"/>
       <use xlink:href="#ArialMT-30" x="111.230469"/>
       <use xlink:href="#ArialMT-2d" x="166.845703"/>
       <use xlink:href="#ArialMT-33" x="200.146484"/>
       <use xlink:href="#ArialMT-30" x="255.761719"/>
       <use xlink:href="#ArialMT-30" x="311.376953"/>
      </g>
     </g>
    </g>
    <g id="xtick_7">
     <g id="line2d_13">
      <path d="M 278.346768 500.026568 
L 278.346768 21.935625 
" clip-path="url(#pf3e84a874e)" style="fill: none; stroke: #ffffff; stroke-opacity: 0.3; stroke-linecap: round"/>
     </g>
     <g id="line2d_14"/>
     <g id="text_7">
      <!-- 300-350 -->
      <g style="fill: #262626" transform="translate(267.200998 538.03541) rotate(-45) scale(0.1 -0.1)">
       <use xlink:href="#ArialMT-33"/>
       <use xlink:href="#ArialMT-30" x="55.615234"/>
       <use xlink:href="#ArialMT-30" x="111.230469"/>
       <use xlink:href="#ArialMT-2d" x="166.845703"/>
       <use xlink:href="#ArialMT-33" x="200.146484"/>
       <use xlink:href="#ArialMT-35" x="255.761719"/>
       <use xlink:href="#ArialMT-30" x="311.376953"/>
      </g>
     </g>
    </g>
    <g id="xtick_8">
     <g id="line2d_15">
      <path d="M 311.015571 500.026568 
L 311.015571 21.935625 
" clip-path="url(#pf3e84a874e)" style="fill: none; stroke: #ffffff; stroke-opacity: 0.3; stroke-linecap: round"/>
     </g>
     <g id="line2d_16"/>
     <g id="text_8">
      <!-- 350-400 -->
      <g style="fill: #262626" transform="translate(299.8698 538.03541) rotate(-45) scale(0.1 -0.1)">
       <defs>
        <path id="ArialMT-34" d="M 2069 0 
L 2069 1097 
L 81 1097 
L 81 1613 
L 2172 4581 
L 2631 4581 
L 2631 1613 
L 3250 1613 
L 3250 1097 
L 2631 1097 
L 2631 0 
L 2069 0 
z
M 2069 1613 
L 2069 3678 
L 634 1613 
L 2069 1613 
z
" transform="scale(0.015625)"/>
       </defs>
       <use xlink:href="#ArialMT-33"/>
       <use xlink:href="#ArialMT-35" x="55.615234"/>
       <use xlink:href="#ArialMT-30" x="111.230469"/>
       <use xlink:href="#ArialMT-2d" x="166.845703"/>
       <use xlink:href="#ArialMT-34" x="200.146484"/>
       <use xlink:href="#ArialMT-30" x="255.761719"/>
       <use xlink:href="#ArialMT-30" x="311.376953"/>
      </g>
     </g>
    </g>
    <g id="xtick_9">
     <g id="line2d_17">
      <path d="M 343.684374 500.026568 
L 343.684374 21.935625 
" clip-path="url(#pf3e84a874e)" style="fill: none; stroke: #ffffff; stroke-opacity: 0.3; stroke-linecap: round"/>
     </g>
     <g id="line2d_18"/>
     <g id="text_9">
      <!-- 400-450 -->
      <g style="fill: #262626" transform="translate(332.538603 538.03541) rotate(-45) scale(0.1 -0.1)">
       <use xlink:href="#ArialMT-34"/>
       <use xlink:href="#ArialMT-30" x="55.615234"/>
       <use xlink:href="#ArialMT-30" x="111.230469"/>
       <use xlink:href="#ArialMT-2d" x="166.845703"/>
       <use xlink:href="#ArialMT-34" x="200.146484"/>
       <use xlink:href="#ArialMT-35" x="255.761719"/>
       <use xlink:href="#ArialMT-30" x="311.376953"/>
      </g>
     </g>
    </g>
    <g id="xtick_10">
     <g id="line2d_19">
      <path d="M 376.353176 500.026568 
L 376.353176 21.935625 
" clip-path="url(#pf3e84a874e)" style="fill: none; stroke: #ffffff; stroke-opacity: 0.3; stroke-linecap: round"/>
     </g>
     <g id="line2d_20"/>
     <g id="text_10">
      <!-- 450-500 -->
      <g style="fill: #262626" transform="translate(365.207405 538.03541) rotate(-45) scale(0.1 -0.1)">
       <use xlink:href="#ArialMT-34"/>
       <use xlink:href="#ArialMT-35" x="55.615234"/>
       <use xlink:href="#ArialMT-30" x="111.230469"/>
       <use xlink:href="#ArialMT-2d" x="166.845703"/>
       <use xlink:href="#ArialMT-35" x="200.146484"/>
       <use xlink:href="#ArialMT-30" x="255.761719"/>
       <use xlink:href="#ArialMT-30" x="311.376953"/>
      </g>
     </g>
    </g>
    <g id="xtick_11">
     <g id="line2d_21">
      <path d="M 409.021979 500.026568 
L 409.021979 21.935625 
" clip-path="url(#pf3e84a874e)" style="fill: none; stroke: #ffffff; stroke-opacity: 0.3; stroke-linecap: round"/>
     </g>
     <g id="line2d_22"/>
     <g id="text_11">
      <!-- 500-550 -->
      <g style="fill: #262626" transform="translate(397.876208 538.03541) rotate(-45) scale(0.1 -0.1)">
       <use xlink:href="#ArialMT-35"/>
       <use xlink:href="#ArialMT-30" x="55.615234"/>
       <use xlink:href="#ArialMT-30" x="111.230469"/>
       <use xlink:href="#ArialMT-2d" x="166.845703"/>
       <use xlink:href="#ArialMT-35" x="200.146484"/>
       <use xlink:href="#ArialMT-35" x="255.761719"/>
       <use xlink:href="#ArialMT-30" x="311.376953"/>
      </g>
     </g>
    </g>
    <g id="xtick_12">
     <g id="line2d_23">
      <path d="M 441.690781 500.026568 
L 441.690781 21.935625 
" clip-path="url(#pf3e84a874e)" style="fill: none; stroke: #ffffff; stroke-opacity: 0.3; stroke-linecap: round"/>
     </g>
     <g id="line2d_24"/>
     <g id="text_12">
      <!-- 550-600 -->
      <g style="fill: #262626" transform="translate(430.545011 538.03541) rotate(-45) scale(0.1 -0.1)">
       <defs>
        <path id="ArialMT-36" d="M 3184 3459 
L 2625 3416 
Q 2550 3747 2413 3897 
Q 2184 4138 1850 4138 
Q 1581 4138 1378 3988 
Q 1113 3794 959 3422 
Q 806 3050 800 2363 
Q 1003 2672 1297 2822 
Q 1591 2972 1913 2972 
Q 2475 2972 2870 2558 
Q 3266 2144 3266 1488 
Q 3266 1056 3080 686 
Q 2894 316 2569 119 
Q 2244 -78 1831 -78 
Q 1128 -78 684 439 
Q 241 956 241 2144 
Q 241 3472 731 4075 
Q 1159 4600 1884 4600 
Q 2425 4600 2770 4297 
Q 3116 3994 3184 3459 
z
M 888 1484 
Q 888 1194 1011 928 
Q 1134 663 1356 523 
Q 1578 384 1822 384 
Q 2178 384 2434 671 
Q 2691 959 2691 1453 
Q 2691 1928 2437 2201 
Q 2184 2475 1800 2475 
Q 1419 2475 1153 2201 
Q 888 1928 888 1484 
z
" transform="scale(0.015625)"/>
       </defs>
       <use xlink:href="#ArialMT-35"/>
       <use xlink:href="#ArialMT-35" x="55.615234"/>
       <use xlink:href="#ArialMT-30" x="111.230469"/>
       <use xlink:href="#ArialMT-2d" x="166.845703"/>
       <use xlink:href="#ArialMT-36" x="200.146484"/>
       <use xlink:href="#ArialMT-30" x="255.761719"/>
       <use xlink:href="#ArialMT-30" x="311.376953"/>
      </g>
     </g>
    </g>
    <g id="xtick_13">
     <g id="line2d_25">
      <path d="M 474.359584 500.026568 
L 474.359584 21.935625 
" clip-path="url(#pf3e84a874e)" style="fill: none; stroke: #ffffff; stroke-opacity: 0.3; stroke-linecap: round"/>
     </g>
     <g id="line2d_26"/>
     <g id="text_13">
      <!-- 600-650 -->
      <g style="fill: #262626" transform="translate(463.213813 538.03541) rotate(-45) scale(0.1 -0.1)">
       <use xlink:href="#ArialMT-36"/>
       <use xlink:href="#ArialMT-30" x="55.615234"/>
       <use xlink:href="#ArialMT-30" x="111.230469"/>
       <use xlink:href="#ArialMT-2d" x="166.845703"/>
       <use xlink:href="#ArialMT-36" x="200.146484"/>
       <use xlink:href="#ArialMT-35" x="255.761719"/>
       <use xlink:href="#ArialMT-30" x="311.376953"/>
      </g>
     </g>
    </g>
    <g id="xtick_14">
     <g id="line2d_27">
      <path d="M 507.028386 500.026568 
L 507.028386 21.935625 
" clip-path="url(#pf3e84a874e)" style="fill: none; stroke: #ffffff; stroke-opacity: 0.3; stroke-linecap: round"/>
     </g>
     <g id="line2d_28"/>
     <g id="text_14">
      <!-- 650-700 -->
      <g style="fill: #262626" transform="translate(495.882616 538.03541) rotate(-45) scale(0.1 -0.1)">
       <defs>
        <path id="ArialMT-37" d="M 303 3981 
L 303 4522 
L 3269 4522 
L 3269 4084 
Q 2831 3619 2401 2847 
Q 1972 2075 1738 1259 
Q 1569 684 1522 0 
L 944 0 
Q 953 541 1156 1306 
Q 1359 2072 1739 2783 
Q 2119 3494 2547 3981 
L 303 3981 
z
" transform="scale(0.015625)"/>
       </defs>
       <use xlink:href="#ArialMT-36"/>
       <use xlink:href="#ArialMT-35" x="55.615234"/>
       <use xlink:href="#ArialMT-30" x="111.230469"/>
       <use xlink:href="#ArialMT-2d" x="166.845703"/>
       <use xlink:href="#ArialMT-37" x="200.146484"/>
       <use xlink:href="#ArialMT-30" x="255.761719"/>
       <use xlink:href="#ArialMT-30" x="311.376953"/>
      </g>
     </g>
    </g>
    <g id="xtick_15">
     <g id="line2d_29">
      <path d="M 539.697189 500.026568 
L 539.697189 21.935625 
" clip-path="url(#pf3e84a874e)" style="fill: none; stroke: #ffffff; stroke-opacity: 0.3; stroke-linecap: round"/>
     </g>
     <g id="line2d_30"/>
     <g id="text_15">
      <!-- 700-750 -->
      <g style="fill: #262626" transform="translate(528.551418 538.03541) rotate(-45) scale(0.1 -0.1)">
       <use xlink:href="#ArialMT-37"/>
       <use xlink:href="#ArialMT-30" x="55.615234"/>
       <use xlink:href="#ArialMT-30" x="111.230469"/>
       <use xlink:href="#ArialMT-2d" x="166.845703"/>
       <use xlink:href="#ArialMT-37" x="200.146484"/>
       <use xlink:href="#ArialMT-35" x="255.761719"/>
       <use xlink:href="#ArialMT-30" x="311.376953"/>
      </g>
     </g>
    </g>
    <g id="xtick_16">
     <g id="line2d_31">
      <path d="M 572.365992 500.026568 
L 572.365992 21.935625 
" clip-path="url(#pf3e84a874e)" style="fill: none; stroke: #ffffff; stroke-opacity: 0.3; stroke-linecap: round"/>
     </g>
     <g id="line2d_32"/>
     <g id="text_16">
      <!-- 750-800 -->
      <g style="fill: #262626" transform="translate(561.220221 538.03541) rotate(-45) scale(0.1 -0.1)">
       <defs>
        <path id="ArialMT-38" d="M 1131 2484 
Q 781 2613 612 2850 
Q 444 3088 444 3419 
Q 444 3919 803 4259 
Q 1163 4600 1759 4600 
Q 2359 4600 2725 4251 
Q 3091 3903 3091 3403 
Q 3091 3084 2923 2848 
Q 2756 2613 2416 2484 
Q 2838 2347 3058 2040 
Q 3278 1734 3278 1309 
Q 3278 722 2862 322 
Q 2447 -78 1769 -78 
Q 1091 -78 675 323 
Q 259 725 259 1325 
Q 259 1772 486 2073 
Q 713 2375 1131 2484 
z
M 1019 3438 
Q 1019 3113 1228 2906 
Q 1438 2700 1772 2700 
Q 2097 2700 2305 2904 
Q 2513 3109 2513 3406 
Q 2513 3716 2298 3927 
Q 2084 4138 1766 4138 
Q 1444 4138 1231 3931 
Q 1019 3725 1019 3438 
z
M 838 1322 
Q 838 1081 952 856 
Q 1066 631 1291 507 
Q 1516 384 1775 384 
Q 2178 384 2440 643 
Q 2703 903 2703 1303 
Q 2703 1709 2433 1975 
Q 2163 2241 1756 2241 
Q 1359 2241 1098 1978 
Q 838 1716 838 1322 
z
" transform="scale(0.015625)"/>
       </defs>
       <use xlink:href="#ArialMT-37"/>
       <use xlink:href="#ArialMT-35" x="55.615234"/>
       <use xlink:href="#ArialMT-30" x="111.230469"/>
       <use xlink:href="#ArialMT-2d" x="166.845703"/>
       <use xlink:href="#ArialMT-38" x="200.146484"/>
       <use xlink:href="#ArialMT-30" x="255.761719"/>
       <use xlink:href="#ArialMT-30" x="311.376953"/>
      </g>
     </g>
    </g>
    <g id="xtick_17">
     <g id="line2d_33">
      <path d="M 605.034794 500.026568 
L 605.034794 21.935625 
" clip-path="url(#pf3e84a874e)" style="fill: none; stroke: #ffffff; stroke-opacity: 0.3; stroke-linecap: round"/>
     </g>
     <g id="line2d_34"/>
     <g id="text_17">
      <!-- 800-850 -->
      <g style="fill: #262626" transform="translate(593.889023 538.03541) rotate(-45) scale(0.1 -0.1)">
       <use xlink:href="#ArialMT-38"/>
       <use xlink:href="#ArialMT-30" x="55.615234"/>
       <use xlink:href="#ArialMT-30" x="111.230469"/>
       <use xlink:href="#ArialMT-2d" x="166.845703"/>
       <use xlink:href="#ArialMT-38" x="200.146484"/>
       <use xlink:href="#ArialMT-35" x="255.761719"/>
       <use xlink:href="#ArialMT-30" x="311.376953"/>
      </g>
     </g>
    </g>
    <g id="xtick_18">
     <g id="line2d_35">
      <path d="M 637.703597 500.026568 
L 637.703597 21.935625 
" clip-path="url(#pf3e84a874e)" style="fill: none; stroke: #ffffff; stroke-opacity: 0.3; stroke-linecap: round"/>
     </g>
     <g id="line2d_36"/>
     <g id="text_18">
      <!-- 850-900 -->
      <g style="fill: #262626" transform="translate(626.557826 538.03541) rotate(-45) scale(0.1 -0.1)">
       <defs>
        <path id="ArialMT-39" d="M 350 1059 
L 891 1109 
Q 959 728 1153 556 
Q 1347 384 1650 384 
Q 1909 384 2104 503 
Q 2300 622 2425 820 
Q 2550 1019 2634 1356 
Q 2719 1694 2719 2044 
Q 2719 2081 2716 2156 
Q 2547 1888 2255 1720 
Q 1963 1553 1622 1553 
Q 1053 1553 659 1965 
Q 266 2378 266 3053 
Q 266 3750 677 4175 
Q 1088 4600 1706 4600 
Q 2153 4600 2523 4359 
Q 2894 4119 3086 3673 
Q 3278 3228 3278 2384 
Q 3278 1506 3087 986 
Q 2897 466 2520 194 
Q 2144 -78 1638 -78 
Q 1100 -78 759 220 
Q 419 519 350 1059 
z
M 2653 3081 
Q 2653 3566 2395 3850 
Q 2138 4134 1775 4134 
Q 1400 4134 1122 3828 
Q 844 3522 844 3034 
Q 844 2597 1108 2323 
Q 1372 2050 1759 2050 
Q 2150 2050 2401 2323 
Q 2653 2597 2653 3081 
z
" transform="scale(0.015625)"/>
       </defs>
       <use xlink:href="#ArialMT-38"/>
       <use xlink:href="#ArialMT-35" x="55.615234"/>
       <use xlink:href="#ArialMT-30" x="111.230469"/>
       <use xlink:href="#ArialMT-2d" x="166.845703"/>
       <use xlink:href="#ArialMT-39" x="200.146484"/>
       <use xlink:href="#ArialMT-30" x="255.761719"/>
       <use xlink:href="#ArialMT-30" x="311.376953"/>
      </g>
     </g>
    </g>
    <g id="xtick_19">
     <g id="line2d_37">
      <path d="M 670.372399 500.026568 
L 670.372399 21.935625 
" clip-path="url(#pf3e84a874e)" style="fill: none; stroke: #ffffff; stroke-opacity: 0.3; stroke-linecap: round"/>
     </g>
     <g id="line2d_38"/>
     <g id="text_19">
      <!-- 900-950 -->
      <g style="fill: #262626" transform="translate(659.226629 538.03541) rotate(-45) scale(0.1 -0.1)">
       <use xlink:href="#ArialMT-39"/>
       <use xlink:href="#ArialMT-30" x="55.615234"/>
       <use xlink:href="#ArialMT-30" x="111.230469"/>
       <use xlink:href="#ArialMT-2d" x="166.845703"/>
       <use xlink:href="#ArialMT-39" x="200.146484"/>
       <use xlink:href="#ArialMT-35" x="255.761719"/>
       <use xlink:href="#ArialMT-30" x="311.376953"/>
      </g>
     </g>
    </g>
    <g id="xtick_20">
     <g id="line2d_39">
      <path d="M 703.041202 500.026568 
L 703.041202 21.935625 
" clip-path="url(#pf3e84a874e)" style="fill: none; stroke: #ffffff; stroke-opacity: 0.3; stroke-linecap: round"/>
     </g>
     <g id="line2d_40"/>
     <g id="text_20">
      <!-- 950-1000 -->
      <g style="fill: #262626" transform="translate(689.929343 541.967587) rotate(-45) scale(0.1 -0.1)">
       <use xlink:href="#ArialMT-39"/>
       <use xlink:href="#ArialMT-35" x="55.615234"/>
       <use xlink:href="#ArialMT-30" x="111.230469"/>
       <use xlink:href="#ArialMT-2d" x="166.845703"/>
       <use xlink:href="#ArialMT-31" x="200.146484"/>
       <use xlink:href="#ArialMT-30" x="255.761719"/>
       <use xlink:href="#ArialMT-30" x="311.376953"/>
       <use xlink:href="#ArialMT-30" x="366.992188"/>
      </g>
     </g>
    </g>
    <g id="xtick_21">
     <g id="line2d_41">
      <path d="M 735.710004 500.026568 
L 735.710004 21.935625 
" clip-path="url(#pf3e84a874e)" style="fill: none; stroke: #ffffff; stroke-opacity: 0.3; stroke-linecap: round"/>
     </g>
     <g id="line2d_42"/>
     <g id="text_21">
      <!-- 1000-1050 -->
      <g style="fill: #262626" transform="translate(720.632057 545.899764) rotate(-45) scale(0.1 -0.1)">
       <use xlink:href="#ArialMT-31"/>
       <use xlink:href="#ArialMT-30" x="55.615234"/>
       <use xlink:href="#ArialMT-30" x="111.230469"/>
       <use xlink:href="#ArialMT-30" x="166.845703"/>
       <use xlink:href="#ArialMT-2d" x="222.460938"/>
       <use xlink:href="#ArialMT-31" x="255.761719"/>
       <use xlink:href="#ArialMT-30" x="311.376953"/>
       <use xlink:href="#ArialMT-35" x="366.992188"/>
       <use xlink:href="#ArialMT-30" x="422.607422"/>
      </g>
     </g>
    </g>
    <g id="xtick_22">
     <g id="line2d_43">
      <path d="M 768.378807 500.026568 
L 768.378807 21.935625 
" clip-path="url(#pf3e84a874e)" style="fill: none; stroke: #ffffff; stroke-opacity: 0.3; stroke-linecap: round"/>
     </g>
     <g id="line2d_44"/>
     <g id="text_22">
      <!-- 1050-1100 -->
      <g style="fill: #262626" transform="translate(753.561605 545.378272) rotate(-45) scale(0.1 -0.1)">
       <use xlink:href="#ArialMT-31"/>
       <use xlink:href="#ArialMT-30" x="55.615234"/>
       <use xlink:href="#ArialMT-35" x="111.230469"/>
       <use xlink:href="#ArialMT-30" x="166.845703"/>
       <use xlink:href="#ArialMT-2d" x="222.460938"/>
       <use xlink:href="#ArialMT-31" x="255.761719"/>
       <use xlink:href="#ArialMT-31" x="304.001953"/>
       <use xlink:href="#ArialMT-30" x="359.617188"/>
       <use xlink:href="#ArialMT-30" x="415.232422"/>
      </g>
     </g>
    </g>
    <g id="xtick_23">
     <g id="line2d_45">
      <path d="M 801.047609 500.026568 
L 801.047609 21.935625 
" clip-path="url(#pf3e84a874e)" style="fill: none; stroke: #ffffff; stroke-opacity: 0.3; stroke-linecap: round"/>
     </g>
     <g id="line2d_46"/>
     <g id="text_23">
      <!-- 1100-1150 -->
      <g style="fill: #262626" transform="translate(786.491153 544.856781) rotate(-45) scale(0.1 -0.1)">
       <use xlink:href="#ArialMT-31"/>
       <use xlink:href="#ArialMT-31" x="48.240234"/>
       <use xlink:href="#ArialMT-30" x="103.855469"/>
       <use xlink:href="#ArialMT-30" x="159.470703"/>
       <use xlink:href="#ArialMT-2d" x="215.085938"/>
       <use xlink:href="#ArialMT-31" x="248.386719"/>
       <use xlink:href="#ArialMT-31" x="296.626953"/>
       <use xlink:href="#ArialMT-35" x="352.242188"/>
       <use xlink:href="#ArialMT-30" x="407.857422"/>
      </g>
     </g>
    </g>
    <g id="text_24">
     <!-- Distance Range from Roads (km) -->
     <g style="fill: #262626" transform="translate(360.084531 559.312795) scale(0.11 -0.11)">
      <defs>
       <path id="ArialMT-44" d="M 494 0 
L 494 4581 
L 2072 4581 
Q 2606 4581 2888 4516 
Q 3281 4425 3559 4188 
Q 3922 3881 4101 3404 
Q 4281 2928 4281 2316 
Q 4281 1794 4159 1391 
Q 4038 988 3847 723 
Q 3656 459 3429 307 
Q 3203 156 2883 78 
Q 2563 0 2147 0 
L 494 0 
z
M 1100 541 
L 2078 541 
Q 2531 541 2789 625 
Q 3047 709 3200 863 
Q 3416 1078 3536 1442 
Q 3656 1806 3656 2325 
Q 3656 3044 3420 3430 
Q 3184 3816 2847 3947 
Q 2603 4041 2063 4041 
L 1100 4041 
L 1100 541 
z
" transform="scale(0.015625)"/>
       <path id="ArialMT-69" d="M 425 3934 
L 425 4581 
L 988 4581 
L 988 3934 
L 425 3934 
z
M 425 0 
L 425 3319 
L 988 3319 
L 988 0 
L 425 0 
z
" transform="scale(0.015625)"/>
       <path id="ArialMT-73" d="M 197 991 
L 753 1078 
Q 800 744 1014 566 
Q 1228 388 1613 388 
Q 2000 388 2187 545 
Q 2375 703 2375 916 
Q 2375 1106 2209 1216 
Q 2094 1291 1634 1406 
Q 1016 1563 777 1677 
Q 538 1791 414 1992 
Q 291 2194 291 2438 
Q 291 2659 392 2848 
Q 494 3038 669 3163 
Q 800 3259 1026 3326 
Q 1253 3394 1513 3394 
Q 1903 3394 2198 3281 
Q 2494 3169 2634 2976 
Q 2775 2784 2828 2463 
L 2278 2388 
Q 2241 2644 2061 2787 
Q 1881 2931 1553 2931 
Q 1166 2931 1000 2803 
Q 834 2675 834 2503 
Q 834 2394 903 2306 
Q 972 2216 1119 2156 
Q 1203 2125 1616 2013 
Q 2213 1853 2448 1751 
Q 2684 1650 2818 1456 
Q 2953 1263 2953 975 
Q 2953 694 2789 445 
Q 2625 197 2315 61 
Q 2006 -75 1616 -75 
Q 969 -75 630 194 
Q 291 463 197 991 
z
" transform="scale(0.015625)"/>
       <path id="ArialMT-74" d="M 1650 503 
L 1731 6 
Q 1494 -44 1306 -44 
Q 1000 -44 831 53 
Q 663 150 594 308 
Q 525 466 525 972 
L 525 2881 
L 113 2881 
L 113 3319 
L 525 3319 
L 525 4141 
L 1084 4478 
L 1084 3319 
L 1650 3319 
L 1650 2881 
L 1084 2881 
L 1084 941 
Q 1084 700 1114 631 
Q 1144 563 1211 522 
Q 1278 481 1403 481 
Q 1497 481 1650 503 
z
" transform="scale(0.015625)"/>
       <path id="ArialMT-61" d="M 2588 409 
Q 2275 144 1986 34 
Q 1697 -75 1366 -75 
Q 819 -75 525 192 
Q 231 459 231 875 
Q 231 1119 342 1320 
Q 453 1522 633 1644 
Q 813 1766 1038 1828 
Q 1203 1872 1538 1913 
Q 2219 1994 2541 2106 
Q 2544 2222 2544 2253 
Q 2544 2597 2384 2738 
Q 2169 2928 1744 2928 
Q 1347 2928 1158 2789 
Q 969 2650 878 2297 
L 328 2372 
Q 403 2725 575 2942 
Q 747 3159 1072 3276 
Q 1397 3394 1825 3394 
Q 2250 3394 2515 3294 
Q 2781 3194 2906 3042 
Q 3031 2891 3081 2659 
Q 3109 2516 3109 2141 
L 3109 1391 
Q 3109 606 3145 398 
Q 3181 191 3288 0 
L 2700 0 
Q 2613 175 2588 409 
z
M 2541 1666 
Q 2234 1541 1622 1453 
Q 1275 1403 1131 1340 
Q 988 1278 909 1158 
Q 831 1038 831 891 
Q 831 666 1001 516 
Q 1172 366 1500 366 
Q 1825 366 2078 508 
Q 2331 650 2450 897 
Q 2541 1088 2541 1459 
L 2541 1666 
z
" transform="scale(0.015625)"/>
       <path id="ArialMT-6e" d="M 422 0 
L 422 3319 
L 928 3319 
L 928 2847 
Q 1294 3394 1984 3394 
Q 2284 3394 2536 3286 
Q 2788 3178 2913 3003 
Q 3038 2828 3088 2588 
Q 3119 2431 3119 2041 
L 3119 0 
L 2556 0 
L 2556 2019 
Q 2556 2363 2490 2533 
Q 2425 2703 2258 2804 
Q 2091 2906 1866 2906 
Q 1506 2906 1245 2678 
Q 984 2450 984 1813 
L 984 0 
L 422 0 
z
" transform="scale(0.015625)"/>
       <path id="ArialMT-63" d="M 2588 1216 
L 3141 1144 
Q 3050 572 2676 248 
Q 2303 -75 1759 -75 
Q 1078 -75 664 370 
Q 250 816 250 1647 
Q 250 2184 428 2587 
Q 606 2991 970 3192 
Q 1334 3394 1763 3394 
Q 2303 3394 2647 3120 
Q 2991 2847 3088 2344 
L 2541 2259 
Q 2463 2594 2264 2762 
Q 2066 2931 1784 2931 
Q 1359 2931 1093 2626 
Q 828 2322 828 1663 
Q 828 994 1084 691 
Q 1341 388 1753 388 
Q 2084 388 2306 591 
Q 2528 794 2588 1216 
z
" transform="scale(0.015625)"/>
       <path id="ArialMT-65" d="M 2694 1069 
L 3275 997 
Q 3138 488 2766 206 
Q 2394 -75 1816 -75 
Q 1088 -75 661 373 
Q 234 822 234 1631 
Q 234 2469 665 2931 
Q 1097 3394 1784 3394 
Q 2450 3394 2872 2941 
Q 3294 2488 3294 1666 
Q 3294 1616 3291 1516 
L 816 1516 
Q 847 969 1125 678 
Q 1403 388 1819 388 
Q 2128 388 2347 550 
Q 2566 713 2694 1069 
z
M 847 1978 
L 2700 1978 
Q 2663 2397 2488 2606 
Q 2219 2931 1791 2931 
Q 1403 2931 1139 2672 
Q 875 2413 847 1978 
z
" transform="scale(0.015625)"/>
       <path id="ArialMT-20" transform="scale(0.015625)"/>
       <path id="ArialMT-52" d="M 503 0 
L 503 4581 
L 2534 4581 
Q 3147 4581 3465 4457 
Q 3784 4334 3975 4021 
Q 4166 3709 4166 3331 
Q 4166 2844 3850 2509 
Q 3534 2175 2875 2084 
Q 3116 1969 3241 1856 
Q 3506 1613 3744 1247 
L 4541 0 
L 3778 0 
L 3172 953 
Q 2906 1366 2734 1584 
Q 2563 1803 2427 1890 
Q 2291 1978 2150 2013 
Q 2047 2034 1813 2034 
L 1109 2034 
L 1109 0 
L 503 0 
z
M 1109 2559 
L 2413 2559 
Q 2828 2559 3062 2645 
Q 3297 2731 3419 2920 
Q 3541 3109 3541 3331 
Q 3541 3656 3305 3865 
Q 3069 4075 2559 4075 
L 1109 4075 
L 1109 2559 
z
" transform="scale(0.015625)"/>
       <path id="ArialMT-67" d="M 319 -275 
L 866 -356 
Q 900 -609 1056 -725 
Q 1266 -881 1628 -881 
Q 2019 -881 2231 -725 
Q 2444 -569 2519 -288 
Q 2563 -116 2559 434 
Q 2191 0 1641 0 
Q 956 0 581 494 
Q 206 988 206 1678 
Q 206 2153 378 2554 
Q 550 2956 876 3175 
Q 1203 3394 1644 3394 
Q 2231 3394 2613 2919 
L 2613 3319 
L 3131 3319 
L 3131 450 
Q 3131 -325 2973 -648 
Q 2816 -972 2473 -1159 
Q 2131 -1347 1631 -1347 
Q 1038 -1347 672 -1080 
Q 306 -813 319 -275 
z
M 784 1719 
Q 784 1066 1043 766 
Q 1303 466 1694 466 
Q 2081 466 2343 764 
Q 2606 1063 2606 1700 
Q 2606 2309 2336 2618 
Q 2066 2928 1684 2928 
Q 1309 2928 1046 2623 
Q 784 2319 784 1719 
z
" transform="scale(0.015625)"/>
       <path id="ArialMT-66" d="M 556 0 
L 556 2881 
L 59 2881 
L 59 3319 
L 556 3319 
L 556 3672 
Q 556 4006 616 4169 
Q 697 4388 901 4523 
Q 1106 4659 1475 4659 
Q 1713 4659 2000 4603 
L 1916 4113 
Q 1741 4144 1584 4144 
Q 1328 4144 1222 4034 
Q 1116 3925 1116 3625 
L 1116 3319 
L 1763 3319 
L 1763 2881 
L 1116 2881 
L 1116 0 
L 556 0 
z
" transform="scale(0.015625)"/>
       <path id="ArialMT-72" d="M 416 0 
L 416 3319 
L 922 3319 
L 922 2816 
Q 1116 3169 1280 3281 
Q 1444 3394 1641 3394 
Q 1925 3394 2219 3213 
L 2025 2691 
Q 1819 2813 1613 2813 
Q 1428 2813 1281 2702 
Q 1134 2591 1072 2394 
Q 978 2094 978 1738 
L 978 0 
L 416 0 
z
" transform="scale(0.015625)"/>
       <path id="ArialMT-6f" d="M 213 1659 
Q 213 2581 725 3025 
Q 1153 3394 1769 3394 
Q 2453 3394 2887 2945 
Q 3322 2497 3322 1706 
Q 3322 1066 3130 698 
Q 2938 331 2570 128 
Q 2203 -75 1769 -75 
Q 1072 -75 642 372 
Q 213 819 213 1659 
z
M 791 1659 
Q 791 1022 1069 705 
Q 1347 388 1769 388 
Q 2188 388 2466 706 
Q 2744 1025 2744 1678 
Q 2744 2294 2464 2611 
Q 2184 2928 1769 2928 
Q 1347 2928 1069 2612 
Q 791 2297 791 1659 
z
" transform="scale(0.015625)"/>
       <path id="ArialMT-6d" d="M 422 0 
L 422 3319 
L 925 3319 
L 925 2853 
Q 1081 3097 1340 3245 
Q 1600 3394 1931 3394 
Q 2300 3394 2536 3241 
Q 2772 3088 2869 2813 
Q 3263 3394 3894 3394 
Q 4388 3394 4653 3120 
Q 4919 2847 4919 2278 
L 4919 0 
L 4359 0 
L 4359 2091 
Q 4359 2428 4304 2576 
Q 4250 2725 4106 2815 
Q 3963 2906 3769 2906 
Q 3419 2906 3187 2673 
Q 2956 2441 2956 1928 
L 2956 0 
L 2394 0 
L 2394 2156 
Q 2394 2531 2256 2718 
Q 2119 2906 1806 2906 
Q 1569 2906 1367 2781 
Q 1166 2656 1075 2415 
Q 984 2175 984 1722 
L 984 0 
L 422 0 
z
" transform="scale(0.015625)"/>
       <path id="ArialMT-64" d="M 2575 0 
L 2575 419 
Q 2259 -75 1647 -75 
Q 1250 -75 917 144 
Q 584 363 401 755 
Q 219 1147 219 1656 
Q 219 2153 384 2558 
Q 550 2963 881 3178 
Q 1213 3394 1622 3394 
Q 1922 3394 2156 3267 
Q 2391 3141 2538 2938 
L 2538 4581 
L 3097 4581 
L 3097 0 
L 2575 0 
z
M 797 1656 
Q 797 1019 1065 703 
Q 1334 388 1700 388 
Q 2069 388 2326 689 
Q 2584 991 2584 1609 
Q 2584 2291 2321 2609 
Q 2059 2928 1675 2928 
Q 1300 2928 1048 2622 
Q 797 2316 797 1656 
z
" transform="scale(0.015625)"/>
       <path id="ArialMT-28" d="M 1497 -1347 
Q 1031 -759 709 28 
Q 388 816 388 1659 
Q 388 2403 628 3084 
Q 909 3875 1497 4659 
L 1900 4659 
Q 1522 4009 1400 3731 
Q 1209 3300 1100 2831 
Q 966 2247 966 1656 
Q 966 153 1900 -1347 
L 1497 -1347 
z
" transform="scale(0.015625)"/>
       <path id="ArialMT-6b" d="M 425 0 
L 425 4581 
L 988 4581 
L 988 1969 
L 2319 3319 
L 3047 3319 
L 1778 2088 
L 3175 0 
L 2481 0 
L 1384 1697 
L 988 1316 
L 988 0 
L 425 0 
z
" transform="scale(0.015625)"/>
       <path id="ArialMT-29" d="M 791 -1347 
L 388 -1347 
Q 1322 153 1322 1656 
Q 1322 2244 1188 2822 
Q 1081 3291 891 3722 
Q 769 4003 388 4659 
L 791 4659 
Q 1378 3875 1659 3084 
Q 1900 2403 1900 1659 
Q 1900 816 1576 28 
Q 1253 -759 791 -1347 
z
" transform="scale(0.015625)"/>
      </defs>
      <use xlink:href="#ArialMT-44"/>
      <use xlink:href="#ArialMT-69" x="72.216797"/>
      <use xlink:href="#ArialMT-73" x="94.433594"/>
      <use xlink:href="#ArialMT-74" x="144.433594"/>
      <use xlink:href="#ArialMT-61" x="172.216797"/>
      <use xlink:href="#ArialMT-6e" x="227.832031"/>
      <use xlink:href="#ArialMT-63" x="283.447266"/>
      <use xlink:href="#ArialMT-65" x="333.447266"/>
      <use xlink:href="#ArialMT-20" x="389.0625"/>
      <use xlink:href="#ArialMT-52" x="416.845703"/>
      <use xlink:href="#ArialMT-61" x="489.0625"/>
      <use xlink:href="#ArialMT-6e" x="544.677734"/>
      <use xlink:href="#ArialMT-67" x="600.292969"/>
      <use xlink:href="#ArialMT-65" x="655.908203"/>
      <use xlink:href="#ArialMT-20" x="711.523438"/>
      <use xlink:href="#ArialMT-66" x="739.306641"/>
      <use xlink:href="#ArialMT-72" x="767.089844"/>
      <use xlink:href="#ArialMT-6f" x="800.390625"/>
      <use xlink:href="#ArialMT-6d" x="856.005859"/>
      <use xlink:href="#ArialMT-20" x="939.306641"/>
      <use xlink:href="#ArialMT-52" x="967.089844"/>
      <use xlink:href="#ArialMT-6f" x="1039.306641"/>
      <use xlink:href="#ArialMT-61" x="1094.921875"/>
      <use xlink:href="#ArialMT-64" x="1150.537109"/>
      <use xlink:href="#ArialMT-73" x="1206.152344"/>
      <use xlink:href="#ArialMT-20" x="1256.152344"/>
      <use xlink:href="#ArialMT-28" x="1283.935547"/>
      <use xlink:href="#ArialMT-6b" x="1317.236328"/>
      <use xlink:href="#ArialMT-6d" x="1367.236328"/>
      <use xlink:href="#ArialMT-29" x="1450.537109"/>
     </g>
    </g>
   </g>
   <g id="matplotlib.axis_2">
    <g id="ytick_1">
     <g id="line2d_47">
      <path d="M 33.820781 500.026568 
L 849.560781 500.026568 
" clip-path="url(#pf3e84a874e)" style="fill: none; stroke: #ffffff; stroke-opacity: 0.3; stroke-linecap: round"/>
     </g>
     <g id="line2d_48"/>
     <g id="text_25">
      <!-- 0 -->
      <g style="fill: #262626" transform="translate(21.259844 503.605474) scale(0.1 -0.1)">
       <use xlink:href="#ArialMT-30"/>
      </g>
     </g>
    </g>
    <g id="ytick_2">
     <g id="line2d_49">
      <path d="M 33.820781 402.340792 
L 849.560781 402.340792 
" clip-path="url(#pf3e84a874e)" style="fill: none; stroke: #ffffff; stroke-opacity: 0.3; stroke-linecap: round"/>
     </g>
     <g id="line2d_50"/>
     <g id="text_26">
      <!-- 2 -->
      <g style="fill: #262626" transform="translate(21.259844 405.919698) scale(0.1 -0.1)">
       <use xlink:href="#ArialMT-32"/>
      </g>
     </g>
    </g>
    <g id="ytick_3">
     <g id="line2d_51">
      <path d="M 33.820781 304.655015 
L 849.560781 304.655015 
" clip-path="url(#pf3e84a874e)" style="fill: none; stroke: #ffffff; stroke-opacity: 0.3; stroke-linecap: round"/>
     </g>
     <g id="line2d_52"/>
     <g id="text_27">
      <!-- 4 -->
      <g style="fill: #262626" transform="translate(21.259844 308.233922) scale(0.1 -0.1)">
       <use xlink:href="#ArialMT-34"/>
      </g>
     </g>
    </g>
    <g id="ytick_4">
     <g id="line2d_53">
      <path d="M 33.820781 206.969239 
L 849.560781 206.969239 
" clip-path="url(#pf3e84a874e)" style="fill: none; stroke: #ffffff; stroke-opacity: 0.3; stroke-linecap: round"/>
     </g>
     <g id="line2d_54"/>
     <g id="text_28">
      <!-- 6 -->
      <g style="fill: #262626" transform="translate(21.259844 210.548145) scale(0.1 -0.1)">
       <use xlink:href="#ArialMT-36"/>
      </g>
     </g>
    </g>
    <g id="ytick_5">
     <g id="line2d_55">
      <path d="M 33.820781 109.283462 
L 849.560781 109.283462 
" clip-path="url(#pf3e84a874e)" style="fill: none; stroke: #ffffff; stroke-opacity: 0.3; stroke-linecap: round"/>
     </g>
     <g id="line2d_56"/>
     <g id="text_29">
      <!-- 8 -->
      <g style="fill: #262626" transform="translate(21.259844 112.862369) scale(0.1 -0.1)">
       <use xlink:href="#ArialMT-38"/>
      </g>
     </g>
    </g>
    <g id="text_30">
     <!-- Total Population -->
     <g style="fill: #262626" transform="translate(15.073594 300.115315) rotate(-90) scale(0.11 -0.11)">
      <defs>
       <path id="ArialMT-54" d="M 1659 0 
L 1659 4041 
L 150 4041 
L 150 4581 
L 3781 4581 
L 3781 4041 
L 2266 4041 
L 2266 0 
L 1659 0 
z
" transform="scale(0.015625)"/>
       <path id="ArialMT-6c" d="M 409 0 
L 409 4581 
L 972 4581 
L 972 0 
L 409 0 
z
" transform="scale(0.015625)"/>
       <path id="ArialMT-50" d="M 494 0 
L 494 4581 
L 2222 4581 
Q 2678 4581 2919 4538 
Q 3256 4481 3484 4323 
Q 3713 4166 3852 3881 
Q 3991 3597 3991 3256 
Q 3991 2672 3619 2267 
Q 3247 1863 2275 1863 
L 1100 1863 
L 1100 0 
L 494 0 
z
M 1100 2403 
L 2284 2403 
Q 2872 2403 3119 2622 
Q 3366 2841 3366 3238 
Q 3366 3525 3220 3729 
Q 3075 3934 2838 4000 
Q 2684 4041 2272 4041 
L 1100 4041 
L 1100 2403 
z
" transform="scale(0.015625)"/>
       <path id="ArialMT-70" d="M 422 -1272 
L 422 3319 
L 934 3319 
L 934 2888 
Q 1116 3141 1344 3267 
Q 1572 3394 1897 3394 
Q 2322 3394 2647 3175 
Q 2972 2956 3137 2557 
Q 3303 2159 3303 1684 
Q 3303 1175 3120 767 
Q 2938 359 2589 142 
Q 2241 -75 1856 -75 
Q 1575 -75 1351 44 
Q 1128 163 984 344 
L 984 -1272 
L 422 -1272 
z
M 931 1641 
Q 931 1000 1190 694 
Q 1450 388 1819 388 
Q 2194 388 2461 705 
Q 2728 1022 2728 1688 
Q 2728 2322 2467 2637 
Q 2206 2953 1844 2953 
Q 1484 2953 1207 2617 
Q 931 2281 931 1641 
z
" transform="scale(0.015625)"/>
       <path id="ArialMT-75" d="M 2597 0 
L 2597 488 
Q 2209 -75 1544 -75 
Q 1250 -75 995 37 
Q 741 150 617 320 
Q 494 491 444 738 
Q 409 903 409 1263 
L 409 3319 
L 972 3319 
L 972 1478 
Q 972 1038 1006 884 
Q 1059 663 1231 536 
Q 1403 409 1656 409 
Q 1909 409 2131 539 
Q 2353 669 2445 892 
Q 2538 1116 2538 1541 
L 2538 3319 
L 3100 3319 
L 3100 0 
L 2597 0 
z
" transform="scale(0.015625)"/>
      </defs>
      <use xlink:href="#ArialMT-54"/>
      <use xlink:href="#ArialMT-6f" x="49.958984"/>
      <use xlink:href="#ArialMT-74" x="105.574219"/>
      <use xlink:href="#ArialMT-61" x="133.357422"/>
      <use xlink:href="#ArialMT-6c" x="188.972656"/>
      <use xlink:href="#ArialMT-20" x="211.189453"/>
      <use xlink:href="#ArialMT-50" x="238.972656"/>
      <use xlink:href="#ArialMT-6f" x="305.671875"/>
      <use xlink:href="#ArialMT-70" x="361.287109"/>
      <use xlink:href="#ArialMT-75" x="416.902344"/>
      <use xlink:href="#ArialMT-6c" x="472.517578"/>
      <use xlink:href="#ArialMT-61" x="494.734375"/>
      <use xlink:href="#ArialMT-74" x="550.349609"/>
      <use xlink:href="#ArialMT-69" x="578.132812"/>
      <use xlink:href="#ArialMT-6f" x="600.349609"/>
      <use xlink:href="#ArialMT-6e" x="655.964844"/>
     </g>
    </g>
    <g id="text_31">
     <!-- 1e8 -->
     <g style="fill: #262626" transform="translate(33.820781 18.935625) scale(0.1 -0.1)">
      <use xlink:href="#ArialMT-31"/>
      <use xlink:href="#ArialMT-65" x="55.615234"/>
      <use xlink:href="#ArialMT-38" x="111.230469"/>
     </g>
    </g>
   </g>
   <g id="patch_3">
    <path d="M 70.899872 500.026568 
L 82.333953 500.026568 
L 82.333953 376.47668 
L 70.899872 376.47668 
z
" clip-path="url(#pf3e84a874e)" style="fill: #008000; opacity: 0.8"/>
   </g>
   <g id="patch_4">
    <path d="M 103.568675 500.026568 
L 115.002756 500.026568 
L 115.002756 465.223787 
L 103.568675 465.223787 
z
" clip-path="url(#pf3e84a874e)" style="fill: #008000; opacity: 0.8"/>
   </g>
   <g id="patch_5">
    <path d="M 136.237477 500.026568 
L 147.671558 500.026568 
L 147.671558 485.119313 
L 136.237477 485.119313 
z
" clip-path="url(#pf3e84a874e)" style="fill: #008000; opacity: 0.8"/>
   </g>
   <g id="patch_6">
    <path d="M 168.90628 500.026568 
L 180.340361 500.026568 
L 180.340361 492.499058 
L 168.90628 492.499058 
z
" clip-path="url(#pf3e84a874e)" style="fill: #008000; opacity: 0.8"/>
   </g>
   <g id="patch_7">
    <path d="M 201.575082 500.026568 
L 213.009163 500.026568 
L 213.009163 496.645061 
L 201.575082 496.645061 
z
" clip-path="url(#pf3e84a874e)" style="fill: #008000; opacity: 0.8"/>
   </g>
   <g id="patch_8">
    <path d="M 234.243885 500.026568 
L 245.677966 500.026568 
L 245.677966 498.061175 
L 234.243885 498.061175 
z
" clip-path="url(#pf3e84a874e)" style="fill: #008000; opacity: 0.8"/>
   </g>
   <g id="patch_9">
    <path d="M 266.912688 500.026568 
L 278.346768 500.026568 
L 278.346768 498.302458 
L 266.912688 498.302458 
z
" clip-path="url(#pf3e84a874e)" style="fill: #008000; opacity: 0.8"/>
   </g>
   <g id="patch_10">
    <path d="M 299.58149 500.026568 
L 311.015571 500.026568 
L 311.015571 498.407983 
L 299.58149 498.407983 
z
" clip-path="url(#pf3e84a874e)" style="fill: #008000; opacity: 0.8"/>
   </g>
   <g id="patch_11">
    <path d="M 332.250293 500.026568 
L 343.684374 500.026568 
L 343.684374 498.965427 
L 332.250293 498.965427 
z
" clip-path="url(#pf3e84a874e)" style="fill: #008000; opacity: 0.8"/>
   </g>
   <g id="patch_12">
    <path d="M 364.919095 500.026568 
L 376.353176 500.026568 
L 376.353176 499.197821 
L 364.919095 499.197821 
z
" clip-path="url(#pf3e84a874e)" style="fill: #008000; opacity: 0.8"/>
   </g>
   <g id="patch_13">
    <path d="M 397.587898 500.026568 
L 409.021979 500.026568 
L 409.021979 499.563213 
L 397.587898 499.563213 
z
" clip-path="url(#pf3e84a874e)" style="fill: #008000; opacity: 0.8"/>
   </g>
   <g id="patch_14">
    <path d="M 430.2567 500.026568 
L 441.690781 500.026568 
L 441.690781 499.606356 
L 430.2567 499.606356 
z
" clip-path="url(#pf3e84a874e)" style="fill: #008000; opacity: 0.8"/>
   </g>
   <g id="patch_15">
    <path d="M 462.925503 500.026568 
L 474.359584 500.026568 
L 474.359584 499.593496 
L 462.925503 499.593496 
z
" clip-path="url(#pf3e84a874e)" style="fill: #008000; opacity: 0.8"/>
   </g>
   <g id="patch_16">
    <path d="M 495.594305 500.026568 
L 507.028386 500.026568 
L 507.028386 499.574214 
L 495.594305 499.574214 
z
" clip-path="url(#pf3e84a874e)" style="fill: #008000; opacity: 0.8"/>
   </g>
   <g id="patch_17">
    <path d="M 528.263108 500.026568 
L 539.697189 500.026568 
L 539.697189 499.886467 
L 528.263108 499.886467 
z
" clip-path="url(#pf3e84a874e)" style="fill: #008000; opacity: 0.8"/>
   </g>
   <g id="patch_18">
    <path d="M 560.931911 500.026568 
L 572.365992 500.026568 
L 572.365992 499.970825 
L 560.931911 499.970825 
z
" clip-path="url(#pf3e84a874e)" style="fill: #008000; opacity: 0.8"/>
   </g>
   <g id="patch_19">
    <path d="M 593.600713 500.026568 
L 605.034794 500.026568 
L 605.034794 499.998424 
L 593.600713 499.998424 
z
" clip-path="url(#pf3e84a874e)" style="fill: #008000; opacity: 0.8"/>
   </g>
   <g id="patch_20">
    <path d="M 626.269516 500.026568 
L 637.703597 500.026568 
L 637.703597 500.008425 
L 626.269516 500.008425 
z
" clip-path="url(#pf3e84a874e)" style="fill: #008000; opacity: 0.8"/>
   </g>
   <g id="patch_21">
    <path d="M 658.938318 500.026568 
L 670.372399 500.026568 
L 670.372399 500.023638 
L 658.938318 500.023638 
z
" clip-path="url(#pf3e84a874e)" style="fill: #008000; opacity: 0.8"/>
   </g>
   <g id="patch_22">
    <path d="M 691.607121 500.026568 
L 703.041202 500.026568 
L 703.041202 500.023244 
L 691.607121 500.023244 
z
" clip-path="url(#pf3e84a874e)" style="fill: #008000; opacity: 0.8"/>
   </g>
   <g id="patch_23">
    <path d="M 724.275923 500.026568 
L 735.710004 500.026568 
L 735.710004 500.022731 
L 724.275923 500.022731 
z
" clip-path="url(#pf3e84a874e)" style="fill: #008000; opacity: 0.8"/>
   </g>
   <g id="patch_24">
    <path d="M 756.944726 500.026568 
L 768.378807 500.026568 
L 768.378807 500.021749 
L 756.944726 500.021749 
z
" clip-path="url(#pf3e84a874e)" style="fill: #008000; opacity: 0.8"/>
   </g>
   <g id="patch_25">
    <path d="M 789.613529 500.026568 
L 801.047609 500.026568 
L 801.047609 500.024208 
L 789.613529 500.024208 
z
" clip-path="url(#pf3e84a874e)" style="fill: #008000; opacity: 0.8"/>
   </g>
   <g id="patch_26">
    <path d="M 82.333953 500.026568 
L 93.768034 500.026568 
L 93.768034 44.70186 
L 82.333953 44.70186 
z
" clip-path="url(#pf3e84a874e)" style="fill: #0000ff; opacity: 0.8"/>
   </g>
   <g id="patch_27">
    <path d="M 115.002756 500.026568 
L 126.436837 500.026568 
L 126.436837 447.86956 
L 115.002756 447.86956 
z
" clip-path="url(#pf3e84a874e)" style="fill: #0000ff; opacity: 0.8"/>
   </g>
   <g id="patch_28">
    <path d="M 147.671558 500.026568 
L 159.105639 500.026568 
L 159.105639 479.065612 
L 147.671558 479.065612 
z
" clip-path="url(#pf3e84a874e)" style="fill: #0000ff; opacity: 0.8"/>
   </g>
   <g id="patch_29">
    <path d="M 180.340361 500.026568 
L 191.774442 500.026568 
L 191.774442 489.412492 
L 180.340361 489.412492 
z
" clip-path="url(#pf3e84a874e)" style="fill: #0000ff; opacity: 0.8"/>
   </g>
   <g id="patch_30">
    <path d="M 213.009163 500.026568 
L 224.443244 500.026568 
L 224.443244 496.294 
L 213.009163 496.294 
z
" clip-path="url(#pf3e84a874e)" style="fill: #0000ff; opacity: 0.8"/>
   </g>
   <g id="patch_31">
    <path d="M 245.677966 500.026568 
L 257.112047 500.026568 
L 257.112047 497.619949 
L 245.677966 497.619949 
z
" clip-path="url(#pf3e84a874e)" style="fill: #0000ff; opacity: 0.8"/>
   </g>
   <g id="patch_32">
    <path d="M 278.346768 500.026568 
L 289.780849 500.026568 
L 289.780849 498.300766 
L 278.346768 498.300766 
z
" clip-path="url(#pf3e84a874e)" style="fill: #0000ff; opacity: 0.8"/>
   </g>
   <g id="patch_33">
    <path d="M 311.015571 500.026568 
L 322.449652 500.026568 
L 322.449652 497.071695 
L 311.015571 497.071695 
z
" clip-path="url(#pf3e84a874e)" style="fill: #0000ff; opacity: 0.8"/>
   </g>
   <g id="patch_34">
    <path d="M 343.684374 500.026568 
L 355.118454 500.026568 
L 355.118454 498.888206 
L 343.684374 498.888206 
z
" clip-path="url(#pf3e84a874e)" style="fill: #0000ff; opacity: 0.8"/>
   </g>
   <g id="patch_35">
    <path d="M 376.353176 500.026568 
L 387.787257 500.026568 
L 387.787257 499.057315 
L 376.353176 499.057315 
z
" clip-path="url(#pf3e84a874e)" style="fill: #0000ff; opacity: 0.8"/>
   </g>
   <g id="patch_36">
    <path d="M 409.021979 500.026568 
L 420.45606 500.026568 
L 420.45606 499.455331 
L 409.021979 499.455331 
z
" clip-path="url(#pf3e84a874e)" style="fill: #0000ff; opacity: 0.8"/>
   </g>
   <g id="patch_37">
    <path d="M 441.690781 500.026568 
L 453.124862 500.026568 
L 453.124862 499.355355 
L 441.690781 499.355355 
z
" clip-path="url(#pf3e84a874e)" style="fill: #0000ff; opacity: 0.8"/>
   </g>
   <g id="patch_38">
    <path d="M 474.359584 500.026568 
L 485.793665 500.026568 
L 485.793665 499.751234 
L 474.359584 499.751234 
z
" clip-path="url(#pf3e84a874e)" style="fill: #0000ff; opacity: 0.8"/>
   </g>
   <g id="patch_39">
    <path d="M 507.028386 500.026568 
L 518.462467 500.026568 
L 518.462467 499.631807 
L 507.028386 499.631807 
z
" clip-path="url(#pf3e84a874e)" style="fill: #0000ff; opacity: 0.8"/>
   </g>
   <g id="patch_40">
    <path d="M 539.697189 500.026568 
L 551.13127 500.026568 
L 551.13127 499.965647 
L 539.697189 499.965647 
z
" clip-path="url(#pf3e84a874e)" style="fill: #0000ff; opacity: 0.8"/>
   </g>
   <g id="patch_41">
    <path d="M 572.365992 500.026568 
L 583.800072 500.026568 
L 583.800072 499.968048 
L 572.365992 499.968048 
z
" clip-path="url(#pf3e84a874e)" style="fill: #0000ff; opacity: 0.8"/>
   </g>
   <g id="patch_42">
    <path d="M 605.034794 500.026568 
L 616.468875 500.026568 
L 616.468875 499.996787 
L 605.034794 499.996787 
z
" clip-path="url(#pf3e84a874e)" style="fill: #0000ff; opacity: 0.8"/>
   </g>
   <g id="patch_43">
    <path d="M 637.703597 500.026568 
L 649.137678 500.026568 
L 649.137678 500.011972 
L 637.703597 500.011972 
z
" clip-path="url(#pf3e84a874e)" style="fill: #0000ff; opacity: 0.8"/>
   </g>
   <g id="patch_44">
    <path d="M 670.372399 500.026568 
L 681.80648 500.026568 
L 681.80648 500.023775 
L 670.372399 500.023775 
z
" clip-path="url(#pf3e84a874e)" style="fill: #0000ff; opacity: 0.8"/>
   </g>
   <g id="patch_45">
    <path d="M 703.041202 500.026568 
L 714.475283 500.026568 
L 714.475283 500.022964 
L 703.041202 500.022964 
z
" clip-path="url(#pf3e84a874e)" style="fill: #0000ff; opacity: 0.8"/>
   </g>
   <g id="patch_46">
    <path d="M 735.710004 500.026568 
L 747.144085 500.026568 
L 747.144085 500.022303 
L 735.710004 500.022303 
z
" clip-path="url(#pf3e84a874e)" style="fill: #0000ff; opacity: 0.8"/>
   </g>
   <g id="patch_47">
    <path d="M 768.378807 500.026568 
L 779.812888 500.026568 
L 779.812888 499.981932 
L 768.378807 499.981932 
z
" clip-path="url(#pf3e84a874e)" style="fill: #0000ff; opacity: 0.8"/>
   </g>
   <g id="patch_48">
    <path d="M 801.047609 500.026568 
L 812.48169 500.026568 
L 812.48169 500.022685 
L 801.047609 500.022685 
z
" clip-path="url(#pf3e84a874e)" style="fill: #0000ff; opacity: 0.8"/>
   </g>
   <g id="patch_49">
    <path d="M 33.820781 500.026568 
L 33.820781 21.935625 
" style="fill: none"/>
   </g>
   <g id="patch_50">
    <path d="M 849.560781 500.026568 
L 849.560781 21.935625 
" style="fill: none"/>
   </g>
   <g id="patch_51">
    <path d="M 33.820781 500.026568 
L 849.560781 500.026568 
" style="fill: none"/>
   </g>
   <g id="patch_52">
    <path d="M 33.820781 21.935625 
L 849.560781 21.935625 
" style="fill: none"/>
   </g>
   <g id="text_32">
    <!-- Total Population by Distance from Roads -->
    <g style="fill: #262626" transform="translate(333.310156 15.935625) scale(0.12 -0.12)">
     <defs>
      <path id="ArialMT-62" d="M 941 0 
L 419 0 
L 419 4581 
L 981 4581 
L 981 2947 
Q 1338 3394 1891 3394 
Q 2197 3394 2470 3270 
Q 2744 3147 2920 2923 
Q 3097 2700 3197 2384 
Q 3297 2069 3297 1709 
Q 3297 856 2875 390 
Q 2453 -75 1863 -75 
Q 1275 -75 941 416 
L 941 0 
z
M 934 1684 
Q 934 1088 1097 822 
Q 1363 388 1816 388 
Q 2184 388 2453 708 
Q 2722 1028 2722 1663 
Q 2722 2313 2464 2622 
Q 2206 2931 1841 2931 
Q 1472 2931 1203 2611 
Q 934 2291 934 1684 
z
" transform="scale(0.015625)"/>
      <path id="ArialMT-79" d="M 397 -1278 
L 334 -750 
Q 519 -800 656 -800 
Q 844 -800 956 -737 
Q 1069 -675 1141 -563 
Q 1194 -478 1313 -144 
Q 1328 -97 1363 -6 
L 103 3319 
L 709 3319 
L 1400 1397 
Q 1534 1031 1641 628 
Q 1738 1016 1872 1384 
L 2581 3319 
L 3144 3319 
L 1881 -56 
Q 1678 -603 1566 -809 
Q 1416 -1088 1222 -1217 
Q 1028 -1347 759 -1347 
Q 597 -1347 397 -1278 
z
" transform="scale(0.015625)"/>
     </defs>
     <use xlink:href="#ArialMT-54"/>
     <use xlink:href="#ArialMT-6f" x="49.958984"/>
     <use xlink:href="#ArialMT-74" x="105.574219"/>
     <use xlink:href="#ArialMT-61" x="133.357422"/>
     <use xlink:href="#ArialMT-6c" x="188.972656"/>
     <use xlink:href="#ArialMT-20" x="211.189453"/>
     <use xlink:href="#ArialMT-50" x="238.972656"/>
     <use xlink:href="#ArialMT-6f" x="305.671875"/>
     <use xlink:href="#ArialMT-70" x="361.287109"/>
     <use xlink:href="#ArialMT-75" x="416.902344"/>
     <use xlink:href="#ArialMT-6c" x="472.517578"/>
     <use xlink:href="#ArialMT-61" x="494.734375"/>
     <use xlink:href="#ArialMT-74" x="550.349609"/>
     <use xlink:href="#ArialMT-69" x="578.132812"/>
     <use xlink:href="#ArialMT-6f" x="600.349609"/>
     <use xlink:href="#ArialMT-6e" x="655.964844"/>
     <use xlink:href="#ArialMT-20" x="711.580078"/>
     <use xlink:href="#ArialMT-62" x="739.363281"/>
     <use xlink:href="#ArialMT-79" x="794.978516"/>
     <use xlink:href="#ArialMT-20" x="844.978516"/>
     <use xlink:href="#ArialMT-44" x="872.761719"/>
     <use xlink:href="#ArialMT-69" x="944.978516"/>
     <use xlink:href="#ArialMT-73" x="967.195312"/>
     <use xlink:href="#ArialMT-74" x="1017.195312"/>
     <use xlink:href="#ArialMT-61" x="1044.978516"/>
     <use xlink:href="#ArialMT-6e" x="1100.59375"/>
     <use xlink:href="#ArialMT-63" x="1156.208984"/>
     <use xlink:href="#ArialMT-65" x="1206.208984"/>
     <use xlink:href="#ArialMT-20" x="1261.824219"/>
     <use xlink:href="#ArialMT-66" x="1289.607422"/>
     <use xlink:href="#ArialMT-72" x="1317.390625"/>
     <use xlink:href="#ArialMT-6f" x="1350.691406"/>
     <use xlink:href="#ArialMT-6d" x="1406.306641"/>
     <use xlink:href="#ArialMT-20" x="1489.607422"/>
     <use xlink:href="#ArialMT-52" x="1517.390625"/>
     <use xlink:href="#ArialMT-6f" x="1589.607422"/>
     <use xlink:href="#ArialMT-61" x="1645.222656"/>
     <use xlink:href="#ArialMT-64" x="1700.837891"/>
     <use xlink:href="#ArialMT-73" x="1756.453125"/>
    </g>
   </g>
   <g id="legend_1">
    <g id="patch_53">
     <path d="M 785.326406 38.093437 
L 805.326406 38.093437 
L 805.326406 31.093437 
L 785.326406 31.093437 
z
" style="fill: #008000; opacity: 0.8"/>
    </g>
    <g id="text_33">
     <!-- Rural -->
     <g style="fill: #262626" transform="translate(813.326406 38.093437) scale(0.1 -0.1)">
      <use xlink:href="#ArialMT-52"/>
      <use xlink:href="#ArialMT-75" x="72.216797"/>
      <use xlink:href="#ArialMT-72" x="127.832031"/>
      <use xlink:href="#ArialMT-61" x="161.132812"/>
      <use xlink:href="#ArialMT-6c" x="216.748047"/>
     </g>
    </g>
    <g id="patch_54">
     <path d="M 785.326406 52.23875 
L 805.326406 52.23875 
L 805.326406 45.23875 
L 785.326406 45.23875 
z
" style="fill: #0000ff; opacity: 0.8"/>
    </g>
    <g id="text_34">
     <!-- Urban -->
     <g style="fill: #262626" transform="translate(813.326406 52.23875) scale(0.1 -0.1)">
      <defs>
       <path id="ArialMT-55" d="M 3500 4581 
L 4106 4581 
L 4106 1934 
Q 4106 1244 3950 837 
Q 3794 431 3386 176 
Q 2978 -78 2316 -78 
Q 1672 -78 1262 144 
Q 853 366 678 786 
Q 503 1206 503 1934 
L 503 4581 
L 1109 4581 
L 1109 1938 
Q 1109 1341 1220 1058 
Q 1331 775 1601 622 
Q 1872 469 2263 469 
Q 2931 469 3215 772 
Q 3500 1075 3500 1938 
L 3500 4581 
z
" transform="scale(0.015625)"/>
      </defs>
      <use xlink:href="#ArialMT-55"/>
      <use xlink:href="#ArialMT-72" x="72.216797"/>
      <use xlink:href="#ArialMT-62" x="105.517578"/>
      <use xlink:href="#ArialMT-61" x="161.132812"/>
      <use xlink:href="#ArialMT-6e" x="216.748047"/>
     </g>
    </g>
   </g>
  </g>
 </g>
 <defs>
  <clipPath id="pf3e84a874e">
   <rect x="33.820781" y="21.935625" width="815.74" height="478.090943"/>
  </clipPath>
 </defs>
</svg>
