<svg width="112" height="164" viewBox="0 0 112 164" fill="none" xmlns="http://www.w3.org/2000/svg">
<rect width="27.3333" height="27.3333" fill="#001839"/>
<rect y="27.333" width="27.3333" height="27.3333" fill="#002559"/>
<rect y="54.667" width="27.3333" height="27.3333" fill="#1D467D"/>
<rect y="82" width="27.3333" height="27.3333" fill="#2E73CB"/>
<rect y="109.333" width="27.3333" height="27.3333" fill="#3A90FF"/>
<rect y="136.667" width="27.3333" height="27.3333" fill="#FFE900"/>
<path d="M45.9208 13.2778L45.7288 13.7898L39.2968 11.2138V10.7658L45.7288 8.18976L45.9208 8.66976L40.1288 10.9738L45.9208 13.2778ZM48.703 9.62976V9.10176H55.327V9.62976H48.703ZM48.703 12.8298V12.3018H55.327V12.8298H48.703ZM60.8223 6.74976L62.9343 5.42176H64.0703V15.0058C64.0703 15.3791 64.0863 15.5978 64.1183 15.6618C64.1503 15.7258 64.2516 15.7684 64.4223 15.7898L65.3023 15.8858V16.3018H61.1263V15.8858L62.3263 15.7898C62.497 15.7791 62.5983 15.7418 62.6303 15.6778C62.6623 15.6031 62.6783 15.3791 62.6783 15.0058V6.18976L61.0943 7.18176L60.8223 6.74976Z" fill="black"/>
<path d="M38.3848 37.448L40.4968 36.12H41.6328V45.704C41.6328 46.0773 41.6488 46.296 41.6808 46.36C41.7128 46.424 41.8141 46.4667 41.9848 46.488L42.8648 46.584V47H38.6888V46.584L39.8888 46.488C40.0595 46.4773 40.1608 46.44 40.1928 46.376C40.2248 46.3013 40.2408 46.0773 40.2408 45.704V36.888L38.6568 37.88L38.3848 37.448ZM48.2904 41.928V41.368H52.5144V41.928H48.2904ZM57.7442 37.448L59.8562 36.12H60.9922V45.704C60.9922 46.0773 61.0082 46.296 61.0402 46.36C61.0722 46.424 61.1735 46.4667 61.3442 46.488L62.2242 46.584V47H58.0482V46.584L59.2482 46.488C59.4188 46.4773 59.5202 46.44 59.5522 46.376C59.5842 46.3013 59.6002 46.0773 59.6002 45.704V36.888L58.0162 37.88L57.7442 37.448ZM69.3848 34.808H69.8008V37.352H64.8728L64.6808 40.776C64.9901 40.5627 65.3261 40.4027 65.6888 40.296C66.0621 40.1893 66.4461 40.136 66.8408 40.136C67.8968 40.136 68.7341 40.4613 69.3528 41.112C69.9715 41.752 70.2808 42.6107 70.2808 43.688C70.2808 44.296 70.1635 44.8667 69.9288 45.4C69.6941 45.9227 69.3155 46.3493 68.7928 46.68C68.2808 47 67.6088 47.16 66.7768 47.16C66.0408 47.16 65.4008 46.9787 64.8568 46.616C64.3128 46.2427 63.9181 45.592 63.6728 44.664L64.6808 44.376C64.8088 45.2507 65.0595 45.848 65.4328 46.168C65.8061 46.488 66.2275 46.648 66.6968 46.648C67.3581 46.648 67.8595 46.408 68.2008 45.928C68.5528 45.4373 68.7288 44.6907 68.7288 43.688C68.7288 42.8027 68.5741 42.0827 68.2648 41.528C67.9661 40.9627 67.4328 40.68 66.6648 40.68C66.3021 40.68 65.9288 40.7493 65.5448 40.888C65.1608 41.016 64.7821 41.2453 64.4088 41.576L64.0888 41.432L64.3928 36.12H68.3608C68.7448 36.12 68.9741 36.104 69.0488 36.072C69.1341 36.0293 69.1928 35.9067 69.2248 35.704L69.3848 34.808Z" fill="black"/>
<path d="M38.3848 66.448L40.4968 65.12H41.6328V74.704C41.6328 75.0773 41.6488 75.296 41.6808 75.36C41.7128 75.424 41.8141 75.4667 41.9848 75.488L42.8648 75.584V76H38.6888V75.584L39.8888 75.488C40.0595 75.4773 40.1608 75.44 40.1928 75.376C40.2248 75.3013 40.2408 75.0773 40.2408 74.704V65.888L38.6568 66.88L38.3848 66.448ZM50.0254 63.808H50.4414V66.352H45.5134L45.3214 69.776C45.6307 69.5627 45.9667 69.4027 46.3294 69.296C46.7027 69.1893 47.0867 69.136 47.4814 69.136C48.5374 69.136 49.3747 69.4613 49.9934 70.112C50.6121 70.752 50.9214 71.6107 50.9214 72.688C50.9214 73.296 50.8041 73.8667 50.5694 74.4C50.3347 74.9227 49.9561 75.3493 49.4334 75.68C48.9214 76 48.2494 76.16 47.4174 76.16C46.6814 76.16 46.0414 75.9787 45.4974 75.616C44.9534 75.2427 44.5587 74.592 44.3134 73.664L45.3214 73.376C45.4494 74.2507 45.7001 74.848 46.0734 75.168C46.4467 75.488 46.8681 75.648 47.3374 75.648C47.9987 75.648 48.5001 75.408 48.8414 74.928C49.1934 74.4373 49.3694 73.6907 49.3694 72.688C49.3694 71.8027 49.2147 71.0827 48.9054 70.528C48.6067 69.9627 48.0734 69.68 47.3054 69.68C46.9427 69.68 46.5694 69.7493 46.1854 69.888C45.8014 70.016 45.4227 70.2453 45.0494 70.576L44.7294 70.432L45.0334 65.12H49.0014C49.3854 65.12 49.6147 65.104 49.6894 65.072C49.7747 65.0293 49.8334 64.9067 49.8654 64.704L50.0254 63.808ZM56.4623 70.928V70.368H60.6863V70.928H56.4623ZM71.916 63.808H72.332V66.352H67.404L67.212 69.776C67.5214 69.5627 67.8574 69.4027 68.22 69.296C68.5934 69.1893 68.9774 69.136 69.372 69.136C70.428 69.136 71.2654 69.4613 71.884 70.112C72.5027 70.752 72.812 71.6107 72.812 72.688C72.812 73.296 72.6947 73.8667 72.46 74.4C72.2254 74.9227 71.8467 75.3493 71.324 75.68C70.812 76 70.14 76.16 69.308 76.16C68.572 76.16 67.932 75.9787 67.388 75.616C66.844 75.2427 66.4494 74.592 66.204 73.664L67.212 73.376C67.34 74.2507 67.5907 74.848 67.964 75.168C68.3374 75.488 68.7587 75.648 69.228 75.648C69.8894 75.648 70.3907 75.408 70.732 74.928C71.084 74.4373 71.26 73.6907 71.26 72.688C71.26 71.8027 71.1054 71.0827 70.796 70.528C70.4974 69.9627 69.964 69.68 69.196 69.68C68.8334 69.68 68.46 69.7493 68.076 69.888C67.692 70.016 67.3134 70.2453 66.94 70.576L66.62 70.432L66.924 65.12H70.892C71.276 65.12 71.5054 65.104 71.58 65.072C71.6654 65.0293 71.724 64.9067 71.756 64.704L71.916 63.808ZM82.2319 70.048V71.056C82.2319 72.08 82.0879 72.976 81.7999 73.744C81.5119 74.512 81.0906 75.1093 80.5359 75.536C79.9812 75.952 79.3092 76.16 78.5199 76.16C77.7199 76.16 77.0426 75.952 76.4879 75.536C75.9439 75.1093 75.5279 74.512 75.2399 73.744C74.9519 72.976 74.8079 72.08 74.8079 71.056V70.048C74.8079 69.024 74.9519 68.1333 75.2399 67.376C75.5279 66.608 75.9439 66.016 76.4879 65.6C77.0426 65.1733 77.7199 64.96 78.5199 64.96C79.3092 64.96 79.9812 65.1733 80.5359 65.6C81.0906 66.016 81.5119 66.608 81.7999 67.376C82.0879 68.1333 82.2319 69.024 82.2319 70.048ZM80.6799 68.928C80.6799 67.6907 80.4932 66.8053 80.1199 66.272C79.7466 65.7387 79.2132 65.472 78.5199 65.472C77.8266 65.472 77.2932 65.7387 76.9199 66.272C76.5466 66.8053 76.3599 67.6907 76.3599 68.928V72.176C76.3599 73.424 76.5466 74.3147 76.9199 74.848C77.2932 75.3813 77.8266 75.648 78.5199 75.648C79.2132 75.648 79.7466 75.3813 80.1199 74.848C80.4932 74.3147 80.6799 73.424 80.6799 72.176V68.928Z" fill="black"/>
<path d="M44.3848 91.808H44.8008V94.352H39.8728L39.6808 97.776C39.9901 97.5627 40.3261 97.4027 40.6888 97.296C41.0621 97.1893 41.4461 97.136 41.8408 97.136C42.8968 97.136 43.7341 97.4613 44.3528 98.112C44.9715 98.752 45.2808 99.6107 45.2808 100.688C45.2808 101.296 45.1635 101.867 44.9288 102.4C44.6941 102.923 44.3155 103.349 43.7928 103.68C43.2808 104 42.6088 104.16 41.7768 104.16C41.0408 104.16 40.4008 103.979 39.8568 103.616C39.3128 103.243 38.9181 102.592 38.6728 101.664L39.6808 101.376C39.8088 102.251 40.0595 102.848 40.4328 103.168C40.8061 103.488 41.2275 103.648 41.6968 103.648C42.3581 103.648 42.8595 103.408 43.2008 102.928C43.5528 102.437 43.7288 101.691 43.7288 100.688C43.7288 99.8027 43.5741 99.0827 43.2648 98.528C42.9661 97.9627 42.4328 97.68 41.6648 97.68C41.3021 97.68 40.9288 97.7493 40.5448 97.888C40.1608 98.016 39.7821 98.2453 39.4088 98.576L39.0888 98.432L39.3928 93.12H43.3608C43.7448 93.12 43.9741 93.104 44.0488 93.072C44.1341 93.0293 44.1928 92.9067 44.2248 92.704L44.3848 91.808ZM54.7007 98.048V99.056C54.7007 100.08 54.5567 100.976 54.2687 101.744C53.9807 102.512 53.5593 103.109 53.0047 103.536C52.45 103.952 51.778 104.16 50.9887 104.16C50.1887 104.16 49.5113 103.952 48.9567 103.536C48.4127 103.109 47.9967 102.512 47.7087 101.744C47.4207 100.976 47.2767 100.08 47.2767 99.056V98.048C47.2767 97.024 47.4207 96.1333 47.7087 95.376C47.9967 94.608 48.4127 94.016 48.9567 93.6C49.5113 93.1733 50.1887 92.96 50.9887 92.96C51.778 92.96 52.45 93.1733 53.0047 93.6C53.5593 94.016 53.9807 94.608 54.2687 95.376C54.5567 96.1333 54.7007 97.024 54.7007 98.048ZM53.1487 96.928C53.1487 95.6907 52.962 94.8053 52.5887 94.272C52.2153 93.7387 51.682 93.472 50.9887 93.472C50.2953 93.472 49.762 93.7387 49.3887 94.272C49.0153 94.8053 48.8287 95.6907 48.8287 96.928V100.176C48.8287 101.424 49.0153 102.315 49.3887 102.848C49.762 103.381 50.2953 103.648 50.9887 103.648C51.682 103.648 52.2153 103.381 52.5887 102.848C52.962 102.315 53.1487 101.424 53.1487 100.176V96.928ZM60.6498 98.928V98.368H64.8738V98.928H60.6498ZM70.1035 94.448L72.2155 93.12H73.3515V102.704C73.3515 103.077 73.3675 103.296 73.3995 103.36C73.4315 103.424 73.5329 103.467 73.7035 103.488L74.5835 103.584V104H70.4075V103.584L71.6075 103.488C71.7782 103.477 71.8795 103.44 71.9115 103.376C71.9435 103.301 71.9595 103.077 71.9595 102.704V93.888L70.3755 94.88L70.1035 94.448ZM81.7442 91.808H82.1602V94.352H77.2322L77.0402 97.776C77.3495 97.5627 77.6855 97.4027 78.0482 97.296C78.4215 97.1893 78.8055 97.136 79.2002 97.136C80.2562 97.136 81.0935 97.4613 81.7122 98.112C82.3308 98.752 82.6402 99.6107 82.6402 100.688C82.6402 101.296 82.5228 101.867 82.2882 102.4C82.0535 102.923 81.6748 103.349 81.1522 103.68C80.6402 104 79.9682 104.16 79.1362 104.16C78.4002 104.16 77.7602 103.979 77.2162 103.616C76.6722 103.243 76.2775 102.592 76.0322 101.664L77.0402 101.376C77.1682 102.251 77.4188 102.848 77.7922 103.168C78.1655 103.488 78.5868 103.648 79.0562 103.648C79.7175 103.648 80.2188 103.408 80.5602 102.928C80.9122 102.437 81.0882 101.691 81.0882 100.688C81.0882 99.8027 80.9335 99.0827 80.6242 98.528C80.3255 97.9627 79.7922 97.68 79.0242 97.68C78.6615 97.68 78.2882 97.7493 77.9042 97.888C77.5202 98.016 77.1415 98.2453 76.7682 98.576L76.4482 98.432L76.7522 93.12H80.7202C81.1042 93.12 81.3335 93.104 81.4082 93.072C81.4935 93.0293 81.5522 92.9067 81.5842 92.704L81.7442 91.808ZM92.06 98.048V99.056C92.06 100.08 91.916 100.976 91.628 101.744C91.34 102.512 90.9187 103.109 90.364 103.536C89.8094 103.952 89.1374 104.16 88.348 104.16C87.548 104.16 86.8707 103.952 86.316 103.536C85.772 103.109 85.356 102.512 85.068 101.744C84.78 100.976 84.636 100.08 84.636 99.056V98.048C84.636 97.024 84.78 96.1333 85.068 95.376C85.356 94.608 85.772 94.016 86.316 93.6C86.8707 93.1733 87.548 92.96 88.348 92.96C89.1374 92.96 89.8094 93.1733 90.364 93.6C90.9187 94.016 91.34 94.608 91.628 95.376C91.916 96.1333 92.06 97.024 92.06 98.048ZM90.508 96.928C90.508 95.6907 90.3214 94.8053 89.948 94.272C89.5747 93.7387 89.0414 93.472 88.348 93.472C87.6547 93.472 87.1214 93.7387 86.748 94.272C86.3747 94.8053 86.188 95.6907 86.188 96.928V100.176C86.188 101.424 86.3747 102.315 86.748 102.848C87.1214 103.381 87.6547 103.648 88.348 103.648C89.0414 103.648 89.5747 103.381 89.948 102.848C90.3214 102.315 90.508 101.424 90.508 100.176V96.928Z" fill="black"/>
<path d="M38.3848 123.448L40.4968 122.12H41.6328V131.704C41.6328 132.077 41.6488 132.296 41.6808 132.36C41.7128 132.424 41.8141 132.467 41.9848 132.488L42.8648 132.584V133H38.6888V132.584L39.8888 132.488C40.0595 132.477 40.1608 132.44 40.1928 132.376C40.2248 132.301 40.2408 132.077 40.2408 131.704V122.888L38.6568 123.88L38.3848 123.448ZM50.0254 120.808H50.4414V123.352H45.5134L45.3214 126.776C45.6307 126.563 45.9667 126.403 46.3294 126.296C46.7027 126.189 47.0867 126.136 47.4814 126.136C48.5374 126.136 49.3747 126.461 49.9934 127.112C50.6121 127.752 50.9214 128.611 50.9214 129.688C50.9214 130.296 50.8041 130.867 50.5694 131.4C50.3347 131.923 49.9561 132.349 49.4334 132.68C48.9214 133 48.2494 133.16 47.4174 133.16C46.6814 133.16 46.0414 132.979 45.4974 132.616C44.9534 132.243 44.5587 131.592 44.3134 130.664L45.3214 130.376C45.4494 131.251 45.7001 131.848 46.0734 132.168C46.4467 132.488 46.8681 132.648 47.3374 132.648C47.9987 132.648 48.5001 132.408 48.8414 131.928C49.1934 131.437 49.3694 130.691 49.3694 129.688C49.3694 128.803 49.2147 128.083 48.9054 127.528C48.6067 126.963 48.0734 126.68 47.3054 126.68C46.9427 126.68 46.5694 126.749 46.1854 126.888C45.8014 127.016 45.4227 127.245 45.0494 127.576L44.7294 127.432L45.0334 122.12H49.0014C49.3854 122.12 49.6147 122.104 49.6894 122.072C49.7747 122.029 49.8334 121.907 49.8654 121.704L50.0254 120.808ZM60.3413 127.048V128.056C60.3413 129.08 60.1973 129.976 59.9093 130.744C59.6213 131.512 59.2 132.109 58.6453 132.536C58.0906 132.952 57.4186 133.16 56.6293 133.16C55.8293 133.16 55.152 132.952 54.5973 132.536C54.0533 132.109 53.6373 131.512 53.3493 130.744C53.0613 129.976 52.9173 129.08 52.9173 128.056V127.048C52.9173 126.024 53.0613 125.133 53.3493 124.376C53.6373 123.608 54.0533 123.016 54.5973 122.6C55.152 122.173 55.8293 121.96 56.6293 121.96C57.4186 121.96 58.0906 122.173 58.6453 122.6C59.2 123.016 59.6213 123.608 59.9093 124.376C60.1973 125.133 60.3413 126.024 60.3413 127.048ZM58.7893 125.928C58.7893 124.691 58.6026 123.805 58.2293 123.272C57.856 122.739 57.3226 122.472 56.6293 122.472C55.936 122.472 55.4026 122.739 55.0293 123.272C54.656 123.805 54.4693 124.691 54.4693 125.928V129.176C54.4693 130.424 54.656 131.315 55.0293 131.848C55.4026 132.381 55.936 132.648 56.6293 132.648C57.3226 132.648 57.856 132.381 58.2293 131.848C58.6026 131.315 58.7893 130.424 58.7893 129.176V125.928ZM66.2904 127.928V127.368H70.5144V127.928H66.2904ZM78.6242 127.656H78.1922V127.144H78.6242C79.5095 127.144 80.1282 126.92 80.4802 126.472C80.8428 126.024 81.0242 125.448 81.0242 124.744C81.0242 123.997 80.8695 123.432 80.5602 123.048C80.2508 122.664 79.8135 122.472 79.2482 122.472C78.5122 122.472 78.0002 122.739 77.7122 123.272C77.4348 123.795 77.3495 124.547 77.4562 125.528L76.0642 125.272C75.9682 124.696 76.0162 124.157 76.2082 123.656C76.4108 123.155 76.7628 122.749 77.2642 122.44C77.7762 122.12 78.4428 121.96 79.2642 121.96C80.0535 121.96 80.6882 122.093 81.1682 122.36C81.6588 122.616 82.0162 122.957 82.2402 123.384C82.4642 123.8 82.5762 124.253 82.5762 124.744C82.5762 125.491 82.3468 126.083 81.8882 126.52C81.4402 126.957 80.7895 127.251 79.9362 127.4C80.8428 127.539 81.5362 127.848 82.0162 128.328C82.5068 128.808 82.7522 129.459 82.7522 130.28C82.7522 130.803 82.6242 131.283 82.3682 131.72C82.1228 132.157 81.7388 132.509 81.2162 132.776C80.7042 133.032 80.0375 133.16 79.2162 133.16C78.4375 133.16 77.7548 132.979 77.1682 132.616C76.5922 132.253 76.1815 131.603 75.9362 130.664L76.9442 130.376C77.0295 130.963 77.1788 131.421 77.3922 131.752C77.6162 132.083 77.8775 132.317 78.1762 132.456C78.4855 132.584 78.8108 132.648 79.1522 132.648C80.5175 132.648 81.2002 131.859 81.2002 130.28C81.2002 129.512 81.0082 128.883 80.6242 128.392C80.2402 127.901 79.5735 127.656 78.6242 127.656ZM92.3257 127.048V128.056C92.3257 129.08 92.1817 129.976 91.8937 130.744C91.6057 131.512 91.1843 132.109 90.6297 132.536C90.075 132.952 89.403 133.16 88.6137 133.16C87.8137 133.16 87.1363 132.952 86.5817 132.536C86.0377 132.109 85.6217 131.512 85.3337 130.744C85.0457 129.976 84.9017 129.08 84.9017 128.056V127.048C84.9017 126.024 85.0457 125.133 85.3337 124.376C85.6217 123.608 86.0377 123.016 86.5817 122.6C87.1363 122.173 87.8137 121.96 88.6137 121.96C89.403 121.96 90.075 122.173 90.6297 122.6C91.1843 123.016 91.6057 123.608 91.8937 124.376C92.1817 125.133 92.3257 126.024 92.3257 127.048ZM90.7737 125.928C90.7737 124.691 90.587 123.805 90.2137 123.272C89.8403 122.739 89.307 122.472 88.6137 122.472C87.9203 122.472 87.387 122.739 87.0137 123.272C86.6403 123.805 86.4537 124.691 86.4537 125.928V129.176C86.4537 130.424 86.6403 131.315 87.0137 131.848C87.387 132.381 87.9203 132.648 88.6137 132.648C89.307 132.648 89.8403 132.381 90.2137 131.848C90.587 131.315 90.7737 130.424 90.7737 129.176V125.928ZM102.154 127.048V128.056C102.154 129.08 102.01 129.976 101.722 130.744C101.434 131.512 101.012 132.109 100.458 132.536C99.9031 132.952 99.2311 133.16 98.4418 133.16C97.6418 133.16 96.9645 132.952 96.4098 132.536C95.8658 132.109 95.4498 131.512 95.1618 130.744C94.8738 129.976 94.7298 129.08 94.7298 128.056V127.048C94.7298 126.024 94.8738 125.133 95.1618 124.376C95.4498 123.608 95.8658 123.016 96.4098 122.6C96.9645 122.173 97.6418 121.96 98.4418 121.96C99.2311 121.96 99.9031 122.173 100.458 122.6C101.012 123.016 101.434 123.608 101.722 124.376C102.01 125.133 102.154 126.024 102.154 127.048ZM100.602 125.928C100.602 124.691 100.415 123.805 100.042 123.272C99.6685 122.739 99.1351 122.472 98.4418 122.472C97.7485 122.472 97.2151 122.739 96.8418 123.272C96.4685 123.805 96.2818 124.691 96.2818 125.928V129.176C96.2818 130.424 96.4685 131.315 96.8418 131.848C97.2151 132.381 97.7485 132.648 98.4418 132.648C99.1351 132.648 99.6685 132.381 100.042 131.848C100.415 131.315 100.602 130.424 100.602 129.176V125.928Z" fill="black"/>
<path d="M45.9208 154.912L39.4888 157.488L39.2968 156.992L45.0888 154.688L39.2968 152.384L39.4888 151.888L45.9208 154.464V154.912ZM54.296 154.656H53.864V154.144H54.296C55.1814 154.144 55.8 153.92 56.152 153.472C56.5147 153.024 56.696 152.448 56.696 151.744C56.696 150.997 56.5414 150.432 56.232 150.048C55.9227 149.664 55.4854 149.472 54.92 149.472C54.184 149.472 53.672 149.739 53.384 150.272C53.1067 150.795 53.0214 151.547 53.128 152.528L51.736 152.272C51.64 151.696 51.688 151.157 51.88 150.656C52.0827 150.155 52.4347 149.749 52.936 149.44C53.448 149.12 54.1147 148.96 54.936 148.96C55.7254 148.96 56.36 149.093 56.84 149.36C57.3307 149.616 57.688 149.957 57.912 150.384C58.136 150.8 58.248 151.253 58.248 151.744C58.248 152.491 58.0187 153.083 57.56 153.52C57.112 153.957 56.4614 154.251 55.608 154.4C56.5147 154.539 57.208 154.848 57.688 155.328C58.1787 155.808 58.424 156.459 58.424 157.28C58.424 157.803 58.296 158.283 58.04 158.72C57.7947 159.157 57.4107 159.509 56.888 159.776C56.376 160.032 55.7094 160.16 54.888 160.16C54.1094 160.16 53.4267 159.979 52.84 159.616C52.264 159.253 51.8534 158.603 51.608 157.664L52.616 157.376C52.7014 157.963 52.8507 158.421 53.064 158.752C53.288 159.083 53.5494 159.317 53.848 159.456C54.1574 159.584 54.4827 159.648 54.824 159.648C56.1894 159.648 56.872 158.859 56.872 157.28C56.872 156.512 56.68 155.883 56.296 155.392C55.912 154.901 55.2454 154.656 54.296 154.656ZM67.9975 154.048V155.056C67.9975 156.08 67.8535 156.976 67.5655 157.744C67.2775 158.512 66.8562 159.109 66.3015 159.536C65.7469 159.952 65.0749 160.16 64.2855 160.16C63.4855 160.16 62.8082 159.952 62.2535 159.536C61.7095 159.109 61.2935 158.512 61.0055 157.744C60.7175 156.976 60.5735 156.08 60.5735 155.056V154.048C60.5735 153.024 60.7175 152.133 61.0055 151.376C61.2935 150.608 61.7095 150.016 62.2535 149.6C62.8082 149.173 63.4855 148.96 64.2855 148.96C65.0749 148.96 65.7469 149.173 66.3015 149.6C66.8562 150.016 67.2775 150.608 67.5655 151.376C67.8535 152.133 67.9975 153.024 67.9975 154.048ZM66.4455 152.928C66.4455 151.691 66.2589 150.805 65.8855 150.272C65.5122 149.739 64.9789 149.472 64.2855 149.472C63.5922 149.472 63.0589 149.739 62.6855 150.272C62.3122 150.805 62.1255 151.691 62.1255 152.928V156.176C62.1255 157.424 62.3122 158.315 62.6855 158.848C63.0589 159.381 63.5922 159.648 64.2855 159.648C64.9789 159.648 65.5122 159.381 65.8855 158.848C66.2589 158.315 66.4455 157.424 66.4455 156.176V152.928ZM77.8257 154.048V155.056C77.8257 156.08 77.6817 156.976 77.3937 157.744C77.1057 158.512 76.6843 159.109 76.1297 159.536C75.575 159.952 74.903 160.16 74.1137 160.16C73.3137 160.16 72.6363 159.952 72.0817 159.536C71.5377 159.109 71.1217 158.512 70.8337 157.744C70.5457 156.976 70.4017 156.08 70.4017 155.056V154.048C70.4017 153.024 70.5457 152.133 70.8337 151.376C71.1217 150.608 71.5377 150.016 72.0817 149.6C72.6363 149.173 73.3137 148.96 74.1137 148.96C74.903 148.96 75.575 149.173 76.1297 149.6C76.6843 150.016 77.1057 150.608 77.3937 151.376C77.6817 152.133 77.8257 153.024 77.8257 154.048ZM76.2737 152.928C76.2737 151.691 76.087 150.805 75.7137 150.272C75.3403 149.739 74.807 149.472 74.1137 149.472C73.4203 149.472 72.887 149.739 72.5137 150.272C72.1403 150.805 71.9537 151.691 71.9537 152.928V156.176C71.9537 157.424 72.1403 158.315 72.5137 158.848C72.887 159.381 73.4203 159.648 74.1137 159.648C74.807 159.648 75.3403 159.381 75.7137 158.848C76.087 158.315 76.2737 157.424 76.2737 156.176V152.928Z" fill="black"/>
</svg>
