<svg id="Cap_BiggestMrker" data-name="Cap&amp;BiggestMrker" xmlns="http://www.w3.org/2000/svg" viewBox="0 0 1553.35 1650.73"><defs><style>.cls-1{fill:none;stroke:#cc5e30;stroke-miterlimit:10;stroke-width:0.5px;}.cls-2{fill:#fff;opacity:0.6;}</style></defs><circle class="cls-1" cx="1428.67" cy="1628.66" r="21.82"/><circle class="cls-2" cx="1175.74" cy="1390.4" r="21.82"/><circle class="cls-2" cx="1066.07" cy="1469.18" r="21.82"/><circle class="cls-2" cx="1030.08" cy="1365.52" r="21.82"/><circle class="cls-2" cx="837" cy="1320.44" r="21.82"/><circle class="cls-2" cx="1142.68" cy="1218.03" r="21.82"/><circle class="cls-2" cx="1082.31" cy="1164.22" r="21.82"/><circle class="cls-2" cx="1199.07" cy="1132.93" r="21.82"/><circle class="cls-2" cx="1223.99" cy="932.23" r="21.82"/><circle class="cls-2" cx="1107.04" cy="903.14" r="21.82"/><circle class="cls-2" cx="1123.57" cy="866.52" r="21.82"/><circle class="cls-2" cx="1176.7" cy="820.87" r="21.82"/><circle class="cls-2" cx="1269.89" cy="853.05" r="21.82"/><circle class="cls-2" cx="1154.07" cy="721.28" r="21.82"/><circle class="cls-2" cx="1307.21" cy="632.99" r="21.82"/><circle class="cls-2" cx="1454.57" cy="782.21" r="21.82"/><circle class="cls-2" cx="1406.51" cy="574.31" r="21.82"/><circle class="cls-2" cx="1314.9" cy="492.03" r="21.82"/><circle class="cls-2" cx="1175.19" cy="487.8" r="21.82"/><circle class="cls-2" cx="716.36" cy="741.3" r="21.82"/><circle class="cls-2" cx="793.27" cy="561.65" r="21.82"/><circle class="cls-2" cx="489.87" cy="691.89" r="21.82"/><circle class="cls-2" cx="460.78" cy="703.55" r="21.82"/><circle class="cls-2" cx="228.11" cy="688.66" r="21.82"/><circle class="cls-2" cx="177.59" cy="643.96" r="21.82"/><circle class="cls-2" cx="168.12" cy="615.08" r="21.82"/><circle class="cls-2" cx="119.92" cy="567.29" r="21.82"/><circle class="cls-2" cx="87.09" cy="505" r="21.82"/><circle class="cls-2" cx="23.55" cy="497.3" r="21.82"/><circle class="cls-2" cx="115.78" cy="431.67" r="21.82"/><circle class="cls-2" cx="290.45" cy="551.07" r="21.82"/><circle class="cls-2" cx="430.79" cy="556.95" r="21.82"/><circle class="cls-2" cx="510.29" cy="531.67" r="21.82"/><circle class="cls-2" cx="530.73" cy="23.4" r="21.82"/><circle class="cls-2" cx="686.49" cy="22.07" r="21.82"/><circle class="cls-2" cx="752.1" cy="108.04" r="21.82"/><circle class="cls-2" cx="1147.38" cy="168.47" r="21.82"/><circle class="cls-2" cx="754.82" cy="1022.34" r="21.82"/><circle class="cls-2" cx="673.29" cy="818.56" r="21.82"/><circle class="cls-2" cx="610.48" cy="819.95" r="21.82"/><circle class="cls-2" cx="869.27" cy="731.07" r="21.82"/><circle class="cls-2" cx="800.1" cy="923.61" r="21.82"/><circle class="cls-2" cx="797.43" cy="919.24" r="21.82"/><circle class="cls-2" cx="314.8" cy="83.99" r="21.82"/><circle class="cls-2" cx="102.13" cy="533.09" r="21.82"/><circle class="cls-2" cx="348.8" cy="678.4" r="21.82"/><circle class="cls-2" cx="627.26" cy="628.64" r="21.82"/><circle class="cls-2" cx="655.51" cy="745.57" r="21.82"/><circle class="cls-2" cx="1147.23" cy="1403.76" r="21.82"/><circle class="cls-2" cx="1075" cy="1403.39" r="21.82"/><circle class="cls-2" cx="521.42" cy="684.02" r="21.82"/><circle class="cls-1" cx="1175.74" cy="1390.4" r="21.82"/><circle class="cls-1" cx="1066.07" cy="1469.18" r="21.82"/><circle class="cls-1" cx="1030.08" cy="1365.52" r="21.82"/><circle class="cls-1" cx="837" cy="1320.44" r="21.82"/><circle class="cls-1" cx="1142.68" cy="1218.03" r="21.82"/><circle class="cls-1" cx="1082.31" cy="1164.22" r="21.82"/><circle class="cls-1" cx="1199.07" cy="1132.93" r="21.82"/><circle class="cls-1" cx="1224.21" cy="931.93" r="21.82"/><circle class="cls-1" cx="1107.04" cy="903.14" r="21.82"/><circle class="cls-1" cx="1123.57" cy="866.52" r="21.82"/><circle class="cls-1" cx="1176.7" cy="820.87" r="21.82"/><circle class="cls-1" cx="1269.89" cy="853.05" r="21.82"/><circle class="cls-1" cx="1154.07" cy="721.28" r="21.82"/><circle class="cls-1" cx="1307.21" cy="632.99" r="21.82"/><circle class="cls-1" cx="1454.57" cy="782.21" r="21.82"/><circle class="cls-1" cx="1406.51" cy="574.31" r="21.82"/><circle class="cls-1" cx="1314.9" cy="492.03" r="21.82"/><circle class="cls-1" cx="1175.19" cy="487.8" r="21.82"/><circle class="cls-1" cx="716.36" cy="741.3" r="21.82"/><circle class="cls-1" cx="793.27" cy="561.65" r="21.82"/><circle class="cls-1" cx="489.87" cy="691.89" r="21.82"/><circle class="cls-1" cx="460.78" cy="703.55" r="21.82"/><circle class="cls-1" cx="228.11" cy="688.66" r="21.82"/><circle class="cls-1" cx="176.58" cy="643.63" r="21.82"/><circle class="cls-1" cx="168.12" cy="615.08" r="21.82"/><circle class="cls-1" cx="120.27" cy="567.44" r="21.82"/><circle class="cls-1" cx="87.09" cy="505" r="21.82"/><circle class="cls-1" cx="115.78" cy="431.67" r="21.82"/><circle class="cls-1" cx="290.45" cy="551.07" r="21.82"/><circle class="cls-1" cx="430.79" cy="556.95" r="21.82"/><circle class="cls-1" cx="510.29" cy="531.67" r="21.82"/><circle class="cls-1" cx="530.73" cy="23.4" r="21.82"/><circle class="cls-1" cx="686.49" cy="22.07" r="21.82"/><circle class="cls-1" cx="752.1" cy="108.04" r="21.82"/><circle class="cls-1" cx="1147.38" cy="168.47" r="21.82"/><circle class="cls-1" cx="754.82" cy="1022.34" r="21.82"/><circle class="cls-1" cx="1430.99" cy="1537.89" r="21.82"/><circle class="cls-1" cx="673.29" cy="818.56" r="21.82"/><circle class="cls-1" cx="610.51" cy="819.95" r="21.82"/><circle class="cls-1" cx="22.07" cy="497.85" r="21.82"/><circle class="cls-1" cx="869.27" cy="731.07" r="21.82"/><circle class="cls-1" cx="800.1" cy="923.61" r="21.82"/><circle class="cls-1" cx="797.43" cy="919.24" r="21.82"/><circle class="cls-1" cx="314.8" cy="83.99" r="21.82"/><circle class="cls-1" cx="102.13" cy="533.09" r="21.82"/><circle class="cls-1" cx="348.8" cy="678.4" r="21.82"/><circle class="cls-1" cx="627.26" cy="628.64" r="21.82"/><circle class="cls-1" cx="655.51" cy="745.57" r="21.82"/><circle class="cls-1" cx="1147.23" cy="1403.76" r="21.82"/><circle class="cls-1" cx="1075" cy="1403.31" r="21.82"/><circle class="cls-1" cx="521.42" cy="684.02" r="21.82"/><circle class="cls-1" cx="1414.31" cy="1077.71" r="21.82"/><circle class="cls-1" cx="1531.28" cy="1215.56" r="21.82"/></svg>