<svg id="Cap_Biggest" data-name="Cap &amp; Biggest" xmlns="http://www.w3.org/2000/svg" viewBox="0 0 1535.09 1634.12"><defs><style>.cls-1{opacity:0.7;}.cls-2,.cls-3{fill:#cc5e30;}.cls-10,.cls-2,.cls-5,.cls-7,.cls-8{fill-rule:evenodd;}.cls-4,.cls-5,.cls-8,.cls-9{fill:#c84f32;}.cls-6,.cls-7{fill:none;stroke:#727171;stroke-miterlimit:10;stroke-width:0.3px;}.cls-8{fill-opacity:0.65;}.cls-9{opacity:0.65;}.cls-10,.cls-11{fill:#c95032;}.cls-10,.cls-11,.cls-12{opacity:0.52;}.cls-12{fill:#ca5031;}</style></defs><g id="_300k_-_1M" data-name="300k - 1M" class="cls-1"><path class="cls-2" d="M955.16,856.11a10.91,10.91,0,1,1-10.91-10.91A10.9,10.9,0,0,1,955.16,856.11Z" transform="translate(-86.46 -131.73)"/><circle class="cls-3" cx="661.67" cy="811.36" r="10.91"/><path class="cls-2" d="M1492.4,699.35a10.91,10.91,0,1,1-10.91-10.91A10.91,10.91,0,0,1,1492.4,699.35Z" transform="translate(-86.46 -131.73)"/><circle class="cls-3" cx="1389.88" cy="617.07" r="10.91" transform="translate(-115.71 1031.81) rotate(-45)"/><circle class="cls-3" cx="112.01" cy="561.17" r="10.91"/><circle class="cls-3" cx="1142.59" cy="714.59" r="10.91"/><circle class="cls-3" cx="1018.6" cy="1358.83" r="10.91"/><circle class="cls-3" cx="1063.52" cy="1397.12" r="10.91"/><circle class="cls-3" cx="911.98" cy="1445.48" r="10.91" transform="translate(-747.37 1982.42) rotate(-80.78)"/><circle class="cls-3" cx="1141.05" cy="1594.22" r="10.91" transform="translate(-879.53 1142.05) rotate(-45)"/><path id="_300k_-_1M-2" data-name="300k - 1M" class="cls-2" d="M607.31,809.06a10.91,10.91,0,1,1-10.91-10.91A10.92,10.92,0,0,1,607.31,809.06Z" transform="translate(-86.46 -131.73)"/></g><g id="_1M_-_2M" data-name="1M - 2M" class="cls-1"><circle class="cls-4" cx="826.71" cy="234.07" r="14.55" transform="translate(322.51 853.16) rotate(-76.72)"/><circle class="cls-4" cx="478.01" cy="686.2" r="14.55"/><path class="cls-5" d="M1543.72,908.24a14.55,14.55,0,1,1-14.54-14.54A14.54,14.54,0,0,1,1543.72,908.24Z" transform="translate(-86.46 -131.73)"/><circle class="cls-4" cx="785.57" cy="914.28" r="14.55"/><path class="cls-5" d="M266,769.73a14.55,14.55,0,1,1-14.55-14.54A14.54,14.54,0,0,1,266,769.73Z" transform="translate(-86.46 -131.73)"/><circle class="cls-4" cx="867.88" cy="687.68" r="14.55" transform="translate(-318.53 683.37) rotate(-45)"/><path class="cls-5" d="M317.27,814.69a14.55,14.55,0,1,1-14.55-14.55A14.55,14.55,0,0,1,317.27,814.69Z" transform="translate(-86.46 -131.73)"/><circle class="cls-4" cx="1273.67" cy="1258.96" r="14.55" transform="translate(-330.7 2077.59) rotate(-76.72)"/><circle class="cls-4" cx="584.9" cy="657.7" r="14.55" transform="translate(-300.54 895.18) rotate(-73.15)"/><circle class="cls-4" cx="190.38" cy="557.7" r="14.55" transform="translate(-484.18 388.44) rotate(-67.5)"/><circle class="cls-4" cx="1181.65" cy="1029.17" r="14.55" transform="translate(-177.94 1811.03) rotate(-76.72)"/><circle class="cls-4" cx="302.95" cy="78.29" r="14.55"/><circle class="cls-4" cx="615.41" cy="622.94" r="14.55"/><path class="cls-5" d="M775.64,148.1a14.55,14.55,0,1,1-14.54-14.55A14.55,14.55,0,0,1,775.64,148.1Z" transform="translate(-86.46 -131.73)"/><circle class="cls-4" cx="1250.35" cy="1516.43" r="14.55" transform="translate(-715.6 1959.56) rotate(-67.5)"/><circle class="cls-4" cx="1130.83" cy="1212.33" r="14.55"/><circle class="cls-4" cx="1156.92" cy="1290.25" r="14.55" transform="translate(-451.08 1988.06) rotate(-76.72)"/><path class="cls-5" d="M1212.72,992.55A14.55,14.55,0,1,1,1198.18,978,14.55,14.55,0,0,1,1212.72,992.55Z" transform="translate(-86.46 -131.73)"/><circle class="cls-4" cx="505.4" cy="683.33" r="14.55" transform="translate(-428.04 622.27) rotate(-58.28)"/><circle class="cls-4" cx="365.05" cy="677.1" r="14.55" transform="translate(-486.66 623.52) rotate(-67.5)"/><circle class="cls-4" cx="242.72" cy="741.11" r="14.55" transform="translate(-615.16 495.05) rotate(-63.44)"/></g><g id="_3M_" data-name="3M +" class="cls-1"><circle class="cls-4" cx="1222.28" cy="294.25" r="17.46" transform="translate(63.47 818.74) rotate(-45)"/><path class="cls-5" d="M847.17,1148.12a17.46,17.46,0,1,1-17.46-17.45A17.46,17.46,0,0,1,847.17,1148.12Z" transform="translate(-86.46 -131.73)"/><path class="cls-5" d="M1362.24,978.83a17.46,17.46,0,1,1-17.46-17.45A17.46,17.46,0,0,1,1362.24,978.83Z" transform="translate(-86.46 -131.73)"/><circle class="cls-4" cx="1298.79" cy="1058.28" r="8.42" transform="translate(-392.58 445.86) rotate(-22.5)"/><circle class="cls-4" cx="1250.09" cy="613.64" r="17.46" transform="translate(279.2 1557.57) rotate(-76.72)"/><circle class="cls-4" cx="535.03" cy="829.32" r="17.46" transform="translate(-500.21 969.35) rotate(-73.15)"/><path class="cls-5" d="M808.71,867.08a17.46,17.46,0,1,1-17.46-17.45A17.46,17.46,0,0,1,808.71,867.08Z" transform="translate(-86.46 -131.73)"/><circle class="cls-4" cx="519.17" cy="17.46" r="17.46"/><path class="cls-5" d="M1269.05,946.65a17.46,17.46,0,1,1-17.45-17.46A17.45,17.45,0,0,1,1269.05,946.65Z" transform="translate(-86.46 -131.73)"/><circle class="cls-4" cx="1295.64" cy="627.04" r="17.46"/><path class="cls-5" d="M179.44,630.78A17.46,17.46,0,1,1,162,613.32,17.45,17.45,0,0,1,179.44,630.78Z" transform="translate(-86.46 -131.73)"/><circle class="cls-4" cx="788.53" cy="917.66" r="17.46"/><circle class="cls-6" cx="1393.87" cy="1101.84" r="17.46" transform="translate(-402.01 485.55) rotate(-22.5)"/><path class="cls-7" d="M966.79,1700.18a17.46,17.46,0,1,1-17.46-17.46A17.46,17.46,0,0,1,966.79,1700.18Z" transform="translate(-86.46 -131.73)"/></g><path class="cls-8" d="M696.23,945.73a10.64,10.64,0,1,1-10.64-10.64A10.65,10.65,0,0,1,696.23,945.73Z" transform="translate(-86.46 -131.73)"/><path class="cls-8" d="M434.32,804.18a10.64,10.64,0,1,1-10.63-10.64A10.63,10.63,0,0,1,434.32,804.18Z" transform="translate(-86.46 -131.73)"/><path class="cls-8" d="M108,623.48A10.75,10.75,0,1,1,97.2,612.73,10.74,10.74,0,0,1,108,623.48Z" transform="translate(-86.46 -131.73)"/><path class="cls-8" d="M740.91,871.35a10.64,10.64,0,1,1-10.63-10.64A10.63,10.63,0,0,1,740.91,871.35Z" transform="translate(-86.46 -131.73)"/><circle class="cls-9" cx="1135.62" cy="1397.58" r="8.18"/><g id="_30k_-_100k" data-name="30k - 100k" class="cls-1"><path class="cls-5" d="M180.39,658.87a4.09,4.09,0,1,1-4.09-4.09A4.09,4.09,0,0,1,180.39,658.87Z" transform="translate(-86.46 -131.73)"/></g><path class="cls-10" d="M1514.44,1754.79a11.06,11.06,0,1,1-11-11A11.06,11.06,0,0,1,1514.44,1754.79Z" transform="translate(-86.46 -131.73)"/><circle class="cls-11" cx="1402.79" cy="1071.97" r="8.21"/><circle class="cls-12" cx="1519.72" cy="1209.62" r="15.37"/><circle class="cls-11" cx="1505.69" cy="1664.22" r="3.77" transform="translate(-464.68 2752.16) rotate(-80.78)"/></svg>